<svg width="236" height="21" viewBox="0 0 236 21" fill="none" xmlns="http://www.w3.org/2000/svg">
<path d="M5.81789 12.972H8.74389V16.272H5.81789V12.972ZM14.7279 0.586H17.6539V20.958H14.7279V0.586ZM1.10989 17.57L0.757891 15.194C1.98989 15.194 3.33189 15.1867 4.78389 15.172C6.23589 15.1573 7.72456 15.106 9.24989 15.018C10.7899 14.93 12.2712 14.7907 13.6939 14.6L13.8919 16.712C12.4106 16.976 10.9146 17.174 9.40389 17.306C7.90789 17.4233 6.45589 17.4967 5.04789 17.526C3.63989 17.5553 2.32722 17.57 1.10989 17.57ZM1.15389 2.83H13.4299V5.118H1.15389V2.83ZM7.29189 5.91C8.28922 5.91 9.16922 6.07133 9.93189 6.394C10.6946 6.71667 11.2886 7.164 11.7139 7.736C12.1539 8.308 12.3739 8.97533 12.3739 9.738C12.3739 10.486 12.1539 11.1533 11.7139 11.74C11.2886 12.312 10.6946 12.7593 9.93189 13.082C9.16922 13.4047 8.28922 13.566 7.29189 13.566C6.29456 13.566 5.41456 13.4047 4.65189 13.082C3.88922 12.7593 3.28789 12.312 2.84789 11.74C2.42256 11.1533 2.20989 10.486 2.20989 9.738C2.20989 8.97533 2.42256 8.308 2.84789 7.736C3.28789 7.164 3.88922 6.71667 4.65189 6.394C5.41456 6.07133 6.29456 5.91 7.29189 5.91ZM7.29189 8.11C6.61722 8.11 6.06722 8.25667 5.64189 8.55C5.21656 8.82867 5.00389 9.22467 5.00389 9.738C5.00389 10.266 5.21656 10.6693 5.64189 10.948C6.06722 11.2267 6.61722 11.366 7.29189 11.366C7.96656 11.366 8.51656 11.2267 8.94189 10.948C9.36722 10.6693 9.57989 10.266 9.57989 9.738C9.57989 9.22467 9.36722 8.82867 8.94189 8.55C8.51656 8.25667 7.96656 8.11 7.29189 8.11ZM5.81789 0.651999H8.76589V4.15H5.81789V0.651999ZM26.4302 11.036H29.3562V15.48H26.4302V11.036ZM35.3402 0.563999H38.2662V16.008H35.3402V0.563999ZM23.5922 18.252H38.7282V20.606H23.5922V18.252ZM23.5922 14.534H26.5182V18.89H23.5922V14.534ZM21.4142 11.916L21.0402 9.584C22.2868 9.56933 23.6435 9.55467 25.1102 9.54C26.5768 9.51067 28.0728 9.452 29.5982 9.364C31.1235 9.276 32.5902 9.144 33.9982 8.968L34.1962 11.058C32.7442 11.3073 31.2628 11.498 29.7522 11.63C28.2562 11.7473 26.7968 11.8207 25.3742 11.85C23.9515 11.8793 22.6315 11.9013 21.4142 11.916ZM31.5122 12.4H36.0002V14.402H31.5122V12.4ZM27.5962 1.268C28.5935 1.268 29.4735 1.422 30.2362 1.73C30.9988 2.038 31.5928 2.46333 32.0182 3.006C32.4582 3.54867 32.6782 4.18667 32.6782 4.92C32.6782 5.63867 32.4582 6.27667 32.0182 6.834C31.5928 7.37667 30.9988 7.79467 30.2362 8.088C29.4735 8.38133 28.5935 8.528 27.5962 8.528C26.5988 8.528 25.7115 8.38133 24.9342 8.088C24.1715 7.79467 23.5775 7.37667 23.1522 6.834C22.7268 6.27667 22.5142 5.63867 22.5142 4.92C22.5142 4.18667 22.7268 3.54867 23.1522 3.006C23.5775 2.46333 24.1715 2.038 24.9342 1.73C25.7115 1.422 26.5988 1.268 27.5962 1.268ZM27.5962 3.402C26.9215 3.402 26.3642 3.52667 25.9242 3.776C25.4988 4.02533 25.2862 4.40667 25.2862 4.92C25.2862 5.404 25.4988 5.778 25.9242 6.042C26.3642 6.29133 26.9215 6.416 27.5962 6.416C28.2855 6.416 28.8355 6.29133 29.2462 6.042C29.6715 5.778 29.8842 5.404 29.8842 4.92C29.8842 4.58267 29.7888 4.304 29.5982 4.084C29.4075 3.864 29.1435 3.69533 28.8062 3.578C28.4688 3.46067 28.0655 3.402 27.5962 3.402ZM54.5885 0.541999H57.5365V20.914H54.5885V0.541999ZM56.7885 8.352H60.3745V10.75H56.7885V8.352ZM49.2425 2.654H52.1245C52.1245 4.69267 51.8311 6.62133 51.2445 8.44C50.6725 10.2587 49.7191 11.9307 48.3845 13.456C47.0645 14.9667 45.2751 16.2867 43.0165 17.416L41.3665 15.194C43.1558 14.27 44.6298 13.2287 45.7885 12.07C46.9618 10.9113 47.8271 9.59867 48.3845 8.132C48.9565 6.65067 49.2425 5.00067 49.2425 3.182V2.654ZM42.4885 2.654H50.7605V5.008H42.4885V2.654ZM76.0367 0.586H78.9627V11.52H76.0367V0.586ZM65.4327 12.422H68.3147V14.314H76.0587V12.422H78.9627V20.738H65.4327V12.422ZM68.3147 16.558V18.406H76.0587V16.558H68.3147ZM67.8747 1.422C68.9307 1.422 69.8767 1.62733 70.7127 2.038C71.5487 2.44867 72.2087 3.01333 72.6927 3.732C73.1767 4.45067 73.4187 5.27933 73.4187 6.218C73.4187 7.15667 73.1767 7.99267 72.6927 8.726C72.2087 9.44467 71.5487 10.0093 70.7127 10.42C69.8767 10.8307 68.9307 11.036 67.8747 11.036C66.8187 11.036 65.8727 10.8307 65.0367 10.42C64.2007 10.0093 63.5407 9.44467 63.0567 8.726C62.5727 7.99267 62.3307 7.15667 62.3307 6.218C62.3307 5.27933 62.5727 4.45067 63.0567 3.732C63.5407 3.01333 64.2007 2.44867 65.0367 2.038C65.8727 1.62733 66.8187 1.422 67.8747 1.422ZM67.8747 3.82C67.3614 3.82 66.8994 3.91533 66.4887 4.106C66.0781 4.29667 65.7554 4.57533 65.5207 4.942C65.3007 5.294 65.1907 5.71933 65.1907 6.218C65.1907 6.73133 65.3007 7.17133 65.5207 7.538C65.7554 7.89 66.0781 8.16133 66.4887 8.352C66.8994 8.528 67.3614 8.616 67.8747 8.616C68.3881 8.616 68.8427 8.528 69.2387 8.352C69.6494 8.16133 69.9721 7.89 70.2067 7.538C70.4414 7.17133 70.5587 6.73133 70.5587 6.218C70.5587 5.71933 70.4414 5.294 70.2067 4.942C69.9721 4.57533 69.6494 4.29667 69.2387 4.106C68.8427 3.91533 68.3881 3.82 67.8747 3.82ZM96.473 0.541999H99.399V20.98H96.473V0.541999ZM88.421 1.972C89.4623 1.972 90.3863 2.27267 91.193 2.874C91.9997 3.46067 92.6303 4.304 93.085 5.404C93.5543 6.48933 93.789 7.77267 93.789 9.254C93.789 10.75 93.5543 12.048 93.085 13.148C92.6303 14.2333 91.9997 15.0767 91.193 15.678C90.3863 16.2647 89.4623 16.558 88.421 16.558C87.3943 16.558 86.4777 16.2647 85.671 15.678C84.8643 15.0767 84.2263 14.2333 83.757 13.148C83.3023 12.048 83.075 10.75 83.075 9.254C83.075 7.77267 83.3023 6.48933 83.757 5.404C84.2263 4.304 84.8643 3.46067 85.671 2.874C86.4777 2.27267 87.3943 1.972 88.421 1.972ZM88.421 4.634C87.9223 4.634 87.4823 4.81 87.101 5.162C86.7197 5.514 86.419 6.03467 86.199 6.724C85.9937 7.39867 85.891 8.242 85.891 9.254C85.891 10.2513 85.9937 11.102 86.199 11.806C86.419 12.4953 86.7197 13.016 87.101 13.368C87.4823 13.72 87.9223 13.896 88.421 13.896C88.9343 13.896 89.3817 13.72 89.763 13.368C90.1443 13.016 90.4377 12.4953 90.643 11.806C90.863 11.102 90.973 10.2513 90.973 9.254C90.973 8.242 90.863 7.39867 90.643 6.724C90.4377 6.03467 90.1443 5.514 89.763 5.162C89.3817 4.81 88.9343 4.634 88.421 4.634ZM112.528 8.814H115.454V11.916H112.528V8.814ZM113.98 1.4C114.963 1.4 115.835 1.576 116.598 1.928C117.361 2.26533 117.962 2.74933 118.402 3.38C118.842 3.996 119.062 4.71467 119.062 5.536C119.062 6.34267 118.842 7.06133 118.402 7.692C117.962 8.308 117.361 8.792 116.598 9.144C115.835 9.496 114.963 9.672 113.98 9.672C112.997 9.672 112.117 9.496 111.34 9.144C110.577 8.792 109.976 8.308 109.536 7.692C109.096 7.06133 108.876 6.34267 108.876 5.536C108.876 4.71467 109.096 3.996 109.536 3.38C109.976 2.74933 110.577 2.26533 111.34 1.928C112.117 1.576 112.997 1.4 113.98 1.4ZM113.98 3.578C113.525 3.578 113.115 3.65867 112.748 3.82C112.396 3.96667 112.117 4.18667 111.912 4.48C111.707 4.77333 111.604 5.12533 111.604 5.536C111.604 5.94667 111.707 6.29867 111.912 6.592C112.117 6.87067 112.396 7.09067 112.748 7.252C113.115 7.39867 113.525 7.472 113.98 7.472C114.449 7.472 114.86 7.39867 115.212 7.252C115.564 7.09067 115.835 6.87067 116.026 6.592C116.231 6.29867 116.334 5.94667 116.334 5.536C116.334 5.12533 116.231 4.77333 116.026 4.48C115.835 4.18667 115.564 3.96667 115.212 3.82C114.86 3.65867 114.449 3.578 113.98 3.578ZM121.13 0.586H124.056V16.118H121.13V0.586ZM123.044 6.988H126.63V9.364H123.044V6.988ZM110.482 18.252H124.76V20.584H110.482V18.252ZM110.482 14.798H113.408V19.264H110.482V14.798ZM108.172 13.478L107.82 11.168C108.979 11.168 110.247 11.1607 111.626 11.146C113.019 11.1167 114.435 11.058 115.872 10.97C117.324 10.882 118.717 10.7427 120.052 10.552L120.25 12.642C118.886 12.8913 117.485 13.082 116.048 13.214C114.611 13.3313 113.217 13.4047 111.868 13.434C110.519 13.4633 109.287 13.478 108.172 13.478ZM133.03 12.444H135.912V17.262H133.03V12.444ZM139.476 12.444H142.336V17.24H139.476V12.444ZM128.366 16.338H146.824V18.714H128.366V16.338ZM130.456 1.884H144.734V8.638H133.382V12.092H130.478V6.35H141.83V4.216H130.456V1.884ZM130.478 10.882H145.196V13.214H130.478V10.882ZM150.188 8.814H160.836V11.168H150.188V8.814ZM154.016 10.706H156.964V15.018H154.016V10.706ZM150.188 2.368H160.726V4.7H153.136V9.54H150.188V2.368ZM162.882 0.541999H165.808V20.98H162.882V0.541999ZM149.242 16.976L148.912 14.6C150.218 14.6 151.596 14.5927 153.048 14.578C154.5 14.5633 155.967 14.5267 157.448 14.468C158.944 14.3947 160.389 14.2773 161.782 14.116L161.98 16.25C160.514 16.4847 159.04 16.6533 157.558 16.756C156.092 16.8587 154.654 16.9247 153.246 16.954C151.853 16.9687 150.518 16.976 149.242 16.976ZM174.101 12.752H176.323V13.522C176.323 14.5633 176.161 15.5607 175.839 16.514C175.531 17.4673 175.039 18.3033 174.365 19.022C173.705 19.7407 172.839 20.2907 171.769 20.672L170.317 18.56C171.211 18.2373 171.93 17.812 172.473 17.284C173.03 16.756 173.441 16.1693 173.705 15.524C173.969 14.864 174.101 14.1967 174.101 13.522V12.752ZM174.827 12.752H176.939V13.522C176.939 14.1967 177.056 14.8713 177.291 15.546C177.525 16.206 177.899 16.8147 178.413 17.372C178.926 17.9293 179.601 18.384 180.437 18.736L179.227 20.892C178.156 20.4813 177.298 19.8873 176.653 19.11C176.007 18.3473 175.538 17.482 175.245 16.514C174.966 15.5313 174.827 14.534 174.827 13.522V12.752ZM181.515 12.752H183.627V13.522C183.627 14.4753 183.48 15.436 183.187 16.404C182.908 17.372 182.446 18.252 181.801 19.044C181.17 19.8507 180.312 20.4667 179.227 20.892L178.039 18.736C178.875 18.3547 179.549 17.8707 180.063 17.284C180.576 16.6973 180.943 16.0813 181.163 15.436C181.397 14.776 181.515 14.138 181.515 13.522V12.752ZM182.219 12.752H184.419V13.522C184.419 14.2407 184.543 14.93 184.793 15.59C185.042 16.25 185.445 16.8367 186.003 17.35C186.56 17.8633 187.293 18.2667 188.203 18.56L186.751 20.672C185.68 20.3053 184.807 19.77 184.133 19.066C183.473 18.362 182.989 17.5333 182.681 16.58C182.373 15.6267 182.219 14.6073 182.219 13.522V12.752ZM179.205 5.294H184.023V7.67H179.205V5.294ZM174.893 1.598C175.919 1.598 176.836 1.81067 177.643 2.236C178.449 2.66133 179.087 3.24067 179.557 3.974C180.026 4.70733 180.261 5.55067 180.261 6.504C180.261 7.44267 180.026 8.27867 179.557 9.012C179.087 9.74533 178.449 10.3247 177.643 10.75C176.836 11.1753 175.919 11.388 174.893 11.388C173.881 11.388 172.964 11.1753 172.143 10.75C171.336 10.3247 170.698 9.74533 170.229 9.012C169.759 8.27867 169.525 7.44267 169.525 6.504C169.525 5.55067 169.759 4.70733 170.229 3.974C170.698 3.24067 171.336 2.66133 172.143 2.236C172.964 1.81067 173.881 1.598 174.893 1.598ZM174.893 4.018C174.409 4.018 173.969 4.12067 173.573 4.326C173.177 4.51667 172.869 4.79533 172.649 5.162C172.429 5.52867 172.319 5.976 172.319 6.504C172.319 7.00267 172.429 7.44267 172.649 7.824C172.869 8.19067 173.177 8.47667 173.573 8.682C173.969 8.87267 174.409 8.968 174.893 8.968C175.391 8.968 175.831 8.87267 176.213 8.682C176.609 8.47667 176.917 8.19067 177.137 7.824C177.357 7.44267 177.467 7.00267 177.467 6.504C177.467 5.976 177.357 5.52867 177.137 5.162C176.917 4.79533 176.609 4.51667 176.213 4.326C175.831 4.12067 175.391 4.018 174.893 4.018ZM183.385 0.586H186.333V11.982H183.385V0.586ZM195.307 1.972C196.319 1.972 197.221 2.27267 198.013 2.874C198.82 3.46067 199.443 4.304 199.883 5.404C200.338 6.48933 200.565 7.77267 200.565 9.254C200.565 10.75 200.338 12.048 199.883 13.148C199.443 14.2333 198.82 15.0767 198.013 15.678C197.221 16.2647 196.319 16.558 195.307 16.558C194.295 16.558 193.393 16.2647 192.601 15.678C191.809 15.0767 191.186 14.2333 190.731 13.148C190.276 12.048 190.049 10.75 190.049 9.254C190.049 7.77267 190.276 6.48933 190.731 5.404C191.186 4.304 191.809 3.46067 192.601 2.874C193.393 2.27267 194.295 1.972 195.307 1.972ZM195.307 4.634C194.823 4.634 194.39 4.81 194.009 5.162C193.642 5.514 193.356 6.03467 193.151 6.724C192.946 7.39867 192.843 8.242 192.843 9.254C192.843 10.2513 192.946 11.102 193.151 11.806C193.356 12.4953 193.642 13.016 194.009 13.368C194.39 13.72 194.823 13.896 195.307 13.896C195.82 13.896 196.26 13.72 196.627 13.368C196.994 13.016 197.28 12.4953 197.485 11.806C197.69 11.102 197.793 10.2513 197.793 9.254C197.793 8.242 197.69 7.39867 197.485 6.724C197.28 6.03467 196.994 5.514 196.627 5.162C196.26 4.81 195.82 4.634 195.307 4.634ZM203.909 0.541999H206.835V20.98H203.909V0.541999ZM199.707 7.912H205.141V10.244H199.707V7.912ZM214.247 10.926H217.173V16.624H214.247V10.926ZM221.639 10.926H224.565V16.624H221.639V10.926ZM210.199 16.206H228.657V18.582H210.199V16.206ZM219.395 1.576C220.862 1.576 222.167 1.80333 223.311 2.258C224.47 2.71267 225.372 3.35067 226.017 4.172C226.677 4.97867 227.007 5.93933 227.007 7.054C227.007 8.154 226.677 9.11467 226.017 9.936C225.372 10.7427 224.47 11.3733 223.311 11.828C222.167 12.2827 220.862 12.51 219.395 12.51C217.943 12.51 216.638 12.2827 215.479 11.828C214.335 11.3733 213.433 10.7427 212.773 9.936C212.113 9.11467 211.783 8.154 211.783 7.054C211.783 5.93933 212.113 4.97867 212.773 4.172C213.433 3.35067 214.335 2.71267 215.479 2.258C216.638 1.80333 217.943 1.576 219.395 1.576ZM219.395 3.842C218.457 3.842 217.628 3.974 216.909 4.238C216.205 4.48733 215.655 4.84667 215.259 5.316C214.863 5.78533 214.665 6.36467 214.665 7.054C214.665 7.714 214.863 8.286 215.259 8.77C215.655 9.23933 216.205 9.606 216.909 9.87C217.628 10.1193 218.457 10.244 219.395 10.244C220.349 10.244 221.177 10.1193 221.881 9.87C222.6 9.606 223.15 9.23933 223.531 8.77C223.927 8.286 224.125 7.714 224.125 7.054C224.125 6.36467 223.927 5.78533 223.531 5.316C223.15 4.84667 222.6 4.48733 221.881 4.238C221.177 3.974 220.349 3.842 219.395 3.842ZM235.459 3L235.099 14.1016H231.888L231.529 3H235.459ZM233.49 19.2266C232.933 19.2266 232.453 19.0286 232.052 18.6328C231.657 18.237 231.459 17.7578 231.459 17.1953C231.459 16.6432 231.657 16.1719 232.052 15.7812C232.453 15.3854 232.933 15.1875 233.49 15.1875C234.026 15.1875 234.498 15.3854 234.904 15.7812C235.315 16.1719 235.521 16.6432 235.521 17.1953C235.521 17.5703 235.425 17.9115 235.232 18.2188C235.045 18.526 234.797 18.7708 234.49 18.9531C234.188 19.1354 233.855 19.2266 233.49 19.2266Z" fill="#123524"/>
</svg>
