<svg width="193" height="21" viewBox="0 0 193 21" fill="none" xmlns="http://www.w3.org/2000/svg">
<path d="M1.938 13.038H15.82V20.98H12.894V15.37H1.938V13.038ZM12.894 0.607999H15.82V12.18H12.894V0.607999ZM0.046 1.664H2.95V10.046H0.046V1.664ZM0.046 8.726H1.806C3.258 8.726 4.776 8.66733 6.36 8.55C7.944 8.43267 9.56467 8.21267 11.222 7.89L11.574 10.244C9.858 10.5813 8.17867 10.816 6.536 10.948C4.89333 11.08 3.31667 11.146 1.806 11.146H0.046V8.726ZM20.1303 2.522H23.0123V14.358H20.1303V2.522ZM20.1303 13.61H21.5603C22.7776 13.61 23.9289 13.5733 25.0143 13.5C26.1143 13.4267 27.2509 13.2727 28.4243 13.038L28.7983 15.48C27.5809 15.7293 26.3929 15.8907 25.2343 15.964C24.0756 16.0373 22.8509 16.074 21.5603 16.074H20.1303V13.61ZM34.1003 0.563999H36.8943V20.936H34.1003V0.563999ZM25.7843 7.01H30.4483V9.364H25.7843V7.01ZM29.7883 0.915999H32.5163V20.034H29.7883V0.915999ZM53.8106 0.586H56.7366V12.114H53.8106V0.586ZM43.1846 13.016H56.7366V20.738H43.1846V13.016ZM53.8766 15.326H46.0666V18.428H53.8766V15.326ZM45.6486 1.51C46.7046 1.51 47.6506 1.72267 48.4866 2.148C49.3226 2.55867 49.9826 3.13067 50.4666 3.864C50.9506 4.59733 51.1926 5.44067 51.1926 6.394C51.1926 7.34733 50.9506 8.198 50.4666 8.946C49.9826 9.67933 49.3226 10.2587 48.4866 10.684C47.6506 11.0947 46.7046 11.3 45.6486 11.3C44.5926 11.3 43.6466 11.0947 42.8106 10.684C41.9746 10.2587 41.3146 9.67933 40.8306 8.946C40.3466 8.198 40.1046 7.34733 40.1046 6.394C40.1046 5.44067 40.3466 4.59733 40.8306 3.864C41.3146 3.13067 41.9746 2.55867 42.8106 2.148C43.6466 1.72267 44.5926 1.51 45.6486 1.51ZM45.6486 3.93C45.1499 3.93 44.6952 4.03267 44.2846 4.238C43.8739 4.42867 43.5512 4.70733 43.3166 5.074C43.0819 5.426 42.9646 5.866 42.9646 6.394C42.9646 6.90733 43.0819 7.35467 43.3166 7.736C43.5512 8.10267 43.8739 8.38133 44.2846 8.572C44.6952 8.76267 45.1499 8.858 45.6486 8.858C46.1619 8.858 46.6166 8.76267 47.0126 8.572C47.4232 8.38133 47.7459 8.10267 47.9806 7.736C48.2152 7.35467 48.3326 6.90733 48.3326 6.394C48.3326 5.866 48.2152 5.426 47.9806 5.074C47.7459 4.70733 47.4232 4.42867 47.0126 4.238C46.6166 4.03267 46.1619 3.93 45.6486 3.93ZM69.4948 0.849999C71.8122 0.849999 73.6162 1.15067 74.9068 1.752C76.2122 2.35333 76.8648 3.21867 76.8648 4.348C76.8648 5.46267 76.2122 6.32067 74.9068 6.922C73.6162 7.52333 71.8122 7.824 69.4948 7.824C67.1628 7.824 65.3442 7.52333 64.0388 6.922C62.7482 6.32067 62.1028 5.46267 62.1028 4.348C62.1028 3.21867 62.7482 2.35333 64.0388 1.752C65.3442 1.15067 67.1628 0.849999 69.4948 0.849999ZM69.4728 3.006C68.5048 3.006 67.6982 3.05733 67.0528 3.16C66.4075 3.248 65.9235 3.39467 65.6008 3.6C65.2928 3.79067 65.1388 4.04 65.1388 4.348C65.1388 4.656 65.2928 4.91267 65.6008 5.118C65.9235 5.30867 66.4075 5.448 67.0528 5.536C67.6982 5.624 68.5048 5.668 69.4728 5.668C70.4555 5.668 71.2695 5.624 71.9148 5.536C72.5602 5.448 73.0368 5.30867 73.3448 5.118C73.6528 4.91267 73.8068 4.656 73.8068 4.348C73.8068 4.04 73.6528 3.79067 73.3448 3.6C73.0368 3.39467 72.5602 3.248 71.9148 3.16C71.2695 3.05733 70.4555 3.006 69.4728 3.006ZM60.2548 8.77H78.6908V11.08H60.2548V8.77ZM62.3668 12.224H76.4468V17.438H65.2928V19.242H62.3888V15.414H73.5648V14.38H62.3668V12.224ZM62.3888 18.604H76.9968V20.826H62.3888V18.604ZM90.5877 3.798H92.9197V6.086C92.9197 7.25933 92.795 8.41067 92.5457 9.54C92.311 10.6693 91.9517 11.7327 91.4677 12.73C90.9984 13.7127 90.4044 14.5853 89.6857 15.348C88.967 16.096 88.131 16.69 87.1777 17.13L85.5057 14.82C86.3564 14.424 87.097 13.9107 87.7277 13.28C88.373 12.6493 88.901 11.9453 89.3117 11.168C89.737 10.376 90.0524 9.54733 90.2577 8.682C90.4777 7.802 90.5877 6.93667 90.5877 6.086V3.798ZM91.2257 3.798H93.5357V6.086C93.5357 6.89267 93.6384 7.714 93.8437 8.55C94.0637 9.37133 94.379 10.156 94.7897 10.904C95.2004 11.6373 95.721 12.2973 96.3517 12.884C96.9824 13.4707 97.7304 13.94 98.5957 14.292L96.9897 16.624C96.0217 16.1987 95.1784 15.6267 94.4597 14.908C93.741 14.1893 93.1397 13.3607 92.6557 12.422C92.1717 11.4833 91.8124 10.4787 91.5777 9.408C91.343 8.32267 91.2257 7.21533 91.2257 6.086V3.798ZM86.3197 2.522H97.7597V4.942H86.3197V2.522ZM99.6517 0.586H102.578V20.958H99.6517V0.586ZM111.706 1.972C112.718 1.972 113.62 2.27267 114.412 2.874C115.219 3.46067 115.842 4.304 116.282 5.404C116.737 6.48933 116.964 7.77267 116.964 9.254C116.964 10.75 116.737 12.048 116.282 13.148C115.842 14.2333 115.219 15.0767 114.412 15.678C113.62 16.2647 112.718 16.558 111.706 16.558C110.694 16.558 109.792 16.2647 109 15.678C108.208 15.0767 107.585 14.2333 107.13 13.148C106.675 12.048 106.448 10.75 106.448 9.254C106.448 7.77267 106.675 6.48933 107.13 5.404C107.585 4.304 108.208 3.46067 109 2.874C109.792 2.27267 110.694 1.972 111.706 1.972ZM111.706 4.634C111.222 4.634 110.789 4.81 110.408 5.162C110.041 5.514 109.755 6.03467 109.55 6.724C109.345 7.39867 109.242 8.242 109.242 9.254C109.242 10.2513 109.345 11.102 109.55 11.806C109.755 12.4953 110.041 13.016 110.408 13.368C110.789 13.72 111.222 13.896 111.706 13.896C112.219 13.896 112.659 13.72 113.026 13.368C113.393 13.016 113.679 12.4953 113.884 11.806C114.089 11.102 114.192 10.2513 114.192 9.254C114.192 8.242 114.089 7.39867 113.884 6.724C113.679 6.03467 113.393 5.514 113.026 5.162C112.659 4.81 112.219 4.634 111.706 4.634ZM120.308 0.541999H123.234V20.98H120.308V0.541999ZM116.106 7.912H121.54V10.244H116.106V7.912ZM134.122 2.83H136.674V3.446C136.674 4.15 136.557 4.832 136.322 5.492C136.102 6.152 135.765 6.768 135.31 7.34C134.856 7.89733 134.298 8.40333 133.638 8.858C132.993 9.298 132.245 9.672 131.394 9.98C130.544 10.288 129.598 10.508 128.556 10.64L127.478 8.374C128.388 8.25667 129.194 8.08067 129.898 7.846C130.617 7.59667 131.24 7.31067 131.768 6.988C132.296 6.65067 132.736 6.29133 133.088 5.91C133.44 5.52867 133.697 5.12533 133.858 4.7C134.034 4.27467 134.122 3.85667 134.122 3.446V2.83ZM134.98 2.83H137.51V3.446C137.51 3.85667 137.591 4.27467 137.752 4.7C137.928 5.12533 138.192 5.52867 138.544 5.91C138.896 6.29133 139.336 6.65067 139.864 6.988C140.407 7.31067 141.03 7.59667 141.734 7.846C142.438 8.08067 143.245 8.25667 144.154 8.374L143.076 10.64C142.035 10.508 141.089 10.288 140.238 9.98C139.388 9.672 138.632 9.298 137.972 8.858C137.327 8.40333 136.777 7.89733 136.322 7.34C135.882 6.768 135.545 6.152 135.31 5.492C135.09 4.832 134.98 4.15 134.98 3.446V2.83ZM134.276 13.5H137.202V20.958H134.276V13.5ZM126.598 11.806H145.034V14.16H126.598V11.806ZM128.226 1.62H143.34V3.93H128.226V1.62ZM155.065 7.428H158.453V9.804H155.065V7.428ZM150.731 2.346H152.953V5.756C152.953 6.91467 152.872 8.05133 152.711 9.166C152.549 10.2807 152.285 11.3293 151.919 12.312C151.567 13.2947 151.097 14.182 150.511 14.974C149.939 15.7513 149.242 16.3893 148.421 16.888L146.661 14.688C147.423 14.2333 148.061 13.676 148.575 13.016C149.088 12.356 149.506 11.63 149.829 10.838C150.151 10.046 150.379 9.22467 150.511 8.374C150.657 7.50867 150.731 6.636 150.731 5.756V2.346ZM151.369 2.346H153.547V5.624C153.547 6.46 153.605 7.28867 153.723 8.11C153.855 8.93133 154.06 9.716 154.339 10.464C154.617 11.212 154.984 11.9013 155.439 12.532C155.908 13.1627 156.495 13.7053 157.199 14.16L155.593 16.448C154.801 15.9493 154.126 15.3187 153.569 14.556C153.026 13.7787 152.593 12.906 152.271 11.938C151.948 10.97 151.713 9.95067 151.567 8.88C151.435 7.80933 151.369 6.724 151.369 5.624V2.346ZM161.753 0.563999H164.547V20.936H161.753V0.563999ZM157.617 0.894H160.345V20.034H157.617V0.894ZM171.563 10.926H174.489V16.624H171.563V10.926ZM178.955 10.926H181.881V16.624H178.955V10.926ZM167.515 16.206H185.973V18.582H167.515V16.206ZM176.711 1.576C178.177 1.576 179.483 1.80333 180.627 2.258C181.785 2.71267 182.687 3.35067 183.333 4.172C183.993 4.97867 184.323 5.93933 184.323 7.054C184.323 8.154 183.993 9.11467 183.333 9.936C182.687 10.7427 181.785 11.3733 180.627 11.828C179.483 12.2827 178.177 12.51 176.711 12.51C175.259 12.51 173.953 12.2827 172.795 11.828C171.651 11.3733 170.749 10.7427 170.089 9.936C169.429 9.11467 169.099 8.154 169.099 7.054C169.099 5.93933 169.429 4.97867 170.089 4.172C170.749 3.35067 171.651 2.71267 172.795 2.258C173.953 1.80333 175.259 1.576 176.711 1.576ZM176.711 3.842C175.772 3.842 174.943 3.974 174.225 4.238C173.521 4.48733 172.971 4.84667 172.575 5.316C172.179 5.78533 171.981 6.36467 171.981 7.054C171.981 7.714 172.179 8.286 172.575 8.77C172.971 9.23933 173.521 9.606 174.225 9.87C174.943 10.1193 175.772 10.244 176.711 10.244C177.664 10.244 178.493 10.1193 179.197 9.87C179.915 9.606 180.465 9.23933 180.847 8.77C181.243 8.286 181.441 7.714 181.441 7.054C181.441 6.36467 181.243 5.78533 180.847 5.316C180.465 4.84667 179.915 4.48733 179.197 4.238C178.493 3.974 177.664 3.842 176.711 3.842ZM192.774 3L192.415 14.1016H189.204L188.845 3H192.774ZM190.805 19.2266C190.248 19.2266 189.769 19.0286 189.368 18.6328C188.972 18.237 188.774 17.7578 188.774 17.1953C188.774 16.6432 188.972 16.1719 189.368 15.7812C189.769 15.3854 190.248 15.1875 190.805 15.1875C191.342 15.1875 191.813 15.3854 192.22 15.7812C192.631 16.1719 192.837 16.6432 192.837 17.1953C192.837 17.5703 192.74 17.9115 192.548 18.2188C192.36 18.526 192.113 18.7708 191.805 18.9531C191.503 19.1354 191.17 19.2266 190.805 19.2266Z" fill="#123524"/>
</svg>
