<svg width="25" height="24" viewBox="0 0 25 24" fill="none" xmlns="http://www.w3.org/2000/svg">
<mask id="mask0_900_857" style="mask-type:alpha" maskUnits="userSpaceOnUse" x="2" y="0" width="21" height="24">
<path d="M18.8747 5.99986C18.8747 9.31349 16.1849 11.9997 12.8668 11.9997C9.5487 11.9997 6.85886 9.31349 6.85886 5.99986C6.85886 2.68623 9.5487 0 12.8668 0C16.1849 0 18.8747 2.68623 18.8747 5.99986Z" fill="#006FFD"/>
<path d="M2.85352 20.0001C2.85352 16.6865 5.54336 14.0002 8.86145 14.0002H16.872C20.1901 14.0002 22.88 16.6865 22.88 20.0001V21.0001C22.88 22.6569 21.535 24 19.876 24H5.85748C4.19844 24 2.85352 22.6569 2.85352 21.0001V20.0001Z" fill="#006FFD"/>
</mask>
<g mask="url(#mask0_900_857)">
<rect x="0.851074" y="-0.000976562" width="24.0317" height="23.9994" fill="#3E7B27"/>
</g>
</svg>
