<svg width="211" height="212" viewBox="0 0 211 212" fill="none" xmlns="http://www.w3.org/2000/svg">
<g clip-path="url(#clip0_264_1686)">
<path d="M53.2254 203.437C52.9926 203.448 52.7621 203.387 52.5652 203.263C52.3683 203.138 52.2144 202.957 52.1245 202.742C52.0346 202.528 52.013 202.291 52.0625 202.064C52.1121 201.837 52.2305 201.63 52.4016 201.472C52.4303 201.359 52.4508 201.277 52.4795 201.164C52.2567 200.599 51.8699 200.114 51.3688 199.77C50.8676 199.426 50.275 199.239 49.6667 199.234C49.0584 199.228 48.4623 199.404 47.9548 199.738C47.4472 200.072 47.0513 200.55 46.8179 201.11C45.4707 204.255 43.7272 207.511 44.5943 210.975C38.8668 198.869 40.8146 183.81 49.279 173.457C51.6186 172.171 53.5149 169.888 54.0086 167.236C52.8507 167.627 51.407 166.688 52.2776 165.472C52.655 165.007 53.036 164.545 53.4134 164.08C49.0149 159.409 43.7741 166.751 48.6156 173.057C47.0318 175.037 45.6599 177.177 44.5224 179.442C44.7851 177.037 44.4715 174.604 43.6075 172.344C42.7319 170.237 41.0906 168.463 39.6453 166.641C37.8879 164.422 34.2711 165.446 34.0346 168.262C35.6564 168.794 35.8671 171.13 34.012 171.45C34.4979 176.689 37.9297 181.503 42.6564 183.801C40.9109 188.685 40.2293 193.885 40.657 199.053C39.8227 193.013 33.3221 191.547 28.7785 189.147C28.4894 188.962 28.1525 188.865 27.8089 188.868C27.4654 188.87 27.1301 188.973 26.8439 189.162C26.5577 189.352 26.3331 189.62 26.1973 189.935C26.0615 190.25 26.0205 190.597 26.0793 190.935C26.7064 191.189 27.3067 191.505 27.8712 191.878C28.1357 192.055 28.3387 192.31 28.4525 192.607C28.5662 192.903 28.585 193.228 28.5064 193.536C28.4278 193.844 28.2556 194.121 28.0134 194.327C27.7711 194.534 27.4708 194.661 27.1534 194.69C29.4437 200.344 35.3649 204.14 41.4464 204.118C42.0309 206.651 42.8776 209.117 43.9731 211.475H52.9993C53.0316 211.375 53.0607 211.271 53.0899 211.171C52.2544 211.224 51.4156 211.174 50.5923 211.023C52.8027 208.413 54.5122 207.081 53.2257 203.437L53.2254 203.437Z" fill="#F2F2F2"/>
<path d="M133.696 203.437C133.929 203.448 134.159 203.387 134.356 203.263C134.553 203.138 134.707 202.957 134.797 202.742C134.887 202.528 134.908 202.291 134.859 202.064C134.809 201.837 134.691 201.63 134.52 201.472C134.491 201.359 134.47 201.277 134.442 201.164C134.665 200.599 135.051 200.114 135.552 199.77C136.054 199.426 136.646 199.239 137.255 199.234C137.863 199.228 138.459 199.404 138.966 199.738C139.474 200.072 139.87 200.55 140.103 201.11C141.451 204.255 143.194 207.511 142.327 210.975C148.054 198.869 146.107 183.81 137.642 173.457C135.303 172.171 133.406 169.888 132.913 167.236C134.071 167.627 135.514 166.688 134.644 165.472C134.266 165.007 133.885 164.545 133.508 164.08C137.906 159.409 143.147 166.751 138.306 173.057C139.889 175.037 141.261 177.177 142.399 179.442C142.136 177.037 142.45 174.604 143.314 172.344C144.189 170.237 145.831 168.463 147.276 166.641C149.033 164.422 152.65 165.446 152.887 168.262C151.265 168.794 151.054 171.13 152.909 171.45C152.423 176.689 148.992 181.503 144.265 183.801C146.01 188.685 146.692 193.885 146.264 199.053C147.099 193.013 153.599 191.547 158.143 189.147C158.432 188.962 158.769 188.865 159.112 188.868C159.456 188.87 159.791 188.973 160.077 189.162C160.363 189.352 160.588 189.62 160.724 189.935C160.86 190.25 160.901 190.597 160.842 190.935C160.215 191.189 159.615 191.505 159.05 191.878C158.786 192.055 158.582 192.31 158.469 192.607C158.355 192.903 158.336 193.228 158.415 193.536C158.493 193.844 158.666 194.121 158.908 194.327C159.15 194.534 159.45 194.661 159.768 194.69C157.478 200.344 151.556 204.14 145.475 204.118C144.89 206.651 144.044 209.117 142.948 211.475H133.922C133.89 211.375 133.86 211.271 133.831 211.171C134.667 211.224 135.506 211.174 136.329 211.023C134.119 208.413 132.409 207.081 133.696 203.437Z" fill="#F2F2F2"/>
<path d="M137.042 204.774L133.155 205.656L127.894 191.123L133.631 189.821L137.042 204.774Z" fill="#FFB6B6"/>
<path d="M138.102 208.787L126.148 211.5L126.114 211.349C125.833 210.118 126.054 208.827 126.728 207.759C127.402 206.69 128.474 205.933 129.708 205.653L131.515 203.505L135.965 204.233L137.009 203.996L138.102 208.787Z" fill="#2F2E41"/>
<path d="M199.748 133.933L201.885 137.289L189.922 147.107L186.768 142.153L199.748 133.933Z" fill="#FFB6B6"/>
<path d="M203.183 131.591L209.755 141.912L209.624 141.995C208.556 142.671 207.262 142.897 206.027 142.622C204.792 142.347 203.717 141.594 203.038 140.529L200.404 139.552L199.598 135.126L199.024 134.225L203.183 131.591Z" fill="#2F2E41"/>
<path d="M75.8399 98.0502L74.8799 92.5003L89.476 85.9269L92.6282 80.361C92.5264 79.8726 92.562 79.3656 92.7309 78.896C92.8999 78.4265 93.1957 78.0127 93.5857 77.7003C93.9757 77.3879 94.4447 77.1891 94.9408 77.1259C95.437 77.0626 95.941 77.1373 96.3973 77.3418C96.8535 77.5463 97.2442 77.8726 97.5262 78.2846C97.8081 78.6967 97.9704 79.1784 97.9951 79.6767C98.0198 80.1749 97.9059 80.6703 97.666 81.108C97.4262 81.5458 97.0696 81.9089 96.6358 82.1573L91.4505 90.1525L75.8399 98.0502Z" fill="#A0616A"/>
<path d="M71.4028 93.5132L77.9759 90.1646L79.7159 96.6805L75.1502 100.056L71.4028 93.5132Z" fill="#3E7B27"/>
<path d="M56.6533 204.269L60.6275 204.269L62.5182 188.98L56.6523 188.981L56.6533 204.269Z" fill="#A0616A"/>
<path d="M61.9502 204.626V201.939L60.9054 202.003L56.6522 202.254L55.6678 202.314L54.9153 211.314L54.875 211.796H57.697L57.7877 211.317L58.1976 209.139L59.2558 211.317L59.4876 211.796H66.9693C67.4146 211.793 67.8407 211.616 68.1552 211.301C68.4697 210.987 68.6472 210.562 68.6491 210.118C68.9649 208.647 62.743 205.467 61.9502 204.626Z" fill="#2F2E41"/>
<path d="M9.47627 143.595L8.5498 147.45L23.0163 152.848L24.3835 147.159L9.47627 143.595Z" fill="#A0616A"/>
<path d="M8.20811 148.649L10.8282 149.276L11.0097 148.247L11.7564 144.064L11.9271 143.095L3.32755 140.267L2.8665 140.115L2.20852 142.852L2.65454 143.052L4.68249 143.957L2.31223 144.476L1.79101 144.589L0.0465788 151.845C-0.0544862 152.277 0.0195743 152.732 0.252693 153.11C0.485811 153.489 0.859157 153.76 1.29165 153.865C2.65222 154.515 7.20324 149.222 8.20811 148.649Z" fill="#2F2E41"/>
<path d="M62.7987 105.322L57.683 102.937L47.4814 115.25L41.2675 116.817C40.8219 116.59 40.3221 116.491 39.8234 116.53C39.3248 116.569 38.8466 116.745 38.4417 117.038C38.0369 117.331 37.7211 117.73 37.5293 118.19C37.3374 118.651 37.277 119.156 37.3547 119.648C37.4324 120.141 37.6451 120.603 37.9695 120.983C38.2938 121.363 38.7171 121.646 39.1925 121.801C39.668 121.955 40.1771 121.976 40.6637 121.861C41.1503 121.745 41.5954 121.498 41.9499 121.146L51.0491 118.262L62.7987 105.322Z" fill="#A0616A"/>
<path d="M135.324 59.7422C134.24 59.7422 133.18 59.4216 132.278 58.8207C131.376 58.2199 130.674 57.3659 130.259 56.3668C129.844 55.3677 129.735 54.2683 129.947 53.2076C130.158 52.1469 130.68 51.1726 131.447 50.4079C132.214 49.6432 133.191 49.1224 134.254 48.9115C135.318 48.7005 136.42 48.8088 137.422 49.2226C138.424 49.6365 139.28 50.3373 139.883 51.2365C140.485 52.1357 140.807 53.1929 140.807 54.2743C140.805 55.724 140.227 57.1139 139.199 58.1389C138.171 59.164 136.777 59.7406 135.324 59.7422ZM135.324 49.4339C134.364 49.4339 133.426 49.7178 132.627 50.2497C131.829 50.7815 131.207 51.5375 130.84 52.422C130.473 53.3064 130.376 54.2797 130.564 55.2186C130.751 56.1576 131.213 57.0201 131.892 57.697C132.571 58.374 133.436 58.835 134.377 59.0217C135.319 59.2085 136.294 59.1126 137.181 58.7463C138.068 58.3799 138.826 57.7595 139.359 56.9635C139.893 56.1675 140.177 55.2317 140.177 54.2743C140.176 52.991 139.664 51.7607 138.754 50.8532C137.844 49.9458 136.611 49.4354 135.324 49.4339Z" fill="#E6E6E6"/>
<path d="M134.937 56.3342C134.926 56.3342 134.915 56.3339 134.904 56.3333C134.807 56.3286 134.712 56.303 134.625 56.2582C134.539 56.2134 134.463 56.1505 134.403 56.0737L133.54 54.9664C133.485 54.8965 133.445 54.8165 133.421 54.7311C133.398 54.6458 133.391 54.5566 133.402 54.4687C133.413 54.3808 133.441 54.2959 133.485 54.2189C133.529 54.1419 133.588 54.0743 133.658 54.02L133.689 53.9958C133.759 53.9414 133.839 53.9013 133.925 53.8778C134.011 53.8543 134.1 53.8478 134.188 53.8588C134.276 53.8698 134.361 53.898 134.439 53.9418C134.516 53.9856 134.584 54.0442 134.638 54.1141C134.682 54.17 134.737 54.2158 134.8 54.2484C134.863 54.281 134.932 54.2997 135.003 54.3032C135.074 54.3066 135.145 54.2947 135.211 54.2684C135.277 54.242 135.336 54.2018 135.385 54.1504L137.139 52.3041C137.262 52.1744 137.432 52.0989 137.611 52.094C137.79 52.0891 137.964 52.1554 138.095 52.2782L138.123 52.3055C138.188 52.3664 138.24 52.4394 138.276 52.5202C138.312 52.6011 138.332 52.6883 138.334 52.7768C138.337 52.8654 138.322 52.9535 138.29 53.0362C138.258 53.1189 138.21 53.1946 138.149 53.2589L135.428 56.1236C135.365 56.1901 135.289 56.2431 135.204 56.2793C135.12 56.3156 135.029 56.3342 134.937 56.3342Z" fill="#E6E6E6"/>
<path d="M107.954 125.943C106.87 125.943 105.81 125.622 104.908 125.021C104.007 124.421 103.304 123.567 102.889 122.567C102.474 121.568 102.365 120.469 102.577 119.408C102.789 118.348 103.311 117.373 104.078 116.609C104.844 115.844 105.821 115.323 106.885 115.112C107.948 114.901 109.051 115.009 110.052 115.423C111.054 115.837 111.91 116.538 112.513 117.437C113.115 118.336 113.437 119.394 113.437 120.475C113.435 121.925 112.857 123.315 111.829 124.34C110.801 125.365 109.408 125.941 107.954 125.943ZM107.954 115.635C106.994 115.635 106.056 115.918 105.258 116.45C104.46 116.982 103.838 117.738 103.47 118.623C103.103 119.507 103.007 120.48 103.194 121.419C103.381 122.358 103.844 123.221 104.522 123.898C105.201 124.575 106.066 125.036 107.007 125.222C107.949 125.409 108.925 125.313 109.812 124.947C110.698 124.581 111.456 123.96 111.99 123.164C112.523 122.368 112.808 121.432 112.808 120.475C112.806 119.192 112.294 117.961 111.385 117.054C110.475 116.146 109.241 115.636 107.954 115.635Z" fill="#E6E6E6"/>
<path d="M107.568 122.535C107.557 122.535 107.546 122.535 107.535 122.534C107.437 122.529 107.342 122.504 107.256 122.459C107.169 122.414 107.093 122.351 107.034 122.274L106.17 121.167C106.115 121.097 106.075 121.017 106.052 120.932C106.028 120.846 106.022 120.757 106.033 120.669C106.044 120.581 106.072 120.497 106.116 120.42C106.16 120.343 106.218 120.275 106.288 120.221L106.319 120.197C106.39 120.142 106.47 120.102 106.555 120.078C106.641 120.055 106.73 120.049 106.819 120.06C106.907 120.07 106.992 120.099 107.069 120.143C107.146 120.186 107.214 120.245 107.269 120.315C107.312 120.371 107.367 120.416 107.43 120.449C107.493 120.482 107.563 120.5 107.634 120.504C107.705 120.507 107.775 120.495 107.841 120.469C107.907 120.443 107.967 120.402 108.015 120.351L109.769 118.505C109.892 118.375 110.062 118.3 110.242 118.295C110.421 118.29 110.595 118.356 110.725 118.479L110.754 118.506C110.818 118.567 110.87 118.64 110.906 118.721C110.942 118.802 110.962 118.889 110.965 118.978C110.967 119.066 110.952 119.154 110.92 119.237C110.888 119.32 110.841 119.395 110.78 119.46L108.058 122.324C107.995 122.391 107.919 122.444 107.835 122.48C107.75 122.516 107.659 122.535 107.568 122.535Z" fill="#E6E6E6"/>
<path d="M47.8679 52.2122C46.7835 52.2122 45.7235 51.8915 44.8219 51.2907C43.9203 50.6899 43.2176 49.8359 42.8026 48.8368C42.3876 47.8376 42.2791 46.7382 42.4906 45.6776C42.7021 44.6169 43.2243 43.6426 43.9911 42.8779C44.7578 42.1132 45.7347 41.5924 46.7983 41.3814C47.8618 41.1705 48.9641 41.2787 49.966 41.6926C50.9678 42.1064 51.824 42.8073 52.4265 43.7065C53.0289 44.6057 53.3505 45.6628 53.3505 46.7443C53.3488 48.194 52.7707 49.5838 51.7429 50.6089C50.715 51.634 49.3214 52.2106 47.8679 52.2122ZM47.8679 41.9039C46.9079 41.9039 45.9696 42.1878 45.1714 42.7196C44.3733 43.2515 43.7512 44.0075 43.3839 44.8919C43.0165 45.7764 42.9204 46.7497 43.1077 47.6886C43.295 48.6276 43.7572 49.49 44.436 50.167C45.1147 50.8439 45.9795 51.3049 46.921 51.4917C47.8625 51.6785 48.8383 51.5826 49.7252 51.2163C50.612 50.8499 51.37 50.2295 51.9033 49.4335C52.4366 48.6375 52.7213 47.7016 52.7213 46.7443C52.7198 45.461 52.208 44.2306 51.2981 43.3232C50.3883 42.4158 49.1546 41.9053 47.8679 41.9039Z" fill="#E6E6E6"/>
<path d="M47.4807 48.8042C47.4697 48.8042 47.4586 48.8038 47.4476 48.8033C47.3503 48.7986 47.2551 48.773 47.1686 48.7282C47.0822 48.6834 47.0064 48.6204 46.9466 48.5437L46.083 47.4363C46.0284 47.3664 45.9882 47.2865 45.9647 47.2011C45.9411 47.1157 45.9346 47.0265 45.9456 46.9386C45.9566 46.8508 45.9849 46.7659 46.0288 46.6889C46.0727 46.6119 46.1314 46.5443 46.2015 46.4899L46.2326 46.4658C46.3026 46.4114 46.3828 46.3713 46.4684 46.3478C46.5541 46.3242 46.6435 46.3178 46.7317 46.3288C46.8198 46.3398 46.905 46.368 46.9822 46.4118C47.0594 46.4556 47.1272 46.5141 47.1817 46.5841C47.2253 46.64 47.2805 46.6858 47.3435 46.7184C47.4065 46.751 47.4759 46.7697 47.5468 46.7731C47.6177 46.7766 47.6885 46.7647 47.7544 46.7383C47.8203 46.712 47.8797 46.6717 47.9285 46.6204L49.6821 44.774C49.8056 44.6444 49.9755 44.5688 50.1547 44.564C50.334 44.5591 50.5078 44.6253 50.6381 44.7481L50.6669 44.7755C50.7314 44.8364 50.7832 44.9093 50.8194 44.9902C50.8556 45.0711 50.8754 45.1583 50.8778 45.2468C50.8802 45.3353 50.8651 45.4235 50.8333 45.5062C50.8016 45.5889 50.7538 45.6646 50.6927 45.7288L47.9713 48.5936C47.9082 48.6601 47.8321 48.7131 47.7478 48.7493C47.6634 48.7855 47.5725 48.8042 47.4807 48.8042Z" fill="#E6E6E6"/>
<path d="M91.7613 146.273C79.0478 146.273 64.4368 132.203 51.5097 138.888C12.3699 159.129 17.7577 125.259 6.51318 112.662L6.88234 111.924C19.2894 123.019 34.78 132.046 51.6797 138.029C66.9517 143.436 82.3382 145.942 96.1702 145.281L96.1941 146.168C94.7334 146.239 93.2558 146.274 91.7613 146.273Z" fill="#F2F2F2"/>
<path d="M74.3215 51.1419C75.7892 51.1419 76.979 49.5507 76.979 47.5879C76.979 45.6251 75.7892 44.0339 74.3215 44.0339C72.8538 44.0339 71.6641 45.6251 71.6641 47.5879C71.6641 49.5507 72.8538 51.1419 74.3215 51.1419Z" fill="#E6E6E6"/>
<path d="M105.015 106.584C103.8 107.392 102.557 105.47 103.795 104.699C105.01 103.891 106.254 105.813 105.015 106.584Z" fill="#E6E6E6"/>
<path d="M98.022 41.8946C99.9332 41.8946 101.483 40.3495 101.483 38.4434C101.483 36.5374 99.9332 34.9922 98.022 34.9922C96.1108 34.9922 94.5615 36.5374 94.5615 38.4434C94.5615 40.3495 96.1108 41.8946 98.022 41.8946Z" fill="#FF6584"/>
<path opacity="0.3" d="M110.126 57.356L129.817 0L108.195 56.6694C108.088 56.8039 108.015 56.9619 107.981 57.1303C107.948 57.2986 107.955 57.4726 108.002 57.6376C108.05 57.8026 108.136 57.954 108.254 58.0792C108.371 58.2043 108.517 58.2997 108.68 58.3573C108.842 58.415 109.015 58.4333 109.186 58.4106C109.356 58.388 109.519 58.3251 109.661 58.2272C109.802 58.1293 109.918 57.9992 109.999 57.8477C110.08 57.6962 110.123 57.5276 110.126 57.356Z" fill="#F0F0F0"/>
<path d="M90.2497 127.232C92.1091 127.232 93.6165 125.729 93.6165 123.874C93.6165 122.02 92.1091 120.517 90.2497 120.517C88.3902 120.517 86.8828 122.02 86.8828 123.874C86.8828 125.729 88.3902 127.232 90.2497 127.232Z" fill="#F2F2F2"/>
<path d="M57.6412 125.155C57.6412 125.155 49.2478 130.606 51.4672 134.228C51.5437 134.353 41.4412 147.66 41.4412 147.66L22.3702 146.453L21.6982 152.819L38.6767 157.723C38.6767 157.723 42.8303 160.766 46.039 157.413C49.2478 154.06 59.9358 143.792 59.9358 143.792L60.4513 164.523L55.086 193.251L63.0971 192.744L70.8943 163.923L73.7724 131.276L57.6412 125.155Z" fill="#2F2E41"/>
<path d="M63.6199 92.4411L60.0903 95.1088L56.0673 103.672L59.9358 108.912C59.9358 108.912 63.1898 114.536 57.9812 119.983C52.7726 125.43 48.7729 131.248 52.9419 131.04C57.1109 130.832 73.9959 139.397 74.107 132.38C74.2181 125.363 74.4429 119.983 74.4429 119.983L78.8698 108.785C78.8698 108.785 81.5072 102.105 79.6555 100.105C77.8038 98.1058 75.3245 95.5506 75.3245 95.5506L70.8158 91.054H66.7446L63.6199 92.4411Z" fill="#3E7B27"/>
<path d="M70.2087 75.9878C78.1271 80.4816 71.6265 92.3385 63.5604 88.1163C55.6423 83.6227 62.1429 71.7658 70.2087 75.9878Z" fill="#A0616A"/>
<path d="M74.4428 78.4793C73.888 79.199 72.7288 78.8616 70.4588 79.3751C70.4637 78.6077 70.3749 77.8426 70.1941 77.0967C70.0252 78.0202 69.655 78.8956 69.1098 79.6608C67.1387 79.8789 69.555 85.851 68.5458 90.2419C67.2454 80.9785 64.5103 83.4054 65.8921 85.2428C66.7766 86.4191 66.1869 89.9478 63.5332 88.1835C59.1547 90.2588 52.9185 79.9497 59.8302 75.1148C59.7067 72.5015 62.6223 72.0886 64.4178 72.8921C68.7751 69.6549 73.7532 73.8029 74.4428 78.4793Z" fill="#2F2E41"/>
<path d="M54.1259 71.7199C52.363 82.53 42.9138 69.7318 38.4709 80.37C37.074 84.2225 39.4707 86.9785 40.9868 90.1762C41.3328 92.8042 37.9048 94.1375 37.5458 96.5566C37.4458 102.102 46.4172 101.763 48.9252 98.2641C51.5022 94.6013 48.4249 89.687 49.9738 85.7555C52.1509 80.2971 61.0046 80.2565 61.7759 73.9061C60.2821 71.7846 56.2654 69.3549 54.1259 71.7199Z" fill="#2F2E41"/>
<path d="M61.2674 72.7765C61.2097 72.8007 61.152 72.8249 61.1005 72.8521H61.0974C61.0488 72.8764 61.0003 72.9006 60.9517 72.9278C60.9456 72.9308 60.9426 72.9339 60.9365 72.9369C60.8728 72.8764 60.8091 72.8158 60.7423 72.7553C60.725 72.8539 60.7291 72.955 60.7544 73.0519L60.7635 73.0883C60.8242 73.1518 60.888 73.2124 60.9548 73.276C61.0155 73.2305 61.0731 73.1821 61.1338 73.1367C61.1703 73.1064 61.2067 73.0761 61.2462 73.0459C61.2522 72.9672 61.2613 72.8764 61.2704 72.7764L61.2674 72.7765ZM63.0947 69.4101C61.7409 69.1013 61.3038 70.8662 61.1733 71.7169C60.6816 68.629 58.6357 69.6008 59.3429 71.7078C59.5684 72.3316 59.9231 72.901 60.3841 73.3789C60.4478 73.4515 60.5177 73.5242 60.5905 73.5968C60.5085 74.0207 60.9214 73.9117 61.4799 73.5212C61.8923 73.2286 62.2737 72.8949 62.6182 72.5252C63.7322 71.3597 64.6003 69.8006 63.0947 69.4101ZM63.1372 71.1478C62.7196 71.6849 62.2509 72.1806 61.7379 72.6281C61.577 72.7734 61.4131 72.9127 61.2462 73.0459C61.2431 73.0731 61.2431 73.0973 61.2401 73.1185C61.2284 73.1479 61.2141 73.1763 61.1976 73.2033C61.0276 73.5091 60.8364 73.3426 60.7635 73.0883C60.7575 73.0792 60.7483 73.0701 60.7423 73.061C60.4997 72.8111 60.2887 72.5325 60.1139 72.2315C58.8603 70.064 60.8789 68.5897 60.7787 72.6372C60.7602 72.6743 60.7479 72.7142 60.7423 72.7553C60.725 72.8539 60.7291 72.955 60.7544 73.0519L60.7635 73.0883C60.8242 73.1518 60.888 73.2124 60.9548 73.276C61.0155 73.2305 61.0731 73.1821 61.1338 73.1367C61.1703 73.1064 61.2067 73.0761 61.2462 73.0459C61.2522 72.9672 61.2613 72.8764 61.2704 72.7764V72.7734C61.3494 71.9621 61.5649 70.5029 61.9625 70.1064C62.8367 69.4373 63.9689 70.1609 63.1372 71.1478ZM61.2674 72.7765C61.2097 72.8007 61.152 72.8249 61.1005 72.8521H61.0974C61.0488 72.8764 61.0003 72.9006 60.9517 72.9278C60.9456 72.9308 60.9426 72.9339 60.9365 72.9369C60.8728 72.8764 60.8091 72.8158 60.7423 72.7553C60.725 72.8539 60.7291 72.955 60.7544 73.0519L60.7635 73.0883C60.8242 73.1518 60.888 73.2124 60.9548 73.276C61.0155 73.2305 61.0731 73.1821 61.1338 73.1367C61.1703 73.1064 61.2067 73.0761 61.2462 73.0459C61.2522 72.9672 61.2613 72.8764 61.2704 72.7764L61.2674 72.7765Z" fill="#2F2E41"/>
<path d="M134.455 132.376L131.53 139.982L117.812 166.971L129.866 198.367L136.088 196.729L130.96 166.971L145.671 149.144L163.142 160.961C163.142 160.961 170.891 166.994 173.838 161.275C176.786 155.556 195.86 143.392 195.86 143.392L191.141 138.372L169.176 148.623L154.017 127.342L134.455 132.376Z" fill="#2F2E41"/>
<path d="M149.211 96.4974L144.397 91.3391L136.139 90.2061L126.021 97.2707L126.122 105.09L131.124 123.516C131.124 123.516 129.219 136.755 134.541 136.622C139.862 136.489 142.763 133.843 144.931 134.382C147.098 134.92 156.312 137.213 156.896 134.812C157.48 132.41 160.583 134.13 160.447 131.858C160.311 129.587 152.045 113.213 152.045 113.213L154.1 96.8381L149.211 96.4974Z" fill="#3E7B27"/>
<path d="M179.692 72.7527C179.735 73.1804 179.684 73.6124 179.541 74.0182C179.399 74.424 179.169 74.7937 178.868 75.1013C178.567 75.4089 178.202 75.6469 177.798 75.7985C177.395 75.9501 176.963 76.0116 176.533 75.9788L165.462 96.9769L162.49 92.4264L173.806 72.6088C173.909 71.8923 174.272 71.2384 174.826 70.7711C175.381 70.3038 176.088 70.0554 176.813 70.0732C177.539 70.0909 178.233 70.3735 178.763 70.8673C179.294 71.3611 179.624 72.032 179.692 72.7527Z" fill="#FFB6B6"/>
<path d="M144.841 100.402C144.841 100.402 144.402 104.137 148.618 105.061C152.834 105.986 164.515 99.3296 166.43 98.3129C167.029 97.9945 167.843 96.434 168.678 94.4405C169.053 93.5456 169.432 92.5633 169.798 91.567C170.009 90.9905 171.023 90.8331 171.223 90.2614C171.421 89.6927 170.806 88.7096 170.985 88.1737C171.838 85.6299 172.442 83.6118 172.442 83.6118L169.648 78.3767C165.74 80.4373 163.735 84.9762 162.261 90.2054L144.841 100.402Z" fill="#3E7B27"/>
<path d="M95.601 77.5748C95.6667 77.9998 95.8249 78.4051 96.0647 78.7625C96.3044 79.1198 96.6198 79.4204 96.9886 79.643C97.3574 79.8656 97.7706 80.0049 98.1992 80.051C98.6278 80.0971 99.0613 80.0489 99.4692 79.9098L115.457 97.4766L117.192 92.3291L101.264 75.9664C100.984 75.2984 100.469 74.756 99.8148 74.4419C99.1609 74.1277 98.4142 74.0637 97.7162 74.262C97.0181 74.4603 96.4173 74.907 96.0274 75.5176C95.6376 76.1282 95.4859 76.8601 95.601 77.5748Z" fill="#FFB6B6"/>
<path d="M136.281 95.6455C136.281 95.6455 137.644 99.1521 133.794 101.1C129.944 103.047 116.964 99.5179 114.855 99.0115C114.195 98.8529 113.015 97.5452 111.707 95.8235C111.119 95.0505 110.506 94.1942 109.902 93.3209C109.552 92.8155 108.531 92.9163 108.194 92.4125C107.859 91.9115 108.209 90.8059 107.9 90.3319C106.436 88.0819 105.345 86.2789 105.345 86.2789L106.737 80.5129C111.038 81.5325 114.117 85.4267 116.857 90.1216L136.281 95.6455Z" fill="#3E7B27"/>
<path d="M140.433 88.8938C144.772 88.8938 148.29 85.3854 148.29 81.0576C148.29 76.7298 144.772 73.2214 140.433 73.2214C136.093 73.2214 132.576 76.7298 132.576 81.0576C132.576 85.3854 136.093 88.8938 140.433 88.8938Z" fill="#FFB6B6"/>
<path d="M149.402 76.5708C148.576 75.2956 147.025 74.4457 145.521 74.6845C145.381 73.7275 144.981 72.8272 144.363 72.0815C143.746 71.3358 142.935 70.7734 142.019 70.4554C141.103 70.1375 140.117 70.0762 139.169 70.2783C138.221 70.4804 137.346 70.9381 136.641 71.6015C136.409 71.4386 136.138 71.3382 135.856 71.31C135.574 71.2818 135.289 71.3268 135.029 71.4406C134.512 71.6753 134.061 72.0357 133.72 72.4888C132.857 73.5619 132.302 74.8482 132.114 76.2108C131.926 77.5734 132.112 78.9613 132.653 80.2268C132.469 79.5606 133.138 78.9338 133.815 78.7843C134.491 78.6348 135.201 78.7763 135.886 78.6789C136.766 78.5542 137.556 78.0455 138.436 77.931C139.183 77.8826 139.932 77.9786 140.642 78.2137C141.352 78.4488 142.1 78.549 142.847 78.5091C143.588 78.4213 144.543 81.2223 144.53 83.1952C144.528 83.569 144.605 84.049 144.971 84.1284C145.422 84.2261 145.684 83.605 146.113 83.4358C146.311 83.3793 146.523 83.4015 146.705 83.4979C146.887 83.5943 147.024 83.7573 147.088 83.9526C147.142 84.1511 147.148 84.3597 147.105 84.5609C147.062 84.7621 146.971 84.9501 146.84 85.1094C146.577 85.4251 146.263 85.6962 145.913 85.9122L146.089 86.0589C146.257 86.2358 146.482 86.349 146.724 86.379C146.966 86.409 147.212 86.3541 147.418 86.2235C147.823 85.9496 148.152 85.5767 148.372 85.1404C149.2 83.8621 149.793 82.4461 150.121 80.9595C150.398 79.4664 150.229 77.8461 149.402 76.5708Z" fill="#2F2E41"/>
<path d="M207.53 107.477C197.395 115.132 177.23 112.714 170.972 125.827C152.025 165.531 135.815 135.286 119.226 132.015L119.073 131.205C135.68 132.578 153.494 130.447 170.587 125.04C186.035 120.155 199.817 112.887 210.443 104.031L211 104.724C209.878 105.66 208.721 106.577 207.53 107.477Z" fill="#F2F2F2"/>
<path d="M164.681 211.465C164.439 212.178 26.6252 212.178 26.3647 211.467C26.6058 210.752 164.42 210.752 164.681 211.465Z" fill="#CCCCCC"/>
</g>
<defs>
<clipPath id="clip0_264_1686">
<rect width="211" height="212" fill="white"/>
</clipPath>
</defs>
</svg>
