<svg width="281" height="89" viewBox="0 0 281 89" fill="none" xmlns="http://www.w3.org/2000/svg">
<rect width="281" height="68" rx="16" fill="#FDF2D4"/>
<path d="M94.9129 19.422H96.0889V26.954H94.9129V19.422ZM95.7529 22.712H97.9369V23.678H95.7529V22.712ZM92.0429 27.22C92.8922 27.22 93.6249 27.318 94.2409 27.514C94.8662 27.7007 95.3469 27.976 95.6829 28.34C96.0282 28.6947 96.2009 29.1287 96.2009 29.642C96.2009 30.146 96.0282 30.58 95.6829 30.944C95.3469 31.308 94.8662 31.5833 94.2409 31.77C93.6249 31.966 92.8922 32.064 92.0429 32.064C91.1842 32.064 90.4422 31.966 89.8169 31.77C89.1915 31.5833 88.7109 31.308 88.3749 30.944C88.0389 30.58 87.8709 30.146 87.8709 29.642C87.8709 29.1287 88.0389 28.6947 88.3749 28.34C88.7109 27.976 89.1915 27.7007 89.8169 27.514C90.4422 27.318 91.1842 27.22 92.0429 27.22ZM92.0429 28.158C91.4175 28.158 90.8762 28.2187 90.4189 28.34C89.9709 28.452 89.6209 28.62 89.3689 28.844C89.1262 29.0587 89.0049 29.3247 89.0049 29.642C89.0049 29.95 89.1262 30.216 89.3689 30.44C89.6209 30.664 89.9709 30.8367 90.4189 30.958C90.8762 31.07 91.4175 31.126 92.0429 31.126C92.6589 31.126 93.1955 31.07 93.6529 30.958C94.1102 30.8367 94.4602 30.664 94.7029 30.44C94.9455 30.216 95.0669 29.95 95.0669 29.642C95.0669 29.3247 94.9455 29.0587 94.7029 28.844C94.4602 28.62 94.1102 28.452 93.6529 28.34C93.1955 28.2187 92.6589 28.158 92.0429 28.158ZM86.8069 24.994H87.7869C88.6735 24.994 89.4435 24.9847 90.0969 24.966C90.7502 24.9473 91.3522 24.9053 91.9029 24.84C92.4535 24.7747 93.0135 24.686 93.5829 24.574L93.7089 25.526C93.1302 25.638 92.5562 25.7267 91.9869 25.792C91.4269 25.848 90.8109 25.89 90.1389 25.918C89.4669 25.9367 88.6829 25.946 87.7869 25.946H86.8069V24.994ZM86.8069 20.388H92.3929V21.34H87.9549V25.624H86.8069V20.388ZM108.338 19.436H109.5V28.718H108.338V19.436ZM101.366 30.86H109.892V31.812H101.366V30.86ZM101.366 27.864H102.528V31.308H101.366V27.864ZM102.416 20.136H103.382V21.41C103.382 22.2407 103.237 23.02 102.948 23.748C102.658 24.4667 102.248 25.1013 101.716 25.652C101.193 26.1933 100.577 26.6087 99.8678 26.898L99.2518 25.974C99.8958 25.722 100.451 25.3627 100.918 24.896C101.394 24.4293 101.762 23.8973 102.024 23.3C102.285 22.6933 102.416 22.0633 102.416 21.41V20.136ZM102.626 20.136H103.592V21.41C103.592 21.886 103.666 22.348 103.816 22.796C103.965 23.2347 104.18 23.6453 104.46 24.028C104.74 24.4107 105.071 24.7513 105.454 25.05C105.846 25.3393 106.275 25.568 106.742 25.736L106.14 26.66C105.44 26.3893 104.824 25.9973 104.292 25.484C103.769 24.9613 103.358 24.3547 103.06 23.664C102.77 22.964 102.626 22.2127 102.626 21.41V20.136ZM116.107 20.346C116.769 20.346 117.353 20.472 117.857 20.724C118.37 20.9667 118.771 21.312 119.061 21.76C119.35 22.208 119.495 22.7307 119.495 23.328C119.495 23.916 119.35 24.4387 119.061 24.896C118.771 25.344 118.37 25.694 117.857 25.946C117.353 26.1887 116.769 26.31 116.107 26.31C115.453 26.31 114.87 26.1887 114.357 25.946C113.843 25.694 113.437 25.344 113.139 24.896C112.849 24.4387 112.705 23.916 112.705 23.328C112.705 22.7307 112.849 22.208 113.139 21.76C113.437 21.312 113.843 20.9667 114.357 20.724C114.87 20.472 115.453 20.346 116.107 20.346ZM116.107 21.354C115.677 21.354 115.29 21.438 114.945 21.606C114.609 21.7647 114.343 21.9933 114.147 22.292C113.951 22.5907 113.853 22.936 113.853 23.328C113.853 23.72 113.951 24.0653 114.147 24.364C114.343 24.6627 114.609 24.896 114.945 25.064C115.29 25.2227 115.677 25.302 116.107 25.302C116.545 25.302 116.933 25.2227 117.269 25.064C117.605 24.896 117.871 24.6627 118.067 24.364C118.263 24.0653 118.361 23.72 118.361 23.328C118.361 22.936 118.263 22.5907 118.067 22.292C117.871 21.9933 117.605 21.7647 117.269 21.606C116.933 21.438 116.545 21.354 116.107 21.354ZM121.161 19.422H122.323V32.106H121.161V19.422ZM112.229 29.334L112.075 28.354C112.849 28.354 113.699 28.3493 114.623 28.34C115.547 28.3213 116.499 28.284 117.479 28.228C118.468 28.1627 119.42 28.06 120.335 27.92L120.433 28.774C119.481 28.9513 118.515 29.082 117.535 29.166C116.564 29.2407 115.626 29.2873 114.721 29.306C113.815 29.3247 112.985 29.334 112.229 29.334ZM132.419 21.634H133.371V21.816C133.371 22.432 133.226 23.0013 132.937 23.524C132.648 24.0373 132.242 24.476 131.719 24.84C131.196 25.204 130.58 25.4747 129.871 25.652L129.381 24.742C129.988 24.5927 130.52 24.378 130.977 24.098C131.434 23.8087 131.789 23.468 132.041 23.076C132.293 22.684 132.419 22.264 132.419 21.816V21.634ZM132.629 21.634H133.581V21.816C133.581 22.236 133.707 22.6327 133.959 23.006C134.211 23.37 134.561 23.6873 135.009 23.958C135.466 24.2287 135.994 24.434 136.591 24.574L136.115 25.484C135.415 25.3067 134.804 25.0453 134.281 24.7C133.758 24.3453 133.352 23.9253 133.063 23.44C132.774 22.9453 132.629 22.404 132.629 21.816V21.634ZM129.647 20.864H136.353V21.774H129.647V20.864ZM132.419 19.45H133.581V21.48H132.419V19.45ZM132.447 26.674H133.609V31.714H132.447V26.674ZM138.047 19.436H139.195V32.092H138.047V19.436ZM128.947 27.514L128.793 26.534C129.596 26.534 130.468 26.5293 131.411 26.52C132.354 26.5013 133.315 26.464 134.295 26.408C135.275 26.352 136.222 26.2633 137.137 26.142L137.221 26.996C136.278 27.1547 135.317 27.2713 134.337 27.346C133.366 27.4207 132.419 27.4673 131.495 27.486C130.58 27.5047 129.731 27.514 128.947 27.514ZM151.178 21.606H153.362V22.572H151.178V21.606ZM151.178 24.308H153.362V25.274H151.178V24.308ZM150.366 19.422H151.528V27.584H150.366V19.422ZM147.552 27.682C148.401 27.682 149.134 27.7707 149.75 27.948C150.366 28.116 150.837 28.3633 151.164 28.69C151.5 29.0167 151.668 29.4133 151.668 29.88C151.668 30.3373 151.5 30.7293 151.164 31.056C150.837 31.3827 150.366 31.63 149.75 31.798C149.134 31.9753 148.401 32.064 147.552 32.064C146.693 32.064 145.956 31.9753 145.34 31.798C144.733 31.63 144.262 31.3827 143.926 31.056C143.59 30.7293 143.422 30.3373 143.422 29.88C143.422 29.4133 143.59 29.0167 143.926 28.69C144.262 28.3633 144.733 28.116 145.34 27.948C145.956 27.7707 146.693 27.682 147.552 27.682ZM147.552 28.592C146.619 28.592 145.886 28.704 145.354 28.928C144.831 29.152 144.57 29.4693 144.57 29.88C144.57 30.2907 144.831 30.608 145.354 30.832C145.886 31.056 146.619 31.168 147.552 31.168C148.476 31.168 149.199 31.056 149.722 30.832C150.254 30.608 150.52 30.2907 150.52 29.88C150.52 29.4693 150.254 29.152 149.722 28.928C149.199 28.704 148.476 28.592 147.552 28.592ZM141.728 20.85H149.204V21.774H141.728V20.85ZM145.466 22.418C146.073 22.418 146.6 22.5113 147.048 22.698C147.505 22.8847 147.86 23.146 148.112 23.482C148.364 23.8087 148.49 24.2007 148.49 24.658C148.49 25.106 148.364 25.498 148.112 25.834C147.86 26.17 147.505 26.4313 147.048 26.618C146.6 26.7953 146.073 26.884 145.466 26.884C144.859 26.884 144.327 26.7953 143.87 26.618C143.422 26.4313 143.067 26.17 142.806 25.834C142.554 25.498 142.428 25.106 142.428 24.658C142.428 24.2007 142.554 23.8087 142.806 23.482C143.067 23.146 143.422 22.8847 143.87 22.698C144.327 22.5113 144.859 22.418 145.466 22.418ZM145.466 23.3C144.887 23.3 144.421 23.426 144.066 23.678C143.721 23.9207 143.548 24.2473 143.548 24.658C143.548 25.0687 143.721 25.3953 144.066 25.638C144.421 25.8807 144.887 26.002 145.466 26.002C146.035 26.002 146.497 25.8807 146.852 25.638C147.207 25.3953 147.384 25.0687 147.384 24.658C147.384 24.2473 147.207 23.9207 146.852 23.678C146.497 23.426 146.035 23.3 145.466 23.3ZM144.892 19.324H146.054V21.368H144.892V19.324ZM159.717 24.35H162.097V25.302H159.717V24.35ZM164.225 19.422H165.345V32.092H164.225V19.422ZM161.705 19.688H162.811V31.448H161.705V19.688ZM157.421 20.486C157.972 20.486 158.448 20.6633 158.849 21.018C159.26 21.3727 159.577 21.8813 159.801 22.544C160.025 23.2067 160.137 23.986 160.137 24.882C160.137 25.7873 160.025 26.5713 159.801 27.234C159.577 27.8967 159.26 28.41 158.849 28.774C158.448 29.1287 157.972 29.306 157.421 29.306C156.889 29.306 156.418 29.1287 156.007 28.774C155.606 28.41 155.293 27.8967 155.069 27.234C154.845 26.5713 154.733 25.7873 154.733 24.882C154.733 23.986 154.845 23.2067 155.069 22.544C155.293 21.8813 155.606 21.3727 156.007 21.018C156.418 20.6633 156.889 20.486 157.421 20.486ZM157.421 21.564C157.094 21.564 156.81 21.6993 156.567 21.97C156.324 22.2407 156.138 22.6233 156.007 23.118C155.876 23.6127 155.811 24.2007 155.811 24.882C155.811 25.5633 155.876 26.156 156.007 26.66C156.138 27.1547 156.324 27.5373 156.567 27.808C156.81 28.0787 157.094 28.214 157.421 28.214C157.757 28.214 158.046 28.0787 158.289 27.808C158.541 27.5373 158.732 27.1547 158.863 26.66C158.994 26.156 159.059 25.5633 159.059 24.882C159.059 24.2007 158.994 23.6127 158.863 23.118C158.732 22.6233 158.541 22.2407 158.289 21.97C158.046 21.6993 157.757 21.564 157.421 21.564ZM171.913 20.29H177.737V25.708H171.913V20.29ZM176.603 21.228H173.047V24.77H176.603V21.228ZM180.061 19.422H181.223V26.646H180.061V19.422ZM180.901 22.46H183.085V23.426H180.901V22.46ZM176.687 27.822H177.667V28.158C177.667 28.6527 177.546 29.1147 177.303 29.544C177.07 29.9733 176.739 30.356 176.309 30.692C175.889 31.028 175.404 31.308 174.853 31.532C174.303 31.7653 173.715 31.9333 173.089 32.036L172.655 31.14C173.197 31.0653 173.71 30.9347 174.195 30.748C174.681 30.5613 175.11 30.3373 175.483 30.076C175.857 29.8053 176.151 29.5067 176.365 29.18C176.58 28.8533 176.687 28.5127 176.687 28.158V27.822ZM176.897 27.822H177.891V28.158C177.891 28.5127 177.999 28.8487 178.213 29.166C178.437 29.4833 178.736 29.7773 179.109 30.048C179.483 30.3187 179.907 30.552 180.383 30.748C180.869 30.9347 181.382 31.07 181.923 31.154L181.489 32.05C180.864 31.938 180.276 31.7653 179.725 31.532C179.175 31.308 178.685 31.028 178.255 30.692C177.835 30.3467 177.504 29.9593 177.261 29.53C177.019 29.1007 176.897 28.6433 176.897 28.158V27.822ZM173.145 27.388H181.433V28.326H173.145V27.388ZM185.814 23.23H194.424V24.168H185.814V23.23ZM184.26 25.862H195.74V26.814H184.26V25.862ZM185.814 19.884H186.962V23.706H185.814V19.884ZM185.73 30.832H194.494V31.784H185.73V30.832ZM185.73 28.088H186.892V31.084H185.73V28.088ZM73.2828 42.25H77.1188V43.202H73.2828V42.25ZM73.2828 46.254H77.1188V47.206H73.2828V46.254ZM70.9588 40.402C71.5748 40.402 72.1208 40.584 72.5968 40.948C73.0728 41.3027 73.4414 41.8113 73.7028 42.474C73.9734 43.1367 74.1088 43.916 74.1088 44.812C74.1088 45.708 73.9734 46.4873 73.7028 47.15C73.4414 47.8127 73.0728 48.326 72.5968 48.69C72.1208 49.054 71.5748 49.236 70.9588 49.236C70.3521 49.236 69.8061 49.054 69.3208 48.69C68.8448 48.326 68.4714 47.8127 68.2008 47.15C67.9394 46.4873 67.8088 45.708 67.8088 44.812C67.8088 43.916 67.9394 43.1367 68.2008 42.474C68.4714 41.8113 68.8448 41.3027 69.3208 40.948C69.8061 40.584 70.3521 40.402 70.9588 40.402ZM70.9588 41.438C70.5574 41.438 70.2028 41.578 69.8948 41.858C69.5868 42.1287 69.3441 42.5207 69.1668 43.034C68.9988 43.538 68.9148 44.1307 68.9148 44.812C68.9148 45.4933 68.9988 46.0907 69.1668 46.604C69.3441 47.108 69.5868 47.5 69.8948 47.78C70.2028 48.06 70.5574 48.2 70.9588 48.2C71.3694 48.2 71.7288 48.06 72.0368 47.78C72.3448 47.5 72.5828 47.108 72.7508 46.604C72.9281 46.0907 73.0168 45.4933 73.0168 44.812C73.0168 44.1307 72.9281 43.538 72.7508 43.034C72.5828 42.5207 72.3448 42.1287 72.0368 41.858C71.7288 41.578 71.3694 41.438 70.9588 41.438ZM76.8528 39.422H78.0008V52.106H76.8528V39.422ZM90.0257 39.422H91.1317V47.43H90.0257V39.422ZM87.9537 42.866H90.3477V43.818H87.9537V42.866ZM87.3097 39.674H88.4017V46.982H87.3097V39.674ZM80.3937 40.934H86.8057V41.858H80.3937V40.934ZM83.6137 42.516C84.1457 42.516 84.6123 42.6047 85.0137 42.782C85.4243 42.9593 85.7417 43.2113 85.9657 43.538C86.199 43.8647 86.3157 44.2473 86.3157 44.686C86.3157 45.1247 86.199 45.5073 85.9657 45.834C85.7417 46.1513 85.4243 46.3987 85.0137 46.576C84.6123 46.7533 84.1457 46.842 83.6137 46.842C83.091 46.842 82.6243 46.7533 82.2137 46.576C81.803 46.3987 81.4857 46.1513 81.2617 45.834C81.0377 45.5073 80.9257 45.1247 80.9257 44.686C80.9257 44.2473 81.0377 43.8647 81.2617 43.538C81.4857 43.2113 81.803 42.9593 82.2137 42.782C82.6243 42.6047 83.091 42.516 83.6137 42.516ZM83.6137 43.384C83.1283 43.384 82.7317 43.5007 82.4237 43.734C82.1157 43.9673 81.9617 44.2847 81.9617 44.686C81.9617 45.078 82.111 45.3953 82.4097 45.638C82.7177 45.8713 83.119 45.988 83.6137 45.988C84.1083 45.988 84.505 45.8713 84.8037 45.638C85.1117 45.3953 85.2657 45.078 85.2657 44.686C85.2657 44.2847 85.1117 43.9673 84.8037 43.734C84.505 43.5007 84.1083 43.384 83.6137 43.384ZM83.0397 39.52H84.1877V41.466H83.0397V39.52ZM86.9737 47.654C88.299 47.654 89.335 47.8453 90.0817 48.228C90.8283 48.6107 91.2017 49.1567 91.2017 49.866C91.2017 50.566 90.8283 51.1073 90.0817 51.49C89.335 51.8727 88.299 52.064 86.9737 52.064C85.6483 52.064 84.6123 51.8727 83.8657 51.49C83.119 51.1073 82.7457 50.566 82.7457 49.866C82.7457 49.1567 83.119 48.6107 83.8657 48.228C84.6123 47.8453 85.6483 47.654 86.9737 47.654ZM86.9737 48.55C86.003 48.55 85.247 48.662 84.7057 48.886C84.1643 49.11 83.8937 49.4367 83.8937 49.866C83.8937 50.286 84.1643 50.608 84.7057 50.832C85.247 51.056 86.003 51.168 86.9737 51.168C87.935 51.168 88.6863 51.056 89.2277 50.832C89.769 50.608 90.0397 50.286 90.0397 49.866C90.0397 49.4367 89.769 49.11 89.2277 48.886C88.6863 48.662 87.935 48.55 86.9737 48.55ZM96.6886 41.242H97.6406V43.286C97.6406 43.958 97.5472 44.6207 97.3606 45.274C97.1739 45.918 96.9126 46.5293 96.5766 47.108C96.2499 47.6773 95.8672 48.1813 95.4286 48.62C94.9899 49.0587 94.5186 49.404 94.0146 49.656L93.3426 48.732C93.7999 48.508 94.2292 48.2047 94.6306 47.822C95.0412 47.4393 95.4006 47.0007 95.7086 46.506C96.0166 46.0113 96.2546 45.4887 96.4226 44.938C96.5999 44.3873 96.6886 43.8367 96.6886 43.286V41.242ZM96.9266 41.242H97.8646V43.286C97.8646 43.818 97.9486 44.35 98.1166 44.882C98.2939 45.4047 98.5366 45.8993 98.8446 46.366C99.1619 46.8233 99.5212 47.2293 99.9226 47.584C100.333 47.9387 100.772 48.2187 101.239 48.424L100.595 49.348C100.081 49.1053 99.6006 48.7787 99.1526 48.368C98.7046 47.9573 98.3126 47.486 97.9766 46.954C97.6499 46.4127 97.3932 45.834 97.2066 45.218C97.0199 44.5927 96.9266 43.9487 96.9266 43.286V41.242ZM93.7486 40.724H100.819V41.69H93.7486V40.724ZM102.541 39.422H103.703V52.092H102.541V39.422ZM106.207 45.302H117.687V46.198H106.207V45.302ZM107.579 47.206H116.259V49.908H108.755V51.392H107.607V49.11H115.111V48.046H107.579V47.206ZM107.607 51.084H116.665V51.924H107.607V51.084ZM107.663 39.8H116.217V42.432H108.839V43.804H107.691V41.648H115.069V40.626H107.663V39.8ZM107.691 43.524H116.441V44.364H107.691V43.524ZM126.202 41.508H127.14V42.054C127.14 42.7727 126.991 43.4353 126.692 44.042C126.403 44.6487 125.992 45.176 125.46 45.624C124.928 46.072 124.307 46.4127 123.598 46.646L123.038 45.722C123.663 45.526 124.214 45.246 124.69 44.882C125.166 44.518 125.535 44.0933 125.796 43.608C126.067 43.1227 126.202 42.6047 126.202 42.054V41.508ZM126.398 41.508H127.35V42.054C127.35 42.558 127.476 43.0387 127.728 43.496C127.989 43.944 128.353 44.3453 128.82 44.7C129.287 45.0453 129.828 45.3113 130.444 45.498L129.912 46.394C129.203 46.1793 128.582 45.862 128.05 45.442C127.527 45.0127 127.121 44.5087 126.832 43.93C126.543 43.3513 126.398 42.726 126.398 42.054V41.508ZM123.388 40.892H130.15V41.83H123.388V40.892ZM126.202 39.366H127.364V41.284H126.202V39.366ZM131.704 39.422H132.866V46.772H131.704V39.422ZM132.544 42.544H134.728V43.51H132.544V42.544ZM128.33 47.822H129.31V48.158C129.31 48.6527 129.189 49.1147 128.946 49.544C128.713 49.9733 128.381 50.356 127.952 50.692C127.532 51.028 127.047 51.308 126.496 51.532C125.945 51.7653 125.357 51.9333 124.732 52.036L124.298 51.14C124.839 51.0653 125.353 50.9347 125.838 50.748C126.323 50.5613 126.753 50.3373 127.126 50.076C127.499 49.8053 127.793 49.5067 128.008 49.18C128.223 48.8533 128.33 48.5127 128.33 48.158V47.822ZM128.54 47.822H129.534V48.158C129.534 48.5127 129.641 48.8487 129.856 49.166C130.08 49.4833 130.379 49.7773 130.752 50.048C131.125 50.3187 131.55 50.552 132.026 50.748C132.511 50.9347 133.025 51.07 133.566 51.154L133.132 52.05C132.507 51.938 131.919 51.7653 131.368 51.532C130.817 51.308 130.327 51.028 129.898 50.692C129.478 50.3467 129.147 49.9593 128.904 49.53C128.661 49.1007 128.54 48.6433 128.54 48.158V47.822ZM124.788 47.458H133.076V48.41H124.788V47.458ZM137.135 40.696H145.283V41.648H137.135V40.696ZM135.917 49.348H147.355V50.314H135.917V49.348ZM140.369 44.826H141.517V49.838H140.369V44.826ZM144.835 40.696H145.997V41.942C145.997 42.4647 145.987 43.0153 145.969 43.594C145.959 44.1727 145.922 44.8073 145.857 45.498C145.801 46.1887 145.693 46.9587 145.535 47.808L144.359 47.668C144.601 46.4547 144.741 45.3907 144.779 44.476C144.816 43.552 144.835 42.7073 144.835 41.942V40.696ZM155.883 47.22H156.793V47.892C156.793 48.4427 156.681 48.984 156.457 49.516C156.233 50.048 155.907 50.524 155.477 50.944C155.057 51.364 154.539 51.686 153.923 51.91L153.349 51.056C153.881 50.86 154.334 50.5893 154.707 50.244C155.09 49.8987 155.379 49.5253 155.575 49.124C155.781 48.7133 155.883 48.3027 155.883 47.892V47.22ZM156.149 47.22H157.003V47.892C157.003 48.3213 157.087 48.746 157.255 49.166C157.423 49.586 157.675 49.9687 158.011 50.314C158.357 50.6593 158.777 50.9347 159.271 51.14L158.795 52.022C158.179 51.7793 157.675 51.4433 157.283 51.014C156.901 50.5847 156.616 50.0993 156.429 49.558C156.243 49.0073 156.149 48.452 156.149 47.892V47.22ZM160.573 47.22H161.427V47.892C161.427 48.3867 161.329 48.9047 161.133 49.446C160.947 49.9873 160.657 50.4913 160.265 50.958C159.883 51.4153 159.393 51.77 158.795 52.022L158.291 51.14C158.795 50.9067 159.215 50.608 159.551 50.244C159.887 49.8707 160.139 49.4787 160.307 49.068C160.485 48.648 160.573 48.256 160.573 47.892V47.22ZM160.797 47.22H161.707V47.892C161.707 48.3307 161.805 48.7553 162.001 49.166C162.207 49.5767 162.496 49.95 162.869 50.286C163.252 50.6127 163.709 50.8693 164.241 51.056L163.667 51.91C163.051 51.686 162.529 51.3733 162.099 50.972C161.67 50.5613 161.343 50.0947 161.119 49.572C160.905 49.04 160.797 48.48 160.797 47.892V47.22ZM161.945 39.436H163.107V46.66H161.945V39.436ZM156.317 40.164C156.961 40.164 157.531 40.29 158.025 40.542C158.52 40.794 158.907 41.144 159.187 41.592C159.477 42.0307 159.621 42.544 159.621 43.132C159.621 43.7107 159.477 44.2193 159.187 44.658C158.907 45.0967 158.52 45.442 158.025 45.694C157.531 45.946 156.961 46.072 156.317 46.072C155.683 46.072 155.113 45.946 154.609 45.694C154.115 45.442 153.723 45.0967 153.433 44.658C153.153 44.2193 153.013 43.7107 153.013 43.132C153.013 42.544 153.153 42.0307 153.433 41.592C153.723 41.144 154.115 40.794 154.609 40.542C155.113 40.29 155.683 40.164 156.317 40.164ZM156.317 41.144C155.907 41.144 155.538 41.228 155.211 41.396C154.885 41.564 154.623 41.7973 154.427 42.096C154.241 42.3853 154.147 42.7307 154.147 43.132C154.147 43.524 154.241 43.8693 154.427 44.168C154.623 44.4573 154.885 44.686 155.211 44.854C155.538 45.022 155.907 45.106 156.317 45.106C156.737 45.106 157.111 45.022 157.437 44.854C157.764 44.686 158.021 44.4573 158.207 44.168C158.394 43.8693 158.487 43.524 158.487 43.132C158.487 42.7307 158.394 42.3853 158.207 42.096C158.021 41.7973 157.764 41.564 157.437 41.396C157.111 41.228 156.737 41.144 156.317 41.144ZM167.054 47.024H168.202V48.48H174.404V47.024H175.552V51.924H167.054V47.024ZM168.202 49.39V50.986H174.404V49.39H168.202ZM165.612 45.19H177.05V46.142H165.612V45.19ZM170.736 39.562H171.744V40.136C171.744 40.5747 171.651 40.99 171.464 41.382C171.277 41.7647 171.021 42.1193 170.694 42.446C170.377 42.7633 170.003 43.048 169.574 43.3C169.154 43.552 168.697 43.762 168.202 43.93C167.717 44.098 167.213 44.224 166.69 44.308L166.256 43.384C166.713 43.3187 167.157 43.216 167.586 43.076C168.025 42.936 168.435 42.768 168.818 42.572C169.201 42.3667 169.537 42.138 169.826 41.886C170.115 41.6247 170.339 41.3493 170.498 41.06C170.657 40.7613 170.736 40.4533 170.736 40.136V39.562ZM170.932 39.562H171.926V40.136C171.926 40.444 172.005 40.7473 172.164 41.046C172.332 41.3353 172.561 41.6107 172.85 41.872C173.139 42.124 173.471 42.3527 173.844 42.558C174.227 42.7633 174.633 42.9407 175.062 43.09C175.501 43.23 175.944 43.328 176.392 43.384L175.972 44.308C175.449 44.224 174.941 44.098 174.446 43.93C173.961 43.762 173.503 43.552 173.074 43.3C172.654 43.0387 172.281 42.7447 171.954 42.418C171.637 42.0913 171.385 41.7367 171.198 41.354C171.021 40.9713 170.932 40.5653 170.932 40.136V39.562ZM187.703 39.422H188.851V52.092H187.703V39.422ZM179.289 40.668H180.437V48.508H179.289V40.668ZM179.289 47.822H180.325C181.296 47.822 182.28 47.78 183.279 47.696C184.287 47.6027 185.323 47.4487 186.387 47.234L186.541 48.214C185.44 48.4473 184.38 48.6107 183.363 48.704C182.346 48.788 181.333 48.83 180.325 48.83H179.289V47.822ZM199.938 39.422H201.1V52.106H199.938V39.422ZM200.834 44.42H203.172V45.386H200.834V44.42ZM191.916 47.962H192.91C193.685 47.962 194.394 47.9527 195.038 47.934C195.691 47.906 196.317 47.8593 196.914 47.794C197.521 47.7287 198.137 47.64 198.762 47.528L198.902 48.522C198.249 48.634 197.614 48.7227 196.998 48.788C196.391 48.8533 195.757 48.8953 195.094 48.914C194.431 48.9327 193.703 48.942 192.91 48.942H191.916V47.962ZM191.916 40.654H197.782V41.606H193.064V48.41H191.916V40.654ZM205.478 51.0795C205.233 51.0795 205.022 50.9917 204.846 50.8161C204.671 50.6404 204.583 50.4299 204.583 50.1847C204.583 49.9394 204.671 49.7289 204.846 49.5533C205.022 49.3776 205.233 49.2898 205.478 49.2898C205.723 49.2898 205.934 49.3776 206.109 49.5533C206.285 49.7289 206.373 49.9394 206.373 50.1847C206.373 50.3471 206.331 50.4962 206.248 50.6321C206.169 50.768 206.061 50.8774 205.925 50.9602C205.793 51.0398 205.644 51.0795 205.478 51.0795ZM209.333 51.0795C209.088 51.0795 208.878 50.9917 208.702 50.8161C208.526 50.6404 208.438 50.4299 208.438 50.1847C208.438 49.9394 208.526 49.7289 208.702 49.5533C208.878 49.3776 209.088 49.2898 209.333 49.2898C209.579 49.2898 209.789 49.3776 209.965 49.5533C210.14 49.7289 210.228 49.9394 210.228 50.1847C210.228 50.3471 210.187 50.4962 210.104 50.6321C210.024 50.768 209.917 50.8774 209.781 50.9602C209.648 51.0398 209.499 51.0795 209.333 51.0795ZM213.189 51.0795C212.943 51.0795 212.733 50.9917 212.557 50.8161C212.382 50.6404 212.294 50.4299 212.294 50.1847C212.294 49.9394 212.382 49.7289 212.557 49.5533C212.733 49.3776 212.943 49.2898 213.189 49.2898C213.434 49.2898 213.644 49.3776 213.82 49.5533C213.996 49.7289 214.084 49.9394 214.084 50.1847C214.084 50.3471 214.042 50.4962 213.959 50.6321C213.88 50.768 213.772 50.8774 213.636 50.9602C213.504 51.0398 213.354 51.0795 213.189 51.0795Z" fill="#123524"/>
<path d="M140.5 76L146.5 68H134.5L140.5 76Z" fill="#FDF2D4"/>
</svg>
