<svg width="176" height="166" viewBox="0 0 176 166" fill="none" xmlns="http://www.w3.org/2000/svg">
<g clip-path="url(#clip0_279_2914)">
<path d="M7.69514 31.2968C6.36905 31.2968 5.20301 30.3485 4.94816 29.0363L0.0514036 3.83072C-0.105897 3.02086 0.101703 2.18817 0.620858 1.54625C1.13971 0.90462 1.91127 0.526157 2.73772 0.508512L26.4006 0.000747477C27.7824 -0.0305887 28.9536 0.926526 29.2091 2.27214L33.8501 26.716C34.0001 27.507 33.801 28.3238 33.3032 28.9575C32.8057 29.591 32.0585 29.9795 31.2534 30.023L7.84634 31.2925C7.79574 31.2953 7.74513 31.2968 7.69514 31.2968Z" fill="#D6D6E3"/>
<path d="M6.16382 27.2119L11.3145 13.3486L19.899 19.7351L22.7085 16.9313L32.5416 27.0561L6.16382 27.2119Z" fill="#3E7B27"/>
<path d="M22.0843 12.1027C20.7932 12.1027 19.743 11.0546 19.743 9.76619C19.743 8.47777 20.7932 7.42969 22.0843 7.42969C23.3753 7.42969 24.4255 8.47777 24.4255 9.76619C24.4255 11.0546 23.3753 12.1027 22.0843 12.1027Z" fill="#3E7B27"/>
<path d="M8.5713 126.506C7.83357 126.506 7.112 126.291 6.48066 125.874C5.61794 125.304 5.03599 124.431 4.84272 123.417L0.113628 98.6101C-0.271394 96.5894 1.00134 94.6508 3.0112 94.1969L24.1968 89.4077C25.2022 89.181 26.232 89.3623 27.0978 89.9185C27.9641 90.4752 28.5559 91.3365 28.7641 92.3432L33.9187 117.264C34.3388 119.295 33.0286 121.304 30.9983 121.743L9.38677 126.418C9.11546 126.477 8.84231 126.506 8.5713 126.506Z" fill="#D6D6E3"/>
<path d="M6.94314 104.161C6.42734 104.161 5.96854 103.795 5.87038 103.271C5.75942 102.678 6.15054 102.109 6.74377 101.999L23.8713 98.8053C24.4642 98.6931 25.0349 99.0849 25.1459 99.6769C25.2568 100.269 24.8657 100.839 24.2725 100.949L7.14495 104.142C7.07727 104.155 7.00959 104.161 6.94314 104.161Z" fill="#090814"/>
<path d="M8.50423 110.703C8.00977 110.703 7.56195 110.366 7.44214 109.865C7.30252 109.279 7.66498 108.691 8.25212 108.551L24.3749 104.72C24.9614 104.581 25.5507 104.942 25.6909 105.528C25.8305 106.114 25.4681 106.702 24.8809 106.842L8.75817 110.673C8.67312 110.693 8.58806 110.703 8.50423 110.703Z" fill="#090814"/>
<path d="M9.5965 117.033C9.09137 117.033 8.63776 116.681 8.52893 116.168C8.40394 115.579 8.78104 115.001 9.37122 114.876L20.3707 112.551C20.9642 112.427 21.5413 112.803 21.666 113.392C21.791 113.981 21.4139 114.56 20.8237 114.684L9.82423 117.009C9.74771 117.025 9.6715 117.033 9.5965 117.033Z" fill="#090814"/>
<path d="M167.99 50.1871C167.796 50.1871 167.6 50.1719 167.402 50.1412L145.556 46.7207C144.534 46.5604 143.641 46.0085 143.043 45.1661C142.444 44.324 142.217 43.3005 142.403 42.285L146.96 17.446C147.332 15.4228 149.218 14.0763 151.259 14.3729L172.749 17.5342C173.768 17.6842 174.663 18.2245 175.27 19.0557C175.876 19.8865 176.117 20.9027 175.947 21.9167L171.745 47.0152C171.436 48.8637 169.815 50.1871 167.99 50.1871Z" fill="#D6D6E3"/>
<path d="M168.849 28.3441C168.782 28.3441 168.715 28.338 168.647 28.3252L151.519 25.1366C150.925 25.0262 150.534 24.4569 150.645 23.8649C150.755 23.2729 151.324 22.8801 151.919 22.993L169.048 26.1816C169.641 26.2921 170.032 26.8613 169.922 27.4533C169.824 27.9778 169.365 28.3441 168.849 28.3441Z" fill="#090814"/>
<path d="M167.233 34.0505C167.184 34.0505 167.134 34.0474 167.084 34.0404L150.662 31.8086C150.064 31.7274 149.646 31.1779 149.727 30.581C149.809 29.9841 150.361 29.5661 150.957 29.6479L167.379 31.8798C167.977 31.961 168.396 32.5104 168.314 33.1074C168.239 33.6541 167.771 34.0505 167.233 34.0505Z" fill="#090814"/>
<path d="M160.641 39.909C160.583 39.909 160.524 39.9041 160.465 39.8947L149.365 38.1022C148.77 38.006 148.365 37.4459 148.462 36.8515C148.558 36.257 149.115 35.8545 149.715 35.9494L160.814 37.7419C161.41 37.8381 161.814 38.3982 161.718 38.9926C161.631 39.5281 161.167 39.909 160.641 39.909Z" fill="#090814"/>
<path d="M49.1774 63.2959L38.7312 98.9329C37.344 103.665 40.6414 108.481 45.5632 108.911L56.9623 109.907L49.1774 63.2959Z" fill="#3E7B27"/>
<path opacity="0.1" d="M49.1774 63.2959L38.7312 98.9329C37.344 103.665 40.6414 108.481 45.5632 108.911L56.9623 109.907L49.1774 63.2959Z" fill="black"/>
<path d="M143.993 56.7212L130.02 79.7835L123.441 71.4651L136.299 51.3746C135.842 49.0373 136.395 46.3243 138.03 43.9814C140.89 39.882 145.964 38.4738 149.364 40.8361C152.763 43.1983 153.2 48.4365 150.34 52.536C148.706 54.8788 146.348 56.3378 143.993 56.7212Z" fill="#9D616A"/>
<path d="M56.8787 112.629L55.2007 118.324L55.2577 124.099C55.2577 124.099 44.2211 137.347 48.2871 166L99.9991 165.353L93.839 119.246L56.8787 112.629Z" fill="#090814"/>
<path d="M62.6994 33.7055C62.6994 25.6227 69.265 19.0703 77.3642 19.0703C85.4634 19.0703 92.029 25.6227 92.029 33.7055C92.029 40.2606 87.7103 45.8085 81.7577 47.6717L79.5714 49.4297L83.4966 63.1405L78.9228 66.3696L64.4704 54.3503C64.4704 54.3503 67.5926 50.3816 69.267 45.9065C65.3096 43.2855 62.6994 38.8006 62.6994 33.7055Z" fill="#9D616A"/>
<path d="M133.391 55.9893C128.213 55.9106 118.642 72.4923 118.642 72.4923L110.78 69.7175L94.6101 64.0046L82.2177 58.9143L82.2721 59.2882C82.2233 59.1709 82.1703 59.0525 82.1119 58.933C80.8091 56.2539 77.0247 53.1019 66.2805 53.7266L61.2214 57.7116L60.5334 58.2576C60.5334 58.2576 57.3411 57.9818 54.1602 59.2482C51.8591 60.1714 49.558 61.8939 48.4695 65.1132C47.9055 66.7738 47.9055 70.2071 48.2439 74.5693C49.4678 90.3631 55.1718 123.939 55.1718 123.939L91.181 119.182L93.8374 119.244C93.8374 119.244 94.1533 115.624 94.4353 110.885C94.6101 108.105 94.768 104.947 94.8583 101.907C94.9203 99.6785 94.9372 97.5171 94.8977 95.6147C94.8921 95.4964 94.8921 95.3782 94.8864 95.2599C94.7793 91.7872 94.4296 89.2712 93.6795 88.9955C93.6795 88.9955 96.0088 88.9335 99.3702 88.8097C107.492 88.5057 121.648 87.8246 123.667 86.7271C126.521 85.1793 141.484 64.4041 141.484 64.4041C141.484 64.4041 138.574 56.0738 133.391 55.9893Z" fill="#3E7B27"/>
<path d="M92.4624 34.786C91.3546 29.3774 90.8232 26.6069 86.7966 22.7808C85.8409 22.9158 87.0489 27.8614 81.781 34.7505C74.1232 44.7651 74.8865 35.5829 72.622 38.6678C72.1305 39.3376 72.0244 41.7539 72.1859 42.5852C72.8243 45.8699 76.602 42.6626 72.622 53.902C72.0299 54.7761 71.3318 54.5636 70.4413 54.5549C70.3724 54.5542 70.8241 54.4681 69.1329 54.1196C68.3257 53.9533 67.1959 53.7568 65.8415 53.5291C50.1076 50.8837 44.552 31.0708 56.7133 20.7629C59.4803 18.4177 62.1958 16.6403 64.5534 15.8167C71.6545 13.336 87.8337 14.9484 90.9399 22.9985C92.4217 26.8385 92.9166 30.7731 92.4624 34.786Z" fill="#010102"/>
<path d="M60.0568 66.5895C66.2543 66.5895 71.2784 61.5755 71.2784 55.3904C71.2784 49.2054 66.2543 44.1914 60.0568 44.1914C53.8592 44.1914 48.8351 49.2054 48.8351 55.3904C48.8351 61.5755 53.8592 66.5895 60.0568 66.5895Z" fill="#010102"/>
</g>
<defs>
<clipPath id="clip0_279_2914">
<rect width="176" height="166" fill="white"/>
</clipPath>
</defs>
</svg>
