<svg width="16" height="16" viewBox="0 0 16 16" fill="none" xmlns="http://www.w3.org/2000/svg">
<mask id="mask0_224_5442" style="mask-type:alpha" maskUnits="userSpaceOnUse" x="0" y="0" width="16" height="16">
<path fill-rule="evenodd" clip-rule="evenodd" d="M6.42716 0.333008C3.06433 0.333008 0.333496 3.0374 0.333496 6.37923C0.333496 9.72106 3.06433 12.4255 6.42716 12.4255C7.68091 12.4255 8.84716 12.0494 9.81644 11.4047L13.7918 15.3473C14.2208 15.7727 14.9151 15.7727 15.344 15.3473C15.7744 14.9204 15.7744 14.2271 15.344 13.8002L11.3941 9.88279C12.1033 8.89455 12.5208 7.68498 12.5208 6.37923C12.5208 3.0374 9.79 0.333008 6.42716 0.333008ZM2.53133 6.37923C2.53133 4.24945 4.27295 2.51823 6.42716 2.51823C8.58138 2.51823 10.323 4.24945 10.323 6.37923C10.323 8.50901 8.58138 10.2402 6.42716 10.2402C4.27295 10.2402 2.53133 8.50901 2.53133 6.37923Z" fill="#006FFD"/>
</mask>
<g mask="url(#mask0_224_5442)">
<rect width="16" height="16" fill="#123524"/>
</g>
</svg>
