<svg width="250" height="211" viewBox="0 0 250 211" fill="none" xmlns="http://www.w3.org/2000/svg">
<g clip-path="url(#clip0_264_2744)">
<path d="M203.605 101.836C203.605 104.801 203.481 107.736 203.231 110.641C203.035 112.908 202.768 115.155 202.428 117.382C202.068 119.74 201.626 122.069 201.103 124.37V124.373C200.761 125.887 200.385 127.389 199.976 128.878C198.789 133.209 197.312 137.454 195.557 141.587C195.175 142.486 194.781 143.379 194.374 144.265C192.836 147.623 191.114 150.894 189.215 154.062C183.891 162.958 177.244 170.993 169.504 177.89C168.666 178.635 167.817 179.368 166.956 180.088C148.681 195.36 125.615 203.709 101.803 203.672C45.5779 203.672 0 158.079 0 101.836C0 45.5926 45.5779 -0.000362149 101.803 -0.000362149C124.795 -0.0366284 147.117 7.74872 165.103 22.0774C165.946 22.7457 166.779 23.4291 167.601 24.1274C171.611 27.5299 175.354 31.2359 178.796 35.2127H178.799C194.831 53.6999 203.642 77.3619 203.605 101.836Z" fill="#F2F2F2"/>
<path d="M30.0521 119.427C20.3542 113.653 13.0346 102.863 13.9849 91.6138C22.8512 100.102 34.4332 105.18 46.6818 105.949C51.4067 106.228 56.691 106.047 60.169 109.258C62.3332 111.256 63.3406 114.265 63.5058 117.206C63.671 120.147 63.082 123.073 62.496 125.96L62.6976 126.668C51.4122 126.71 39.75 125.201 30.0521 119.427Z" fill="#E6E6E6"/>
<path d="M14.2211 91.6017C18.1068 100.099 24.5703 107.156 32.6936 111.77C34.4399 112.748 36.2965 113.587 38.2694 113.977C40.1954 114.342 42.184 114.184 44.0285 113.521C45.7608 112.936 47.4651 112.138 49.3092 111.985C51.253 111.824 53.0525 112.574 54.4663 113.888C56.1962 115.495 57.2455 117.629 58.1991 119.751C59.2579 122.107 60.3204 124.571 62.3504 126.265C62.5964 126.471 62.2635 126.841 62.0179 126.636C58.486 123.688 57.9095 118.751 55.0863 115.279C53.7689 113.659 51.9555 112.426 49.8012 112.458C47.9174 112.487 46.1592 113.309 44.4104 113.916C42.574 114.553 40.7345 114.852 38.7958 114.572C36.8127 114.285 34.9194 113.516 33.1557 112.587C29.1721 110.451 25.549 107.701 22.4192 104.439C18.8266 100.736 15.8936 96.4458 13.7473 91.7534C13.6146 91.4629 14.0893 91.3131 14.2211 91.6017Z" fill="white"/>
<path d="M29.9908 110.438C29.032 111.696 27.6573 112.573 26.1121 112.911C24.567 113.249 22.9521 113.026 21.5558 112.283C21.2738 112.132 21.4957 111.686 21.778 111.838C23.077 112.532 24.5813 112.739 26.0195 112.422C27.4577 112.104 28.735 111.282 29.6209 110.106C29.8137 109.85 30.1826 110.184 29.9908 110.438Z" fill="white"/>
<path d="M43.1892 113.932C42.7856 110.724 41.1878 107.785 38.7144 105.702C38.4692 105.496 38.8019 105.126 39.0468 105.332C41.6167 107.504 43.2733 110.566 43.6859 113.906C43.725 114.224 43.2281 114.249 43.1892 113.932Z" fill="white"/>
<path d="M19.4436 100.503C19.916 100.093 20.2793 99.5729 20.5009 98.9882C20.7226 98.4035 20.7956 97.7729 20.7133 97.153C20.6702 96.8353 21.1672 96.8108 21.21 97.1265C21.2977 97.8118 21.2162 98.5082 20.9728 99.1547C20.7294 99.8013 20.3314 100.378 19.8135 100.836C19.7683 100.883 19.7069 100.911 19.6416 100.914C19.5764 100.918 19.5123 100.896 19.4623 100.854C19.4136 100.81 19.3842 100.748 19.3807 100.682C19.3772 100.617 19.3998 100.552 19.4436 100.503Z" fill="white"/>
<path d="M45.3759 69.8203C45.4085 70.018 45.4411 70.2156 45.4774 70.4151C45.929 73.07 46.5955 75.6838 47.4702 78.2307C47.5347 78.4287 47.6031 78.6283 47.6731 78.8241C49.846 84.9376 53.1346 90.5946 57.3718 95.5072C59.0597 97.4605 60.8937 99.2826 62.858 100.958C65.5708 103.271 68.6962 105.563 70.4355 108.549C70.6204 108.859 70.7861 109.179 70.9314 109.509L63.5442 126.367C63.5082 126.396 63.4759 126.428 63.4398 126.458L63.1756 127.145C63.0683 127.066 62.9587 126.981 62.8513 126.902C62.7889 126.856 62.7281 126.806 62.6656 126.761C62.6245 126.729 62.5834 126.697 62.5445 126.671C62.5308 126.66 62.5172 126.65 62.5073 126.641C62.4684 126.615 62.435 126.586 62.3999 126.562C61.7859 126.091 61.1741 125.614 60.5645 125.133C60.5607 125.131 60.5607 125.131 60.5585 125.126C55.9232 121.447 51.5542 117.349 47.946 112.718C47.8374 112.578 47.725 112.437 47.6199 112.29C46.005 110.194 44.5642 107.969 43.3117 105.637C42.63 104.358 42.0135 103.046 41.4645 101.705C40.0525 98.2364 39.1947 94.5677 38.9225 90.8329C38.3808 83.3875 40.2256 75.8517 45.0065 70.2451C45.1289 70.1018 45.2497 69.962 45.3759 69.8203Z" fill="#E6E6E6"/>
<path d="M45.5736 69.9519C43.5617 79.0769 44.4752 88.6041 48.1843 97.1803C48.9901 99.0128 49.967 100.802 51.3078 102.301C52.6259 103.752 54.3086 104.824 56.1809 105.405C57.9157 105.982 59.757 106.371 61.3215 107.359C62.9706 108.401 63.9559 110.084 64.294 111.984C64.7076 114.31 64.2613 116.645 63.7455 118.914C63.1728 121.433 62.538 124.04 63.1391 126.616C63.2119 126.928 62.7236 127.023 62.6509 126.711C61.6051 122.23 64.1162 117.941 63.9516 113.468C63.8749 111.382 63.1689 109.305 61.4292 108.034C59.908 106.922 58.0095 106.519 56.2479 105.95C54.3982 105.353 52.7493 104.484 51.3701 103.093C49.9593 101.669 48.9104 99.9151 48.0613 98.1113C46.1663 94.0064 44.9283 89.6291 44.3927 85.1396C43.7529 80.0191 43.9935 74.8269 45.104 69.7876C45.1728 69.4758 45.642 69.642 45.5736 69.9519Z" fill="white"/>
<path d="M46.8272 94.4893C45.3043 94.9164 43.6792 94.7882 42.2421 94.1274C40.805 93.4667 39.6495 92.3164 38.9819 90.8821C38.8478 90.5914 39.2931 90.3693 39.4274 90.6604C40.0465 91.9972 41.123 93.0686 42.4625 93.6811C43.8019 94.2937 45.3162 94.4071 46.7319 94.0009C47.0397 93.913 47.1332 94.4019 46.8272 94.4893Z" fill="white"/>
<path d="M55.2626 105.228C56.8718 102.423 57.3649 99.1144 56.6436 95.9616C56.5719 95.6493 57.0601 95.5544 57.1318 95.8664C57.8763 99.1486 57.3562 102.591 55.6752 105.506C55.5148 105.784 55.1031 105.505 55.2626 105.228Z" fill="white"/>
<path d="M44.3859 80.2043C45.0096 80.1618 45.613 79.9651 46.1418 79.6317C46.6707 79.2983 47.1085 78.8388 47.416 78.2943C47.5728 78.0147 47.9843 78.2944 47.8285 78.5723C47.486 79.1723 47.0019 79.6792 46.4184 80.0488C45.8349 80.4184 45.1698 80.6395 44.4812 80.6927C44.4167 80.7031 44.3506 80.6886 44.2964 80.6521C44.2423 80.6156 44.204 80.5598 44.1894 80.4961C44.1772 80.4314 44.1909 80.3644 44.2277 80.3098C44.2645 80.2552 44.3214 80.2172 44.3859 80.2043Z" fill="white"/>
<path d="M70.5193 23.6026L82.9795 169.513L58.0591 171.387V25.459C61.0286 23.4934 65.2912 23.1859 70.5193 23.6026Z" fill="#CCCCCC"/>
<path d="M132.025 23.6026L119.565 169.513L144.485 171.387V25.459C141.516 23.4934 137.253 23.1859 132.025 23.6026Z" fill="#CCCCCC"/>
<path d="M140.754 177.418H61.5257C60.2552 177.417 59.0373 176.911 58.1389 176.012C57.2406 175.114 56.7353 173.895 56.7339 172.624V27.6005C56.7353 26.3297 57.2406 25.1113 58.139 24.2127C59.0373 23.3141 60.2553 22.8086 61.5257 22.8071H140.754C142.025 22.8086 143.243 23.3141 144.141 24.2127C145.039 25.1113 145.545 26.3297 145.546 27.6005V172.625C145.545 173.895 145.039 175.114 144.141 176.012C143.243 176.911 142.025 177.417 140.754 177.418ZM61.5257 24.3983C60.677 24.3993 59.8633 24.7369 59.2632 25.3373C58.6631 25.9376 58.3255 26.7515 58.3246 27.6005V172.625C58.3255 173.474 58.6631 174.287 59.2632 174.888C59.8633 175.488 60.677 175.826 61.5257 175.827H140.754C141.603 175.826 142.417 175.488 143.017 174.888C143.617 174.287 143.954 173.474 143.955 172.625V27.6005C143.954 26.7515 143.617 25.9376 143.017 25.3373C142.417 24.7369 141.603 24.3993 140.754 24.3983L61.5257 24.3983Z" fill="#CCCCCC"/>
<path d="M144.751 46.9402H57.5293V48.5314H144.751V46.9402Z" fill="#CCCCCC"/>
<path d="M144.751 73.46H57.5293V75.0512H144.751V73.46Z" fill="#CCCCCC"/>
<path d="M85.8333 23.6028H84.2427V96.0021H85.8333V23.6028Z" fill="#CCCCCC"/>
<path d="M118.037 23.6028H116.446V96.0021H118.037V23.6028Z" fill="#CCCCCC"/>
<path d="M154.692 181.794H50.2386C48.3401 181.794 46.5195 181.039 45.1771 179.697C43.8347 178.354 43.0806 176.533 43.0806 174.634C43.0806 172.734 43.8347 170.913 45.1771 169.57C46.5195 168.228 48.3401 167.473 50.2386 167.473H154.692C156.591 167.473 158.411 168.228 159.754 169.57C161.096 170.913 161.85 172.734 161.85 174.634C161.85 176.533 161.096 178.354 159.754 179.697C158.411 181.039 156.591 181.794 154.692 181.794Z" fill="#CCCCCC"/>
<path d="M144.75 92.2893H58.0591V97.5933H144.75V92.2893Z" fill="#CCCCCC"/>
<path d="M86.0803 109.169L85.9703 109.116C80.0606 106.26 72.3216 106.263 60.8766 109.126L60.7544 109.156L60.7178 109.035C59.5071 105.064 58.1356 100.567 60.7121 98.3537C60.7482 91.8602 66.4423 86.5874 73.4363 86.5874C80.4289 86.5874 86.1221 91.8575 86.1603 98.3493C89.9932 101.281 88.1665 105.613 86.1422 109.064L86.0803 109.169Z" fill="#2F2E41"/>
<path d="M122.403 95.2647C122.298 95.7909 122.078 96.2875 121.759 96.7194C121.44 97.1513 121.031 97.5081 120.56 97.7647C120.088 98.0213 119.567 98.1713 119.031 98.2043C118.496 98.2373 117.959 98.1525 117.46 97.9557L96.5753 118.95L94.7119 112.431L115.454 92.9351C115.84 92.1181 116.513 91.4711 117.344 91.1167C118.175 90.7623 119.107 90.7252 119.963 91.0124C120.82 91.2995 121.541 91.891 121.991 92.6748C122.441 93.4585 122.588 94.38 122.403 95.2647Z" fill="#FFB6B6"/>
<path d="M70.787 115.476C70.787 115.476 68.8922 119.772 73.5676 122.42C78.243 125.069 94.5836 121.41 97.2351 120.899C99.8865 120.388 109.789 105.563 109.789 105.563L108.389 98.2925L95.2556 109.697L70.787 115.476Z" fill="#3E7B27"/>
<path d="M67.3382 139.229L67.6034 144.268C67.6034 144.268 66.8209 148.732 67.4644 149.695C68.1031 150.653 85.5318 150.774 85.5318 150.774C85.5318 150.774 86.6834 144.564 87.6754 139.129L67.3382 139.229Z" fill="#FFB6B6"/>
<path d="M117.448 205.853L121.091 205.117L120.048 190.395L114.671 191.481L117.448 205.853Z" fill="#FFB6B6"/>
<path d="M122.667 186.694L126.054 185.171L121.66 171.084L116.661 173.333L122.667 186.694Z" fill="#FFB6B6"/>
<path d="M125.618 178.757L119.24 182.37L103.51 157.085C92.4681 164.527 81.6702 168.091 70.7849 169.993C67.1046 170.648 63.3524 170.316 62.6458 166.569C62.6128 166.394 62.5864 166.217 62.5668 166.04C62.1322 161.948 67.2217 156.701 67.8687 151.694L81.7977 150.857L83.5154 153.06L99.6239 143.154C102.863 141.161 107.124 142.239 109.14 145.56C109.247 145.736 109.346 145.916 109.437 146.1L125.618 178.757Z" fill="#2F2E41"/>
<path d="M121.714 195.766L114.416 196.445L101.184 169.373C88.0617 171.63 75.6825 172.354 64.975 169.623C61.3497 168.711 59.1337 164.966 60.0253 161.259C60.067 161.086 60.1152 160.914 60.1699 160.745C61.4514 156.834 64.8059 154.066 67.4488 149.764L86.7533 150.058L84.5971 157.5L103.35 155.072C107.121 154.584 110.566 157.315 111.043 161.171C111.068 161.375 111.085 161.58 111.092 161.785L121.714 195.766Z" fill="#2F2E41"/>
<path d="M74.8758 105.32C79.2051 105.32 82.7146 101.81 82.7146 97.479C82.7146 93.1484 79.2051 89.6377 74.8758 89.6377C70.5466 89.6377 67.0371 93.1484 67.0371 97.479C67.0371 101.81 70.5466 105.32 74.8758 105.32Z" fill="#FFB6B6"/>
<path d="M70.2804 108.151L77.4678 108.997C77.7709 109.033 78.0554 109.162 78.2815 109.367C78.5076 109.572 78.6641 109.843 78.7293 110.141L79.8723 115.373L86.9976 123.767C86.9976 123.767 89.5562 128.566 88.5968 134.005C87.6373 139.443 87.2156 143.485 87.2156 143.485C87.2156 143.485 68.1021 150.654 67.4625 149.694C66.8228 148.734 66.6153 144.374 66.6153 144.374L64.0566 115.9C64.0566 115.9 66.9351 111.101 68.5342 111.101C69.5663 111.066 69.4339 108.743 70.2804 108.151Z" fill="#3E7B27"/>
<path d="M87.4099 145.235C88.4178 145.235 89.2349 144.255 89.2349 143.045C89.2349 141.835 88.4178 140.854 87.4099 140.854C86.402 140.854 85.585 141.835 85.585 143.045C85.585 144.255 86.402 145.235 87.4099 145.235Z" fill="#3E7B27"/>
<path d="M115.64 202.062L121.195 199.277L122.242 201.721L129.266 203.141C129.613 203.211 129.929 203.39 130.166 203.653C130.404 203.915 130.552 204.246 130.589 204.598C130.625 204.951 130.548 205.305 130.368 205.61C130.189 205.916 129.917 206.155 129.591 206.295L122.804 209.205L120.599 207.29L121.178 209.903L118.619 211L115.64 202.062Z" fill="#2F2E41"/>
<path d="M121.077 185.522L126.582 182.64L127.672 185.064L134.721 186.361C135.069 186.425 135.387 186.599 135.63 186.857C135.872 187.115 136.026 187.443 136.068 187.795C136.111 188.146 136.04 188.502 135.866 188.811C135.692 189.119 135.424 189.363 135.101 189.509L128.366 192.538L126.127 190.662L126.752 193.264L124.213 194.406L121.077 185.522Z" fill="#2F2E41"/>
<path d="M70.3975 95.0195C68.3266 95.0229 66.3053 94.385 64.6113 93.1934L64.5547 93.1538V93.0848C64.557 91.0809 65.3537 89.1598 66.7702 87.7429C68.1867 86.3259 70.1072 85.5289 72.1104 85.5266H75.2917C77.2949 85.5289 79.2154 86.3259 80.6318 87.7429C82.0483 89.1598 82.8451 91.0809 82.8473 93.0848C82.8452 93.5434 82.6642 93.9831 82.3428 94.3102C82.0214 94.6373 81.5851 94.826 81.1267 94.836L70.5763 95.018C70.5167 95.019 70.4569 95.0195 70.3975 95.0195Z" fill="#2F2E41"/>
<path d="M83.3775 91.6333C84.3919 91.0474 84.5614 89.4414 83.7561 88.0461C82.9508 86.6509 81.4757 85.9947 80.4613 86.5806C79.4468 87.1664 79.2773 88.7724 80.0826 90.1677C80.8879 91.563 82.3631 92.2191 83.3775 91.6333Z" fill="#2F2E41"/>
<path d="M67.5122 90.0765C68.651 88.9373 68.9028 87.3421 68.0745 86.5136C67.2463 85.685 65.6516 85.9369 64.5128 87.0762C63.3739 88.2154 63.1221 89.8106 63.9504 90.6391C64.7786 91.4676 66.3733 91.2158 67.5122 90.0765Z" fill="#2F2E41"/>
<path d="M136.887 161.771H129.063C128.886 161.771 128.712 161.809 128.552 161.883C128.391 161.957 128.249 162.065 128.135 162.2C127.847 162.147 127.55 162.163 127.268 162.247C126.987 162.331 126.73 162.481 126.518 162.684C126.306 162.886 126.145 163.137 126.048 163.414C125.951 163.691 125.922 163.987 125.962 164.278C126.001 164.569 126.11 164.846 126.277 165.087C126.445 165.327 126.667 165.525 126.926 165.663C127.185 165.801 127.473 165.876 127.766 165.882C128.06 165.887 128.35 165.822 128.614 165.694L129.263 167.803C129.34 168.053 129.495 168.272 129.705 168.427C129.915 168.583 130.17 168.666 130.431 168.666H135.518C135.78 168.666 136.034 168.583 136.245 168.427C136.455 168.272 136.61 168.053 136.687 167.803L138.055 163.354C138.112 163.171 138.124 162.977 138.092 162.789C138.06 162.6 137.984 162.422 137.87 162.268C137.757 162.114 137.608 161.989 137.438 161.902C137.267 161.816 137.078 161.771 136.887 161.771ZM127.805 165.351C127.454 165.351 127.116 165.212 126.868 164.963C126.619 164.714 126.48 164.377 126.48 164.025C126.48 163.674 126.619 163.336 126.868 163.088C127.116 162.839 127.454 162.699 127.805 162.699C127.829 162.699 127.852 162.705 127.876 162.707C127.823 162.92 127.83 163.144 127.894 163.354L128.454 165.174C128.257 165.289 128.033 165.35 127.805 165.351Z" fill="#3F3D56"/>
<path d="M101.949 156.015C101.415 156.064 100.876 155.996 100.371 155.814C99.866 155.633 99.4068 155.343 99.0259 154.965C98.645 154.587 98.3516 154.13 98.1663 153.626C97.9811 153.123 97.9085 152.584 97.9536 152.049L71.8564 138.06L77.5645 134.404L102.186 148.687C103.079 148.822 103.892 149.281 104.47 149.976C105.047 150.67 105.35 151.553 105.321 152.456C105.292 153.359 104.932 154.22 104.311 154.876C103.689 155.532 102.849 155.937 101.949 156.015Z" fill="#FFB6B6"/>
<path d="M67.7841 112.351C67.7841 112.351 63.127 111.767 61.9317 117.008C60.7365 122.248 68.9296 136.857 70.1796 139.251C71.4297 141.645 88.4678 146.881 88.4678 146.881L95.0285 143.454L80.3385 134.14L67.7841 112.351Z" fill="#3E7B27"/>
<path d="M100.61 90.698H102.2C102.974 90.698 103.715 91.0053 104.262 91.5524C104.809 92.0995 105.116 92.8415 105.116 93.6152H97.6934C97.6934 92.8415 98.0006 92.0995 98.5475 91.5524C99.0944 91.0053 99.8362 90.698 100.61 90.698Z" fill="#CCCCCC"/>
<path d="M50.1698 36.27C58.8731 36.27 65.9285 29.2123 65.9285 20.5061C65.9285 11.7999 58.8731 4.74219 50.1698 4.74219C41.4665 4.74219 34.4111 11.7999 34.4111 20.5061C34.4111 29.2123 41.4665 36.27 50.1698 36.27Z" fill="#FF616D"/>
<path d="M98.4192 19.6846C94.2486 15.3082 89.405 11.3157 83.6711 9.20597C82.0739 8.6158 80.4178 8.19948 78.7314 7.96423C78.7178 7.96237 78.705 7.96512 78.6915 7.96402C78.6641 7.95695 78.6363 7.95149 78.6082 7.94767C76.2496 7.6471 73.8556 7.79168 71.5504 8.3739C70.423 8.65689 69.3232 9.04014 68.2641 9.51907C67.2013 10.0378 66.1715 10.6216 65.1806 11.2672C63.0831 12.5231 60.7738 13.3849 58.3665 13.8101C57.1582 14.0277 55.9344 14.1478 54.7068 14.1694C53.6416 14.1908 52.6371 14.2278 51.628 14.6127C50.55 15.0182 49.5816 15.6702 48.8002 16.5165C48.0189 17.3629 47.446 18.3802 47.1275 19.4873C47.1029 19.5859 47.1103 19.6898 47.1486 19.7839C47.1869 19.878 47.2541 19.9575 47.3405 20.0109C47.6135 20.2065 47.8796 20.4284 48.1664 20.6027C48.4216 20.7195 48.6941 20.7938 48.9732 20.8228C49.4292 20.919 49.8858 21.0125 50.3429 21.1031C52.0271 21.4369 53.7183 21.7324 55.4165 21.9895C58.8527 22.5099 62.3075 22.8764 65.7808 23.0892C72.7389 23.5108 79.7209 23.3009 86.6411 22.462C90.5303 21.9908 94.3931 21.3225 98.2146 20.4596C98.292 20.4369 98.3622 20.3947 98.4185 20.3369C98.4747 20.2792 98.5151 20.2079 98.5357 20.1299C98.5562 20.0519 98.5563 19.97 98.5359 19.8919C98.5155 19.8139 98.4753 19.7425 98.4192 19.6846Z" fill="#E6E6E6"/>
<path d="M50.9181 30.2245C49.3209 29.6344 47.6648 29.218 45.9785 28.9828C45.9649 28.9809 45.9521 28.9837 45.9386 28.9826C45.9111 28.9755 45.8833 28.97 45.8553 28.9662C43.4967 28.6657 41.1027 28.8102 38.7974 29.3925C37.6701 29.6754 36.5703 30.0587 35.5112 30.5376C34.4484 31.0563 33.4186 31.6401 32.4276 32.2857C30.3302 33.5417 28.0209 34.4035 25.6136 34.8286C24.4053 35.0462 23.1814 35.1664 21.9539 35.1879C20.8887 35.2093 19.8842 35.2463 18.875 35.6313C17.797 36.0368 16.8287 36.6887 16.0473 37.5351C15.2659 38.3814 14.6931 39.3987 14.3746 40.5059C14.35 40.6045 14.3574 40.7083 14.3957 40.8024C14.434 40.8965 14.5012 40.976 14.5876 41.0295C14.8606 41.225 15.1267 41.4469 15.4135 41.6212C15.6686 41.738 15.9412 41.8124 16.2203 41.8413C16.6763 41.9376 17.1329 42.031 17.59 42.1216C19.2742 42.4554 20.9654 42.7509 22.6636 43.0081C26.0998 43.5284 29.5546 43.895 33.0279 44.1077C39.986 44.5293 46.968 44.3194 53.8882 43.4806C57.7774 43.0093 61.6402 42.341 65.4617 41.4781C65.5391 41.4555 65.6093 41.4132 65.6655 41.3555C65.7218 41.2977 65.7621 41.2264 65.7827 41.1484C65.8033 41.0704 65.8034 40.9885 65.783 40.9105C65.7626 40.8325 65.7223 40.7611 65.6662 40.7032C61.4957 36.3267 56.6521 32.3343 50.9181 30.2245Z" fill="#E6E6E6"/>
<path d="M164.561 147.742L152.442 131.817L142.88 137.225L163.143 161.295L164.561 147.742Z" fill="#3F3D56"/>
<path d="M192.476 121.854C192.745 128.528 193.779 135.149 195.557 141.587C195.175 142.486 194.781 143.379 194.374 144.265C192.836 147.623 191.114 150.894 189.215 154.062C183.891 162.959 177.244 170.993 169.504 177.89C168.666 178.635 167.817 179.368 166.956 180.089C162.049 173.321 159.401 165.853 158.354 158.167C158.221 157.191 158.112 156.205 158.03 155.224V155.218C157.829 152.834 157.765 150.439 157.837 148.047C157.839 147.856 157.845 147.663 157.853 147.469C157.945 144.913 158.176 142.351 158.523 139.813V139.81C158.563 139.518 158.603 139.227 158.648 138.935C158.775 138.06 158.918 137.185 159.075 136.315C159.985 131.298 161.256 126.353 162.876 121.519V121.517C162.921 121.376 162.967 121.238 163.017 121.1C163.192 120.575 163.37 120.056 163.552 119.536C163.564 119.495 163.578 119.455 163.595 119.416C163.831 118.737 164.072 118.064 164.319 117.396C164.385 117.21 164.454 117.024 164.525 116.839C164.804 116.093 165.087 115.354 165.376 114.624C165.467 114.391 165.559 114.157 165.652 113.927C165.724 113.749 165.793 113.571 165.867 113.396V113.394C166.288 112.351 166.715 111.33 167.147 110.328C168.359 107.512 169.605 104.862 170.819 102.42L170.822 102.417C175.862 92.3051 180.443 85.7388 180.443 85.7388L197.646 91.3079C195.594 94.9491 194.006 100.319 193.136 106.655C192.466 111.691 192.245 116.776 192.476 121.851L192.476 121.854Z" fill="#3F3D56"/>
<path d="M163.884 120.233C163.783 119.997 163.669 119.766 163.552 119.536C162.948 118.364 162.169 117.291 161.243 116.353C161.105 116.213 160.962 116.072 160.814 115.94C159.217 114.468 157.275 113.423 155.168 112.901C153.06 112.379 150.855 112.397 148.757 112.953L148.746 112.959L148.666 112.98L148.685 113.07C148.765 113.49 148.88 113.903 149.03 114.303C149.069 114.412 149.115 114.515 149.16 114.619C149.178 114.667 149.202 114.709 149.223 114.757C149.223 114.757 149.221 114.759 149.226 114.759C149.226 114.762 149.229 114.765 149.229 114.767C149.279 114.866 149.327 114.966 149.38 115.062C149.271 114.958 149.168 114.852 149.067 114.744C148.969 114.643 148.879 114.537 148.788 114.431C148.479 114.07 148.2 113.685 147.953 113.28L147.911 113.208L147.837 113.237C146.836 113.584 145.882 114.052 144.995 114.629L144.899 114.693C144.222 115.138 143.459 115.435 142.659 115.566C141.859 115.697 141.041 115.658 140.257 115.452C139.022 115.133 137.733 115.075 136.474 115.281C135.215 115.487 134.012 115.952 132.943 116.648C132.234 117.11 131.593 117.669 131.039 118.308C130.991 118.363 130.944 118.422 130.896 118.478C130.795 118.6 130.7 118.724 130.607 118.851C129.611 120.184 128.999 121.764 128.839 123.421L128.834 123.482L128.884 123.516C129.781 124.131 130.795 124.554 131.864 124.757C131.193 124.851 130.513 124.868 129.838 124.808H129.836C129.529 124.783 129.225 124.74 128.924 124.681L128.868 124.67H128.865L128.796 124.657L128.807 124.784C128.886 126.404 129.396 127.974 130.284 129.332L130.31 129.369C130.32 129.383 130.329 129.397 130.337 129.412C130.713 129.987 131.026 130.602 131.27 131.244C131.89 132.841 132.026 134.585 131.662 136.259C131.25 138.05 131.387 139.922 132.055 141.634C132.723 143.345 133.89 144.816 135.406 145.854C136.737 146.77 138.288 147.315 139.899 147.432C140.119 147.451 140.342 147.461 140.565 147.461C141.839 147.465 143.101 147.202 144.268 146.689L144.311 146.673L144.321 146.626C144.546 145.901 144.861 145.208 145.26 144.562C145.129 145.071 145.063 145.594 145.064 146.119V146.294L145.215 146.207C145.345 146.13 145.477 146.048 145.596 145.971C146.313 145.503 146.961 144.939 147.524 144.295C147.744 144.04 147.967 143.793 148.2 143.547L148.203 143.544C148.656 143.061 149.136 142.589 149.634 142.139C150.694 141.186 151.829 140.32 153.028 139.548C154.225 138.778 155.477 138.098 156.774 137.511H156.776C156.922 137.442 157.07 137.376 157.216 137.312C157.862 137.031 158.483 136.697 159.075 136.315C159.096 136.302 159.114 136.291 159.133 136.278C161.696 134.599 163.58 132.065 164.45 129.127C165.32 126.189 165.119 123.037 163.884 120.233Z" fill="#3E7B27"/>
<path opacity="0.15" d="M132.099 140.025C132.027 140.347 131.972 140.673 131.935 141.002C131.441 139.441 131.37 137.778 131.728 136.181C131.783 135.937 131.824 135.69 131.857 135.441C132.346 136.92 132.43 138.503 132.099 140.025Z" fill="black"/>
<path opacity="0.15" d="M132.299 128.521C131.514 128.63 130.718 128.634 129.931 128.532C129.725 128.144 129.548 127.741 129.399 127.327C130.275 127.918 131.262 128.324 132.299 128.521Z" fill="black"/>
<path opacity="0.15" d="M129.868 124.723C129.579 125.464 129.386 126.24 129.295 127.031C129.054 126.278 128.911 125.496 128.871 124.706L128.864 124.578L128.989 124.603C129.28 124.657 129.574 124.697 129.868 124.723Z" fill="black"/>
<path opacity="0.15" d="M133.011 116.569C134.08 115.872 135.282 115.406 136.54 115.2C137.799 114.994 139.087 115.052 140.321 115.371C141.105 115.579 141.924 115.618 142.724 115.488C143.525 115.358 144.289 115.06 144.966 114.614L145.062 114.551C145.948 113.972 146.902 113.503 147.902 113.156L147.979 113.129L148.02 113.198C148.416 113.852 148.895 114.452 149.446 114.982C149.111 114.358 148.877 113.686 148.752 112.99L148.733 112.898L148.824 112.874C150.792 112.353 152.856 112.305 154.847 112.733C156.837 113.162 158.698 114.055 160.278 115.34C161.858 116.625 163.111 118.266 163.936 120.128C164.762 121.99 165.135 124.021 165.027 126.055C164.609 124.396 163.867 122.838 162.843 121.468C161.818 120.099 160.533 118.947 159.06 118.079C157.588 117.21 155.958 116.643 154.264 116.409C152.571 116.175 150.848 116.28 149.195 116.718L149.105 116.742L149.123 116.833C149.248 117.53 149.483 118.202 149.817 118.825C149.266 118.295 148.787 117.696 148.392 117.042L148.35 116.973L148.274 116.999C147.274 117.347 146.32 117.815 145.433 118.395L145.338 118.458C144.66 118.903 143.896 119.201 143.096 119.331C142.296 119.462 141.477 119.422 140.693 119.215C138.641 118.682 136.467 118.878 134.543 119.769C132.619 120.66 131.063 122.191 130.142 124.102C129.731 123.904 129.333 123.682 128.95 123.436L128.898 123.403L128.905 123.342C129.036 121.977 129.474 120.659 130.185 119.487C130.896 118.314 131.862 117.317 133.011 116.569Z" fill="black"/>
<path d="M231.569 48.8072L231.317 48.6401L231.134 48.8788C229.719 50.6618 228.592 52.6567 227.797 54.7901C227.906 52.3323 228.336 49.8994 229.074 47.5528L229.154 47.3061L228.926 47.1762C225.96 45.496 222.799 44.185 219.515 43.2725L219.157 43.177C216.639 42.486 214.296 41.2721 212.279 39.6143C210.262 37.9564 208.618 35.892 207.452 33.5556C204.743 28.1934 200.465 23.7851 195.186 20.9188C189.908 18.0525 183.881 16.8647 177.911 17.5137H177.908C177.844 17.519 177.778 17.527 177.715 17.5349C177.606 17.5455 177.5 17.5588 177.394 17.572C177.176 17.6012 176.964 17.6304 176.752 17.6622C176.572 17.6887 176.389 17.7179 176.209 17.7497C176.113 17.763 176.02 17.7789 175.928 17.7975C175.835 17.8134 175.739 17.8293 175.647 17.8478H175.644C173.864 18.1847 172.119 18.6863 170.432 19.3462H170.429V19.3489L170.002 19.5159C169.562 19.6963 169.126 19.8872 168.693 20.0888C168.595 20.1339 168.499 20.1816 168.401 20.2267C168.375 20.2399 168.345 20.2532 168.319 20.2691C168.041 20.4017 167.765 20.5396 167.492 20.6855C167.452 20.704 167.412 20.7252 167.373 20.7465L167.118 20.8817C166.559 21.184 166.009 21.5049 165.469 21.8444C165.424 21.8709 165.382 21.8974 165.336 21.9266C165.289 21.9584 165.238 21.9902 165.191 22.0221C165.161 22.038 165.132 22.0592 165.103 22.0778C165.021 22.1281 164.941 22.1812 164.862 22.2369C164.703 22.3403 164.544 22.4464 164.387 22.5551C164.226 22.6638 164.067 22.7779 163.908 22.8919L163.748 23.006L163.778 23.2022C163.804 23.364 163.828 23.5257 163.857 23.6849C163.884 23.844 163.91 24.0005 163.939 24.1569C163.984 24.4195 164.035 24.6794 164.085 24.9313C164.12 25.0984 164.151 25.2628 164.189 25.4246C164.223 25.5916 164.26 25.7587 164.3 25.9258C164.377 26.2706 164.459 26.6047 164.546 26.9335C164.589 27.098 164.634 27.2624 164.682 27.4242C164.708 27.5223 164.735 27.6204 164.764 27.7159C164.785 27.7822 164.806 27.8485 164.827 27.9148C164.833 27.936 164.838 27.9599 164.846 27.9837C164.852 28.0062 164.859 28.0283 164.867 28.05C164.896 28.1482 164.926 28.2436 164.955 28.3364C164.971 28.3868 164.987 28.4372 165.005 28.485C165.042 28.599 165.082 28.7157 165.122 28.8271C165.164 28.9544 165.209 29.0817 165.254 29.2063C165.265 29.2381 165.275 29.2673 165.286 29.2991C165.294 29.323 165.302 29.3469 165.313 29.3707C165.323 29.3972 165.334 29.4264 165.344 29.4529C165.389 29.5723 165.435 29.6943 165.482 29.8136C165.498 29.856 165.514 29.9011 165.533 29.9436C165.962 31.0239 166.49 32.0626 167.11 33.0464C166.423 32.4576 165.762 31.8335 165.127 31.1741C164.146 30.1544 163.242 29.0632 162.423 27.9095C162.357 27.8193 162.29 27.7265 162.229 27.6337C162.105 27.456 161.983 27.2783 161.864 27.098C161.736 26.9123 161.614 26.7187 161.495 26.5278C161.415 26.4005 161.336 26.2705 161.259 26.1433C161.182 26.0213 161.111 25.9019 161.042 25.7799L160.835 25.4246H160.832V25.4272L160.541 25.7136C160.424 25.8277 160.307 25.9417 160.193 26.0557C156.63 29.6421 154.049 34.0851 152.699 38.9577L152.659 39.1035L152.619 39.2547C152.542 39.5252 152.465 39.7877 152.383 40.0556V40.0582C152.304 40.3234 152.219 40.5886 152.129 40.8485C152.046 41.0951 151.962 41.3391 151.872 41.5831C151.842 41.6653 151.811 41.7475 151.776 41.8298C151.72 41.9889 151.659 42.1453 151.598 42.3045C151.569 42.3761 151.54 42.4503 151.511 42.5219C151.439 42.697 151.368 42.872 151.296 43.0444C151.286 43.0709 151.272 43.1001 151.259 43.1266C151.238 43.1796 151.214 43.2327 151.193 43.283C151.137 43.4103 151.079 43.5403 151.023 43.6676C150.983 43.7498 150.946 43.8347 150.909 43.9169C150.893 43.954 150.875 43.9911 150.859 44.0283C150.761 44.2404 150.66 44.4499 150.554 44.6568C150.435 44.9008 150.313 45.1448 150.183 45.3834C150.069 45.6062 149.949 45.8237 149.825 46.0411C149.61 46.4257 149.385 46.8076 149.151 47.1788C149.061 47.322 148.971 47.4652 148.878 47.6085C148.857 47.6429 148.836 47.6774 148.815 47.7092C148.738 47.8339 148.658 47.9532 148.576 48.0752C148.521 48.1574 148.465 48.2396 148.409 48.3192C148.316 48.4624 148.218 48.6003 148.118 48.7355C148.091 48.778 148.062 48.8178 148.033 48.8575C147.884 49.0644 147.736 49.2659 147.585 49.4675C147.579 49.4701 147.579 49.4728 147.577 49.4754C147.571 49.4754 147.571 49.4781 147.569 49.4808C147.502 49.5683 147.436 49.6558 147.367 49.7406C147.277 49.8653 147.179 49.9873 147.081 50.1066C146.922 50.3082 146.755 50.5124 146.585 50.7113C146.58 50.7166 146.577 50.7219 146.572 50.7245C145.694 51.757 144.742 52.7248 143.725 53.6205C143.706 53.6364 143.693 53.6523 143.674 53.6656C143.531 53.7902 143.388 53.9149 143.239 54.0369C143.179 54.0873 143.118 54.1376 143.057 54.188C142.956 54.2729 142.852 54.3578 142.752 54.4347C142.74 54.4468 142.726 54.4575 142.712 54.4665C142.622 54.5407 142.534 54.6097 142.444 54.6787C142.335 54.7662 142.227 54.8484 142.115 54.9306C141.59 55.3284 141.051 55.7041 140.498 56.0577C140.416 56.1134 140.329 56.1691 140.244 56.2221C140.193 56.2539 140.143 56.2858 140.095 56.3123C139.894 56.4369 139.692 56.5589 139.491 56.6756C139.289 56.7949 139.083 56.909 138.878 57.0204C138.441 57.259 138.009 57.5083 137.587 57.7682C137.375 57.9008 137.163 58.0334 136.954 58.1687C136.121 58.7097 135.32 59.2887 134.549 59.9057C133.779 60.5231 133.04 61.179 132.335 61.8708C132.248 61.9557 132.161 62.0432 132.073 62.1334C131.898 62.3058 131.728 62.4808 131.567 62.6558C131.307 62.9237 131.058 63.1995 130.811 63.478C129.511 64.9536 128.36 66.5544 127.375 68.2568C126.881 69.1069 126.431 69.9824 126.028 70.8796C125.724 71.5506 125.445 72.2375 125.193 72.9323C125.026 73.3964 124.87 73.8649 124.724 74.3378C124.653 74.5739 124.584 74.8125 124.517 75.0512C124.292 75.8601 124.104 76.6769 123.95 77.4963C123.825 78.1541 123.725 78.8126 123.648 79.4721C123.608 79.8036 123.576 80.1351 123.547 80.4639C123.479 81.2722 123.444 82.0812 123.442 82.8911C123.438 85.3206 123.733 87.7414 124.321 90.0986C124.451 90.6184 124.595 91.1355 124.753 91.65C124.833 91.9073 124.918 92.1618 125.002 92.4164C125.217 93.0529 125.455 93.6832 125.716 94.3073C125.872 94.6812 126.036 95.0525 126.209 95.4211C127.304 97.7646 128.701 99.9544 130.366 101.934C130.639 102.261 130.921 102.582 131.211 102.897C131.214 102.897 131.211 102.9 131.211 102.9C131.933 103.687 132.697 104.434 133.499 105.138H133.502C133.823 105.422 134.149 105.697 134.48 105.963C134.483 105.96 134.483 105.963 134.483 105.963C134.817 106.233 135.154 106.493 135.498 106.745C135.671 106.87 135.846 106.994 136.023 107.119C136.37 107.366 136.725 107.603 137.086 107.832H137.089C137.449 108.066 137.815 108.289 138.186 108.501C138.931 108.928 139.695 109.328 140.48 109.691L140.612 109.752L140.747 109.691C142.006 109.125 143.303 108.649 144.629 108.267C144.92 108.183 145.215 108.106 145.506 108.031C146.243 107.848 146.985 107.695 147.733 107.57C147.005 107.935 146.301 108.349 145.628 108.808C145.106 109.161 144.592 109.546 144.075 109.97C143.902 110.11 143.73 110.256 143.558 110.405L143.128 110.776L143.666 110.954C143.862 111.017 144.059 111.081 144.255 111.139C144.523 111.224 144.788 111.301 145.048 111.373C145.615 111.532 146.186 111.673 146.76 111.795C146.901 111.824 147.039 111.853 147.179 111.882C147.452 111.935 147.728 111.988 148.004 112.036C148.015 112.039 148.026 112.04 148.038 112.041C148.324 112.089 148.613 112.134 148.9 112.174C149.432 112.251 149.965 112.312 150.498 112.357C150.557 112.365 150.615 112.367 150.676 112.37C150.806 112.381 150.933 112.391 151.063 112.399C151.349 112.418 151.638 112.431 151.927 112.442C151.948 112.442 151.967 112.444 151.988 112.444C152.134 112.45 152.28 112.455 152.426 112.458C152.426 112.458 152.426 112.46 152.428 112.458C152.574 112.46 152.72 112.463 152.866 112.463H153.672C153.823 112.463 153.974 112.465 154.128 112.465C154.34 112.465 154.554 112.468 154.767 112.471C154.822 112.471 154.881 112.473 154.939 112.473C155.278 112.479 155.618 112.487 155.957 112.495C155.978 112.495 155.999 112.497 156.02 112.497C156.36 112.508 156.699 112.519 157.039 112.534C157.113 112.537 157.187 112.54 157.264 112.545C157.59 112.558 157.916 112.574 158.242 112.593C158.335 112.598 158.43 112.606 158.526 112.611C158.772 112.625 159.022 112.641 159.268 112.659C159.414 112.667 159.557 112.678 159.703 112.691C160.291 112.736 160.877 112.786 161.466 112.845C161.662 112.861 161.858 112.882 162.054 112.903C162.579 112.959 163.106 113.02 163.634 113.086C163.87 113.113 164.106 113.144 164.342 113.176C164.369 113.179 164.395 113.182 164.422 113.187C164.713 113.227 165.002 113.266 165.294 113.309C165.485 113.335 165.676 113.364 165.867 113.394C166.063 113.423 166.259 113.452 166.455 113.486C166.561 113.502 166.667 113.521 166.776 113.54C167.031 113.579 167.288 113.622 167.545 113.669C167.568 113.672 167.591 113.675 167.614 113.68C168.16 113.776 168.709 113.876 169.255 113.985C169.576 114.046 169.894 114.11 170.212 114.176C170.461 114.226 170.71 114.279 170.959 114.332C171.002 114.34 171.044 114.351 171.087 114.362C171.096 114.364 171.106 114.366 171.116 114.367C171.492 114.449 171.871 114.534 172.248 114.624C173.555 114.927 174.86 115.262 176.164 115.632C176.463 115.714 176.763 115.802 177.062 115.889C177.19 115.926 177.314 115.963 177.439 116.001C177.699 116.077 177.956 116.154 178.216 116.237C178.444 116.306 178.674 116.377 178.902 116.451C179.045 116.496 179.189 116.542 179.332 116.589C179.554 116.658 179.777 116.73 179.997 116.807C180.185 116.865 180.371 116.926 180.557 116.992C180.822 117.08 181.089 117.17 181.355 117.266C181.431 117.292 181.511 117.319 181.588 117.348C181.911 117.459 182.235 117.573 182.558 117.693C182.874 117.807 183.189 117.923 183.502 118.04C183.719 118.122 183.937 118.202 184.151 118.287C184.393 118.379 184.634 118.472 184.873 118.568C185.217 118.703 185.564 118.841 185.909 118.981C186.227 119.109 186.543 119.239 186.861 119.374C186.919 119.398 186.98 119.422 187.038 119.448C187.314 119.562 187.59 119.682 187.863 119.801C188.041 119.875 188.216 119.952 188.391 120.029C189.154 120.363 189.917 120.709 190.678 121.066H190.681C191.158 121.291 191.643 121.506 192.131 121.71C192.245 121.758 192.359 121.806 192.476 121.851C192.669 121.933 192.866 122.01 193.062 122.09C193.189 122.14 193.316 122.19 193.446 122.238C193.634 122.312 193.825 122.384 194.016 122.453C194.218 122.527 194.417 122.601 194.621 122.67C194.692 122.697 194.764 122.721 194.838 122.747C195.074 122.827 195.31 122.906 195.549 122.983C195.572 122.991 195.596 122.999 195.623 123.007C195.872 123.087 196.121 123.166 196.373 123.241C196.393 123.248 196.413 123.254 196.434 123.259C196.704 123.341 196.98 123.421 197.253 123.498C197.656 123.609 198.062 123.715 198.467 123.813C198.542 123.832 198.616 123.85 198.69 123.866C198.908 123.919 199.122 123.97 199.34 124.018C199.57 124.071 199.804 124.118 200.034 124.166C200.268 124.214 200.501 124.262 200.731 124.304C200.856 124.328 200.981 124.352 201.103 124.373L201.429 124.429C201.654 124.468 201.879 124.503 202.107 124.54C202.114 124.54 202.12 124.541 202.126 124.543C202.383 124.582 202.638 124.62 202.895 124.651C203.141 124.686 203.388 124.715 203.634 124.744C203.685 124.749 203.738 124.755 203.791 124.76C203.995 124.784 204.199 124.808 204.403 124.826C204.462 124.832 204.52 124.837 204.578 124.842C204.78 124.861 204.981 124.879 205.183 124.893C205.223 124.898 205.264 124.901 205.305 124.901C205.485 124.917 205.665 124.93 205.845 124.938C205.973 124.948 206.097 124.954 206.225 124.962C206.291 124.964 206.354 124.967 206.421 124.97C206.596 124.98 206.771 124.986 206.948 124.991C207.163 124.999 207.378 125.004 207.59 125.009C207.847 125.015 208.107 125.017 208.364 125.017H208.369C208.621 125.017 208.876 125.015 209.128 125.009H209.223L209.501 125.001C209.645 124.999 209.788 124.993 209.928 124.988C210.199 124.978 210.466 124.964 210.734 124.948C210.84 124.943 210.949 124.935 211.055 124.93C211.103 124.927 211.153 124.922 211.201 124.919C211.368 124.909 211.532 124.898 211.699 124.885C211.871 124.871 212.046 124.856 212.219 124.837C212.441 124.816 212.664 124.792 212.887 124.768C213.062 124.749 213.237 124.728 213.409 124.707C213.432 124.705 213.455 124.701 213.478 124.696C213.645 124.678 213.812 124.657 213.976 124.633C214.173 124.606 214.366 124.577 214.56 124.548C214.581 124.545 214.599 124.543 214.621 124.54C214.955 124.487 215.291 124.434 215.628 124.373C215.981 124.309 216.333 124.24 216.683 124.169C216.813 124.142 216.94 124.113 217.07 124.087C217.142 124.071 217.216 124.057 217.285 124.041C217.394 124.018 217.5 123.994 217.606 123.967C217.624 123.965 217.646 123.959 217.664 123.957C217.813 123.925 217.958 123.888 218.107 123.85C218.404 123.779 218.695 123.705 218.987 123.625C219.117 123.593 219.247 123.559 219.371 123.524C219.409 123.514 219.446 123.503 219.48 123.492C220.018 123.341 220.552 123.181 221.081 123.012C221.315 122.938 221.545 122.861 221.776 122.779C222.272 122.609 222.763 122.431 223.25 122.243C223.38 122.196 223.51 122.143 223.64 122.092C223.831 122.015 224.022 121.938 224.21 121.861C224.379 121.79 224.549 121.718 224.721 121.644C224.806 121.61 224.891 121.572 224.976 121.535C225.23 121.424 225.485 121.31 225.737 121.196C225.906 121.116 226.074 121.039 226.241 120.96C226.506 120.833 226.768 120.703 227.031 120.573C227.097 120.538 227.16 120.504 227.224 120.472C227.391 120.387 227.558 120.299 227.728 120.215C227.996 120.071 228.263 119.928 228.528 119.78C228.619 119.732 228.706 119.682 228.796 119.631C229.088 119.467 229.377 119.3 229.663 119.13C230.297 118.751 230.921 118.355 231.537 117.942C231.691 117.841 231.845 117.735 231.996 117.632C232.282 117.435 232.563 117.234 232.844 117.032C232.874 117.011 232.9 116.99 232.929 116.971C233.07 116.868 233.21 116.764 233.351 116.658C233.642 116.438 233.931 116.215 234.22 115.987C234.226 115.985 234.234 115.977 234.242 115.971C234.371 115.868 234.501 115.765 234.629 115.661C235.024 115.34 235.413 115.014 235.795 114.677C235.983 114.515 236.169 114.348 236.352 114.181C236.49 114.057 236.628 113.932 236.763 113.805C237.036 113.548 237.304 113.293 237.569 113.033C237.701 112.906 237.831 112.773 237.964 112.641C238.094 112.508 238.226 112.375 238.356 112.24C238.401 112.195 238.446 112.147 238.491 112.1C238.624 111.959 238.756 111.816 238.889 111.675C239.003 111.553 239.114 111.426 239.228 111.299C239.419 111.086 239.613 110.874 239.801 110.659C239.811 110.647 239.821 110.636 239.833 110.625C239.843 110.612 239.854 110.601 239.862 110.591H239.859C243.713 106.133 246.576 100.908 248.259 95.2601C249.943 89.6127 250.408 83.672 249.624 77.8312C248.841 71.9904 246.826 66.3827 243.713 61.3792C240.601 56.3757 236.461 52.0905 231.569 48.8072Z" fill="#3E7B27"/>
<g opacity="0.15">
<path d="M177.909 17.5117C178.437 19.4106 179.232 21.225 180.27 22.9005C178.533 21.4074 176.98 19.7113 175.646 17.8487C176.395 17.7069 177.15 17.5946 177.909 17.5117Z" fill="black"/>
<path d="M152.04 46.8789C150.078 47.9502 148.243 49.2402 146.571 50.7244C149.394 47.3849 151.458 43.4713 152.618 39.2547C152.632 39.204 152.646 39.153 152.66 39.1023L152.699 38.9588C154.094 33.9262 156.8 29.3545 160.54 25.7112L160.834 25.4246L161.041 25.7787C162.188 27.729 163.56 29.5374 165.129 31.1667C162.725 37.9542 158.045 43.6032 152.04 46.8789Z" fill="black"/>
<path d="M165.86 28.8151L165.82 28.9586C165.807 29.0094 165.793 29.0604 165.779 29.111C165.701 29.3901 165.619 29.6671 165.534 29.9428C164.695 27.7699 164.106 25.5086 163.778 23.2025L163.748 23.0068L163.908 22.8918C165.926 21.4417 168.117 20.2503 170.43 19.3452C168.353 22.2031 166.805 25.4105 165.86 28.8151Z" fill="black"/>
<path d="M138.88 57.023C140.616 56.0722 142.241 54.931 143.725 53.6204C140.761 57.0729 138.636 61.1652 137.517 65.5766C136.398 69.988 136.316 74.5987 137.276 79.0474C138.236 83.496 140.213 87.6618 143.052 91.2183C145.891 94.7748 149.515 97.6254 153.639 99.5467L153.773 99.6086L153.907 99.5482C156.135 98.5414 158.484 97.8279 160.895 97.4256C159.39 98.1924 157.987 99.1452 156.719 100.261L156.29 100.632L156.828 100.81C157.293 100.964 157.757 101.105 158.209 101.23C160.862 101.97 163.605 102.337 166.359 102.321C178.873 102.241 191.484 105.135 203.841 110.923C205.96 111.914 208.158 112.727 210.413 113.352C220.236 116.088 230.724 115.104 239.867 110.588C234.712 116.552 227.972 120.931 220.428 123.216C212.885 125.5 204.848 125.598 197.252 123.496C194.998 122.87 192.8 122.058 190.681 121.067C178.323 115.279 165.712 112.385 153.199 112.465C150.444 112.481 147.701 112.114 145.048 111.374C144.597 111.249 144.132 111.108 143.668 110.954L143.13 110.776L143.559 110.405C144.826 109.289 146.229 108.336 147.734 107.569C145.323 107.972 142.974 108.685 140.747 109.692L140.613 109.752L140.479 109.691C135.526 107.384 131.311 103.747 128.304 99.184C125.298 94.6211 123.618 89.3122 123.452 83.8498C123.286 78.3874 124.641 72.9863 127.365 68.2493C130.089 63.5122 134.076 59.6256 138.88 57.023Z" fill="black"/>
</g>
</g>
<defs>
<clipPath id="clip0_264_2744">
<rect width="250" height="211" fill="white"/>
</clipPath>
</defs>
</svg>
