<svg width="247" height="49" viewBox="0 0 247 49" fill="none" xmlns="http://www.w3.org/2000/svg">
<path d="M8.624 11.146H11.528V14.38H8.624V11.146ZM3.036 13.786H17.116V20.738H3.036V13.786ZM14.256 16.096H5.896V18.428H14.256V16.096ZM0.88 9.628H19.316V11.938H0.88V9.628ZM8.602 0.783998H11.11V1.422C11.11 2.14067 10.9853 2.83 10.736 3.49C10.5013 4.13533 10.1567 4.744 9.702 5.316C9.24733 5.87333 8.68267 6.37933 8.008 6.834C7.348 7.274 6.58533 7.648 5.72 7.956C4.85467 8.264 3.894 8.484 2.838 8.616L1.782 6.372C2.706 6.25467 3.52733 6.07867 4.246 5.844C4.97933 5.60933 5.61733 5.33067 6.16 5.008C6.70267 4.67067 7.15 4.304 7.502 3.908C7.86867 3.512 8.14 3.10133 8.316 2.676C8.50667 2.25067 8.602 1.83267 8.602 1.422V0.783998ZM9.086 0.783998H11.594V1.422C11.594 1.83267 11.682 2.25067 11.858 2.676C12.0487 3.10133 12.32 3.512 12.672 3.908C13.0387 4.304 13.4933 4.67067 14.036 5.008C14.5787 5.33067 15.2167 5.60933 15.95 5.844C16.6833 6.07867 17.5047 6.25467 18.414 6.372L17.358 8.616C16.302 8.484 15.3413 8.264 14.476 7.956C13.6253 7.648 12.8627 7.274 12.188 6.834C11.5133 6.37933 10.9487 5.87333 10.494 5.316C10.0393 4.744 9.68733 4.128 9.438 3.468C9.20333 2.808 9.086 2.126 9.086 1.422V0.783998ZM30.4683 4.722H36.0123V7.076H30.4683V4.722ZM30.4683 11.058H36.0123V13.412H30.4683V11.058ZM26.9263 1.972C27.9383 1.972 28.8403 2.27267 29.6323 2.874C30.4389 3.46067 31.0623 4.304 31.5023 5.404C31.9569 6.48933 32.1843 7.77267 32.1843 9.254C32.1843 10.75 31.9569 12.048 31.5023 13.148C31.0623 14.2333 30.4389 15.0767 29.6323 15.678C28.8403 16.2647 27.9383 16.558 26.9263 16.558C25.9143 16.558 25.0123 16.2647 24.2203 15.678C23.4283 15.0767 22.8049 14.2333 22.3503 13.148C21.8956 12.048 21.6683 10.75 21.6683 9.254C21.6683 7.77267 21.8956 6.48933 22.3503 5.404C22.8049 4.304 23.4283 3.46067 24.2203 2.874C25.0123 2.27267 25.9143 1.972 26.9263 1.972ZM26.9263 4.634C26.4423 4.634 26.0096 4.81 25.6283 5.162C25.2616 5.514 24.9683 6.03467 24.7483 6.724C24.5429 7.39867 24.4403 8.242 24.4403 9.254C24.4403 10.2513 24.5429 11.102 24.7483 11.806C24.9683 12.4953 25.2616 13.016 25.6283 13.368C26.0096 13.72 26.4423 13.896 26.9263 13.896C27.4396 13.896 27.8796 13.72 28.2463 13.368C28.6129 13.016 28.8989 12.4953 29.1043 11.806C29.3096 11.102 29.4123 10.2513 29.4123 9.254C29.4123 8.242 29.3096 7.39867 29.1043 6.724C28.8989 6.03467 28.6129 5.514 28.2463 5.162C27.8796 4.81 27.4396 4.634 26.9263 4.634ZM35.5283 0.541999H38.4543V20.98H35.5283V0.541999ZM56.3826 0.586H59.1766V13.346H56.3826V0.586ZM53.9186 5.602H57.1526V7.978H53.9186V5.602ZM52.1806 0.959999H54.9086V12.664H52.1806V0.959999ZM41.7086 2.654H51.6086V4.92H41.7086V2.654ZM46.6806 5.558C47.5459 5.558 48.3086 5.712 48.9686 6.02C49.6286 6.328 50.1419 6.746 50.5086 7.274C50.8899 7.802 51.0806 8.418 51.0806 9.122C51.0806 9.826 50.8899 10.4493 50.5086 10.992C50.1419 11.52 49.6286 11.938 48.9686 12.246C48.3086 12.5393 47.5459 12.686 46.6806 12.686C45.8446 12.686 45.0892 12.5393 44.4146 12.246C43.7546 11.938 43.2339 11.52 42.8526 10.992C42.4712 10.4493 42.2806 9.826 42.2806 9.122C42.2806 8.418 42.4712 7.802 42.8526 7.274C43.2339 6.746 43.7546 6.328 44.4146 6.02C45.0892 5.712 45.8446 5.558 46.6806 5.558ZM46.6806 7.67C46.1526 7.67 45.7199 7.79467 45.3826 8.044C45.0599 8.29333 44.8986 8.65267 44.8986 9.122C44.8986 9.59133 45.0599 9.958 45.3826 10.222C45.7199 10.4713 46.1526 10.596 46.6806 10.596C47.2086 10.596 47.6412 10.4713 47.9786 10.222C48.3159 9.958 48.4846 9.59133 48.4846 9.122C48.4846 8.65267 48.3159 8.29333 47.9786 8.044C47.6559 7.79467 47.2232 7.67 46.6806 7.67ZM45.2286 0.783998H48.1106V4.216H45.2286V0.783998ZM52.2686 13.544C54.4539 13.544 56.1699 13.8667 57.4166 14.512C58.6632 15.1573 59.2866 16.074 59.2866 17.262C59.2866 18.4353 58.6632 19.3447 57.4166 19.99C56.1699 20.6353 54.4539 20.958 52.2686 20.958C50.0832 20.958 48.3672 20.6353 47.1206 19.99C45.8886 19.3447 45.2726 18.4353 45.2726 17.262C45.2726 16.074 45.8886 15.1573 47.1206 14.512C48.3672 13.8667 50.0832 13.544 52.2686 13.544ZM52.2906 15.722C50.9266 15.722 49.8999 15.8467 49.2106 16.096C48.5212 16.3453 48.1766 16.734 48.1766 17.262C48.1766 17.7753 48.5212 18.1567 49.2106 18.406C49.8999 18.6553 50.9266 18.78 52.2906 18.78C53.6252 18.78 54.6299 18.6553 55.3046 18.406C55.9939 18.1567 56.3386 17.7753 56.3386 17.262C56.3386 16.734 55.9939 16.3453 55.3046 16.096C54.6299 15.8467 53.6252 15.722 52.2906 15.722ZM66.4842 16.8125L66.4139 17.6797C66.3514 18.3984 66.2238 19.099 66.0311 19.7812C65.8436 20.4688 65.6431 21.0859 65.4295 21.6328C65.216 22.1797 65.0467 22.6042 64.9217 22.9063H62.5155C62.5988 22.6042 62.7108 22.1797 62.8514 21.6328C62.9972 21.0859 63.1327 20.4688 63.2577 19.7812C63.3827 19.0937 63.453 18.3958 63.4686 17.6875L63.4842 16.8125H66.4842ZM73.2217 10.904H91.6577V13.214H73.2217V10.904ZM75.5317 7.582H89.7217V9.804H75.5317V7.582ZM75.5317 1.026H89.5457V3.248H78.4357V8.814H75.5317V1.026ZM77.5997 4.326H89.1057V6.46H77.5997V4.326ZM75.3997 14.358H89.4797V20.738H75.3997V14.358ZM86.6197 16.646H78.2597V18.428H86.6197V16.646ZM107.694 0.541999H110.62V20.98H107.694V0.541999ZM99.642 1.972C100.683 1.972 101.607 2.27267 102.414 2.874C103.221 3.46067 103.851 4.304 104.306 5.404C104.775 6.48933 105.01 7.77267 105.01 9.254C105.01 10.75 104.775 12.048 104.306 13.148C103.851 14.2333 103.221 15.0767 102.414 15.678C101.607 16.2647 100.683 16.558 99.642 16.558C98.6153 16.558 97.6986 16.2647 96.892 15.678C96.0853 15.0767 95.4473 14.2333 94.978 13.148C94.5233 12.048 94.296 10.75 94.296 9.254C94.296 7.77267 94.5233 6.48933 94.978 5.404C95.4473 4.304 96.0853 3.46067 96.892 2.874C97.6986 2.27267 98.6153 1.972 99.642 1.972ZM99.642 4.634C99.1433 4.634 98.7033 4.81 98.322 5.162C97.9406 5.514 97.64 6.03467 97.42 6.724C97.2146 7.39867 97.112 8.242 97.112 9.254C97.112 10.2513 97.2146 11.102 97.42 11.806C97.64 12.4953 97.9406 13.016 98.322 13.368C98.7033 13.72 99.1433 13.896 99.642 13.896C100.155 13.896 100.603 13.72 100.984 13.368C101.365 13.016 101.659 12.4953 101.864 11.806C102.084 11.102 102.194 10.2513 102.194 9.254C102.194 8.242 102.084 7.39867 101.864 6.724C101.659 6.03467 101.365 5.514 100.984 5.162C100.603 4.81 100.155 4.634 99.642 4.634ZM133.297 0.541999H136.223V20.98H133.297V0.541999ZM129.689 8.374H133.957V10.75H129.689V8.374ZM123.837 5.866H126.103V6.922C126.103 7.99267 125.985 9.04867 125.751 10.09C125.531 11.1313 125.186 12.114 124.717 13.038C124.262 13.962 123.683 14.7833 122.979 15.502C122.289 16.2207 121.483 16.7853 120.559 17.196L118.997 14.93C119.818 14.5633 120.529 14.0867 121.131 13.5C121.747 12.8987 122.253 12.2387 122.649 11.52C123.045 10.7867 123.338 10.0313 123.529 9.254C123.734 8.462 123.837 7.68467 123.837 6.922V5.866ZM124.453 5.866H126.741V6.922C126.741 7.64067 126.836 8.38133 127.027 9.144C127.232 9.892 127.533 10.618 127.929 11.322C128.325 12.0113 128.823 12.642 129.425 13.214C130.041 13.786 130.759 14.2553 131.581 14.622L130.063 16.844C129.124 16.448 128.303 15.9053 127.599 15.216C126.909 14.5267 126.33 13.7347 125.861 12.84C125.391 11.9453 125.039 10.9993 124.805 10.002C124.57 8.99 124.453 7.96333 124.453 6.922V5.866ZM119.679 3.886H130.789V6.196H119.679V3.886ZM123.815 1.048H126.741V5.096H123.815V1.048ZM148.783 0.959999C150.294 0.959999 151.599 1.12133 152.699 1.444C153.799 1.752 154.65 2.20667 155.251 2.808C155.867 3.39467 156.175 4.09867 156.175 4.92C156.175 5.74133 155.867 6.45267 155.251 7.054C154.65 7.64067 153.799 8.09533 152.699 8.418C151.599 8.74067 150.294 8.902 148.783 8.902C147.302 8.902 146.004 8.74067 144.889 8.418C143.774 8.09533 142.916 7.64067 142.315 7.054C141.714 6.45267 141.413 5.74133 141.413 4.92C141.413 4.09867 141.714 3.39467 142.315 2.808C142.916 2.20667 143.774 1.752 144.889 1.444C146.004 1.12133 147.302 0.959999 148.783 0.959999ZM148.783 3.204C147.874 3.204 147.089 3.27 146.429 3.402C145.769 3.51933 145.27 3.70267 144.933 3.952C144.61 4.20133 144.449 4.524 144.449 4.92C144.449 5.30133 144.61 5.624 144.933 5.888C145.27 6.13733 145.769 6.328 146.429 6.46C147.089 6.57733 147.874 6.636 148.783 6.636C149.722 6.636 150.514 6.57733 151.159 6.46C151.804 6.328 152.296 6.13733 152.633 5.888C152.97 5.624 153.139 5.30133 153.139 4.92C153.139 4.524 152.97 4.20133 152.633 3.952C152.296 3.70267 151.804 3.51933 151.159 3.402C150.514 3.27 149.722 3.204 148.783 3.204ZM141.721 13.786H155.801V20.738H141.721V13.786ZM152.941 16.096H144.581V18.428H152.941V16.096ZM139.565 10.068H158.001V12.356H139.565V10.068ZM174.015 0.541999H176.941V20.98H174.015V0.541999ZM165.963 1.972C167.005 1.972 167.929 2.27267 168.735 2.874C169.542 3.46067 170.173 4.304 170.627 5.404C171.097 6.48933 171.331 7.77267 171.331 9.254C171.331 10.75 171.097 12.048 170.627 13.148C170.173 14.2333 169.542 15.0767 168.735 15.678C167.929 16.2647 167.005 16.558 165.963 16.558C164.937 16.558 164.02 16.2647 163.213 15.678C162.407 15.0767 161.769 14.2333 161.299 13.148C160.845 12.048 160.617 10.75 160.617 9.254C160.617 7.77267 160.845 6.48933 161.299 5.404C161.769 4.304 162.407 3.46067 163.213 2.874C164.02 2.27267 164.937 1.972 165.963 1.972ZM165.963 4.634C165.465 4.634 165.025 4.81 164.643 5.162C164.262 5.514 163.961 6.03467 163.741 6.724C163.536 7.39867 163.433 8.242 163.433 9.254C163.433 10.2513 163.536 11.102 163.741 11.806C163.961 12.4953 164.262 13.016 164.643 13.368C165.025 13.72 165.465 13.896 165.963 13.896C166.477 13.896 166.924 13.72 167.305 13.368C167.687 13.016 167.98 12.4953 168.185 11.806C168.405 11.102 168.515 10.2513 168.515 9.254C168.515 8.242 168.405 7.39867 168.185 6.724C167.98 6.03467 167.687 5.514 167.305 5.162C166.924 4.81 166.477 4.634 165.963 4.634ZM185.454 2.148H187.852V5.096C187.852 6.416 187.734 7.68467 187.5 8.902C187.265 10.1047 186.906 11.234 186.422 12.29C185.952 13.3313 185.344 14.2553 184.596 15.062C183.862 15.854 182.99 16.4847 181.978 16.954L180.24 14.534C181.134 14.138 181.904 13.6173 182.55 12.972C183.21 12.312 183.752 11.564 184.178 10.728C184.603 9.87733 184.918 8.97533 185.124 8.022C185.344 7.06867 185.454 6.09333 185.454 5.096V2.148ZM186.026 2.148H188.402V5.096C188.402 6.04933 188.504 6.98067 188.71 7.89C188.915 8.79933 189.223 9.65733 189.634 10.464C190.059 11.2707 190.587 11.9893 191.218 12.62C191.863 13.236 192.618 13.7273 193.484 14.094L191.79 16.47C190.807 16.0153 189.949 15.4067 189.216 14.644C188.497 13.8813 187.903 13.0013 187.434 12.004C186.964 10.992 186.612 9.90667 186.378 8.748C186.143 7.57467 186.026 6.35733 186.026 5.096V2.148ZM194.474 0.541999H197.4V20.98H194.474V0.541999ZM201.732 2.522H204.614V14.358H201.732V2.522ZM201.732 13.61H203.162C204.379 13.61 205.531 13.5733 206.616 13.5C207.716 13.4267 208.853 13.2727 210.026 13.038L210.4 15.48C209.183 15.7293 207.995 15.8907 206.836 15.964C205.677 16.0373 204.453 16.074 203.162 16.074H201.732V13.61ZM215.702 0.563999H218.496V20.936H215.702V0.563999ZM207.386 7.01H212.05V9.364H207.386V7.01ZM211.39 0.915999H214.118V20.034H211.39V0.915999ZM225.468 10.926H228.394V16.624H225.468V10.926ZM232.86 10.926H235.786V16.624H232.86V10.926ZM221.42 16.206H239.878V18.582H221.42V16.206ZM230.616 1.576C232.083 1.576 233.388 1.80333 234.532 2.258C235.691 2.71267 236.593 3.35067 237.238 4.172C237.898 4.97867 238.228 5.93933 238.228 7.054C238.228 8.154 237.898 9.11467 237.238 9.936C236.593 10.7427 235.691 11.3733 234.532 11.828C233.388 12.2827 232.083 12.51 230.616 12.51C229.164 12.51 227.859 12.2827 226.7 11.828C225.556 11.3733 224.654 10.7427 223.994 9.936C223.334 9.11467 223.004 8.154 223.004 7.054C223.004 5.93933 223.334 4.97867 223.994 4.172C224.654 3.35067 225.556 2.71267 226.7 2.258C227.859 1.80333 229.164 1.576 230.616 1.576ZM230.616 3.842C229.678 3.842 228.849 3.974 228.13 4.238C227.426 4.48733 226.876 4.84667 226.48 5.316C226.084 5.78533 225.886 6.36467 225.886 7.054C225.886 7.714 226.084 8.286 226.48 8.77C226.876 9.23933 227.426 9.606 228.13 9.87C228.849 10.1193 229.678 10.244 230.616 10.244C231.57 10.244 232.398 10.1193 233.102 9.87C233.821 9.606 234.371 9.23933 234.752 8.77C235.148 8.286 235.346 7.714 235.346 7.054C235.346 6.36467 235.148 5.78533 234.752 5.316C234.371 4.84667 233.821 4.48733 233.102 4.238C232.398 3.974 231.57 3.842 230.616 3.842ZM246.68 3L246.32 14.1016H243.109L242.75 3H246.68ZM244.711 19.2266C244.154 19.2266 243.674 19.0286 243.273 18.6328C242.878 18.237 242.68 17.7578 242.68 17.1953C242.68 16.6432 242.878 16.1719 243.273 15.7812C243.674 15.3854 244.154 15.1875 244.711 15.1875C245.247 15.1875 245.719 15.3854 246.125 15.7812C246.536 16.1719 246.742 16.6432 246.742 17.1953C246.742 17.5703 246.646 17.9115 246.453 18.2188C246.266 18.526 246.018 18.7708 245.711 18.9531C245.409 19.1354 245.075 19.2266 244.711 19.2266ZM0.902 44.272H19.36V46.648H0.902V44.272ZM8.668 40.334H11.572V45.482H8.668V40.334ZM8.646 32.81H11.22V33.25C11.22 34.2327 11.0293 35.1567 10.648 36.022C10.2667 36.8727 9.702 37.6427 8.954 38.332C8.22067 39.0213 7.31867 39.6007 6.248 40.07C5.17733 40.5393 3.938 40.862 2.53 41.038L1.474 38.706C2.72067 38.5593 3.79133 38.31 4.686 37.958C5.59533 37.5913 6.336 37.1513 6.908 36.638C7.49467 36.1247 7.92733 35.582 8.206 35.01C8.49933 34.4233 8.646 33.8367 8.646 33.25V32.81ZM9.02 32.81H11.594V33.25C11.594 33.8367 11.7333 34.4233 12.012 35.01C12.3053 35.582 12.738 36.1247 13.31 36.638C13.8967 37.1513 14.6447 37.5913 15.554 37.958C16.4633 38.31 17.534 38.5593 18.766 38.706L17.71 41.038C16.302 40.862 15.0627 40.5393 13.992 40.07C12.9213 39.6007 12.012 39.0213 11.264 38.332C10.5307 37.6427 9.97333 36.8727 9.592 36.022C9.21067 35.1567 9.02 34.2327 9.02 33.25V32.81ZM2.464 31.336H17.754V33.668H2.464V31.336ZM8.668 28.85H11.572V32.282H8.668V28.85ZM35.3963 28.564H38.3223V48.936H35.3963V28.564ZM29.3903 30.676H32.2723C32.2723 32.2307 32.1183 33.7193 31.8103 35.142C31.5169 36.55 31.0183 37.8773 30.3143 39.124C29.6249 40.3707 28.6716 41.5293 27.4543 42.6C26.2516 43.656 24.7483 44.624 22.9443 45.504L21.4043 43.194C23.3696 42.2407 24.9316 41.192 26.0903 40.048C27.2636 38.8893 28.1069 37.584 28.6203 36.132C29.1336 34.6653 29.3903 33.0227 29.3903 31.204V30.676ZM22.5043 30.676H30.7543V33.008H22.5043V30.676ZM57.1491 31.556H62.1651V33.888H57.1491V31.556ZM60.8671 28.586H63.8151V38.926H60.8671V28.586ZM50.3511 39.762H63.8151V45.262H53.2771V47.814H50.3731V43.15H60.9111V42.028H50.3511V39.762ZM50.3731 46.45H64.3871V48.738H50.3731V46.45ZM51.4071 29.224H53.7831V30.698C53.7831 31.9593 53.5778 33.1547 53.1671 34.284C52.7711 35.4133 52.1551 36.396 51.3191 37.232C50.4831 38.0533 49.4125 38.6693 48.1071 39.08L46.6111 36.792C47.7405 36.44 48.6571 35.956 49.3611 35.34C50.0651 34.7093 50.5785 33.9907 50.9011 33.184C51.2385 32.3773 51.4071 31.5487 51.4071 30.698V29.224ZM52.0011 29.224H54.3551V30.698C54.3551 31.2847 54.4431 31.8713 54.6191 32.458C54.8098 33.0447 55.0885 33.5947 55.4551 34.108C55.8218 34.6213 56.2911 35.076 56.8631 35.472C57.4498 35.868 58.1391 36.1907 58.9311 36.44L57.4351 38.684C56.2031 38.288 55.1838 37.694 54.3771 36.902C53.5705 36.11 52.9691 35.1787 52.5731 34.108C52.1918 33.0373 52.0011 31.9007 52.0011 30.698V29.224ZM78.2674 33.492H82.1394V35.868H78.2674V33.492ZM81.3254 28.586H84.2734V40.686H81.3254V28.586ZM77.3654 41.126C78.8027 41.126 80.0421 41.28 81.0834 41.588C82.1247 41.896 82.9241 42.3433 83.4814 42.93C84.0534 43.5167 84.3394 44.2207 84.3394 45.042C84.3394 46.3033 83.7161 47.2713 82.4694 47.946C81.2227 48.6353 79.5214 48.98 77.3654 48.98C75.2094 48.98 73.5081 48.6353 72.2614 47.946C71.0147 47.2713 70.3914 46.3033 70.3914 45.042C70.3914 44.2207 70.6701 43.5167 71.2274 42.93C71.7994 42.3433 72.6061 41.896 73.6474 41.588C74.6887 41.28 75.9281 41.126 77.3654 41.126ZM77.3654 43.348C76.4854 43.348 75.7447 43.414 75.1434 43.546C74.5421 43.6633 74.0801 43.8467 73.7574 44.096C73.4494 44.3453 73.2954 44.6607 73.2954 45.042C73.2954 45.4233 73.4494 45.746 73.7574 46.01C74.0801 46.2593 74.5421 46.45 75.1434 46.582C75.7447 46.6993 76.4854 46.758 77.3654 46.758C78.2454 46.758 78.9861 46.6993 79.5874 46.582C80.1887 46.45 80.6434 46.2593 80.9514 46.01C81.2594 45.746 81.4134 45.4233 81.4134 45.042C81.4134 44.6607 81.2594 44.3453 80.9514 44.096C80.6434 43.8467 80.1887 43.6633 79.5874 43.546C78.9861 43.414 78.2454 43.348 77.3654 43.348ZM71.9314 30.61H74.3074V31.908C74.3074 33.1987 74.1021 34.4307 73.6914 35.604C73.2807 36.7773 72.6501 37.8113 71.7994 38.706C70.9634 39.586 69.8927 40.246 68.5874 40.686L67.1134 38.376C67.9494 38.0973 68.6681 37.7233 69.2694 37.254C69.8854 36.7847 70.3841 36.264 70.7654 35.692C71.1614 35.1053 71.4547 34.4893 71.6454 33.844C71.8361 33.1987 71.9314 32.5533 71.9314 31.908V30.61ZM72.5474 30.61H74.8794V31.886C74.8794 32.6927 75.0407 33.4847 75.3634 34.262C75.6861 35.0393 76.1847 35.7433 76.8594 36.374C77.5487 37.0047 78.4287 37.5033 79.4994 37.87L78.0694 40.158C76.8081 39.7327 75.7667 39.1093 74.9454 38.288C74.1387 37.452 73.5374 36.484 73.1414 35.384C72.7454 34.2693 72.5474 33.1033 72.5474 31.886V30.61ZM67.9054 29.818H78.8614V32.128H67.9054V29.818ZM96.8997 28.85C99.217 28.85 101.021 29.1507 102.312 29.752C103.617 30.3533 104.27 31.2187 104.27 32.348C104.27 33.4627 103.617 34.3207 102.312 34.922C101.021 35.5233 99.217 35.824 96.8997 35.824C94.5677 35.824 92.749 35.5233 91.4437 34.922C90.153 34.3207 89.5077 33.4627 89.5077 32.348C89.5077 31.2187 90.153 30.3533 91.4437 29.752C92.749 29.1507 94.5677 28.85 96.8997 28.85ZM96.8777 31.006C95.9097 31.006 95.103 31.0573 94.4577 31.16C93.8124 31.248 93.3284 31.3947 93.0057 31.6C92.6977 31.7907 92.5437 32.04 92.5437 32.348C92.5437 32.656 92.6977 32.9127 93.0057 33.118C93.3284 33.3087 93.8124 33.448 94.4577 33.536C95.103 33.624 95.9097 33.668 96.8777 33.668C97.8604 33.668 98.6744 33.624 99.3197 33.536C99.965 33.448 100.442 33.3087 100.75 33.118C101.058 32.9127 101.212 32.656 101.212 32.348C101.212 32.04 101.058 31.7907 100.75 31.6C100.442 31.3947 99.965 31.248 99.3197 31.16C98.6744 31.0573 97.8604 31.006 96.8777 31.006ZM87.6597 36.77H106.096V39.08H87.6597V36.77ZM89.7717 40.224H103.852V45.438H92.6977V47.242H89.7937V43.414H100.97V42.38H89.7717V40.224ZM89.7937 46.604H104.402V48.826H89.7937V46.604ZM118.015 30.852H120.435V32.568C120.435 33.844 120.222 35.0613 119.797 36.22C119.386 37.364 118.755 38.3687 117.905 39.234C117.054 40.0847 115.969 40.7227 114.649 41.148L113.153 38.86C114.297 38.4933 115.221 37.98 115.925 37.32C116.643 36.66 117.171 35.9193 117.509 35.098C117.846 34.262 118.015 33.4187 118.015 32.568V30.852ZM118.631 30.852H121.007V32.568C121.007 33.1693 121.102 33.7707 121.293 34.372C121.483 34.9587 121.769 35.5233 122.151 36.066C122.547 36.594 123.045 37.0707 123.647 37.496C124.248 37.9213 124.959 38.266 125.781 38.53L124.307 40.796C123.031 40.3853 121.975 39.7693 121.139 38.948C120.303 38.1267 119.672 37.166 119.247 36.066C118.836 34.9513 118.631 33.7853 118.631 32.568V30.852ZM113.945 30.016H125.033V32.348H113.945V30.016ZM127.079 28.586H130.005V43.282H127.079V28.586ZM116.431 46.252H130.533V48.606H116.431V46.252ZM116.431 41.962H119.357V47.418H116.431V41.962ZM148.109 28.586H150.903V41.346H148.109V28.586ZM145.645 33.602H148.879V35.978H145.645V33.602ZM143.907 28.96H146.635V40.664H143.907V28.96ZM133.435 30.654H143.335V32.92H133.435V30.654ZM138.407 33.558C139.272 33.558 140.035 33.712 140.695 34.02C141.355 34.328 141.868 34.746 142.235 35.274C142.616 35.802 142.807 36.418 142.807 37.122C142.807 37.826 142.616 38.4493 142.235 38.992C141.868 39.52 141.355 39.938 140.695 40.246C140.035 40.5393 139.272 40.686 138.407 40.686C137.571 40.686 136.815 40.5393 136.141 40.246C135.481 39.938 134.96 39.52 134.579 38.992C134.197 38.4493 134.007 37.826 134.007 37.122C134.007 36.418 134.197 35.802 134.579 35.274C134.96 34.746 135.481 34.328 136.141 34.02C136.815 33.712 137.571 33.558 138.407 33.558ZM138.407 35.67C137.879 35.67 137.446 35.7947 137.109 36.044C136.786 36.2933 136.625 36.6527 136.625 37.122C136.625 37.5913 136.786 37.958 137.109 38.222C137.446 38.4713 137.879 38.596 138.407 38.596C138.935 38.596 139.367 38.4713 139.705 38.222C140.042 37.958 140.211 37.5913 140.211 37.122C140.211 36.6527 140.042 36.2933 139.705 36.044C139.382 35.7947 138.949 35.67 138.407 35.67ZM136.955 28.784H139.837V32.216H136.955V28.784ZM143.995 41.544C146.18 41.544 147.896 41.8667 149.143 42.512C150.389 43.1573 151.013 44.074 151.013 45.262C151.013 46.4353 150.389 47.3447 149.143 47.99C147.896 48.6353 146.18 48.958 143.995 48.958C141.809 48.958 140.093 48.6353 138.847 47.99C137.615 47.3447 136.999 46.4353 136.999 45.262C136.999 44.074 137.615 43.1573 138.847 42.512C140.093 41.8667 141.809 41.544 143.995 41.544ZM144.017 43.722C142.653 43.722 141.626 43.8467 140.937 44.096C140.247 44.3453 139.903 44.734 139.903 45.262C139.903 45.7753 140.247 46.1567 140.937 46.406C141.626 46.6553 142.653 46.78 144.017 46.78C145.351 46.78 146.356 46.6553 147.031 46.406C147.72 46.1567 148.065 45.7753 148.065 45.262C148.065 44.734 147.72 44.3453 147.031 44.096C146.356 43.8467 145.351 43.722 144.017 43.722ZM167.093 28.564H170.019V39.564H167.093V28.564ZM168.875 32.898H172.725V35.274H168.875V32.898ZM156.577 40.378H170.019V45.548H159.503V47.374H156.599V43.546H167.137V42.49H156.577V40.378ZM156.599 46.67H170.613V48.826H156.599V46.67ZM154.003 30.082H165.971V32.26H154.003V30.082ZM159.987 32.744C161.512 32.744 162.73 33.0447 163.639 33.646C164.548 34.2473 165.003 35.0613 165.003 36.088C165.003 37.1147 164.548 37.9287 163.639 38.53C162.73 39.1167 161.512 39.41 159.987 39.41C158.476 39.41 157.259 39.1167 156.335 38.53C155.426 37.9287 154.971 37.1147 154.971 36.088C154.971 35.0613 155.426 34.2473 156.335 33.646C157.259 33.0447 158.476 32.744 159.987 32.744ZM159.987 34.812C159.312 34.812 158.777 34.922 158.381 35.142C157.985 35.3473 157.787 35.6627 157.787 36.088C157.787 36.5133 157.985 36.8287 158.381 37.034C158.777 37.2393 159.312 37.342 159.987 37.342C160.676 37.342 161.212 37.2393 161.593 37.034C161.989 36.8287 162.187 36.5133 162.187 36.088C162.187 35.6627 161.989 35.3473 161.593 35.142C161.212 34.922 160.676 34.812 159.987 34.812ZM158.535 28.432H161.439V31.622H158.535V28.432ZM189.201 28.564H191.995V48.936H189.201V28.564ZM181.149 36.374H185.483V38.706H181.149V36.374ZM184.911 29.004H187.639V48.034H184.911V29.004ZM180.489 30.962H183.305C183.305 32.898 183.078 34.702 182.623 36.374C182.169 38.046 181.399 39.5787 180.313 40.972C179.243 42.3653 177.754 43.612 175.847 44.712L174.197 42.666C175.737 41.742 176.962 40.7373 177.871 39.652C178.795 38.552 179.463 37.342 179.873 36.022C180.284 34.6873 180.489 33.1987 180.489 31.556V30.962ZM175.319 30.962H181.391V33.316H175.319V30.962ZM198.968 38.926H201.894V44.624H198.968V38.926ZM206.36 38.926H209.286V44.624H206.36V38.926ZM194.92 44.206H213.378V46.582H194.92V44.206ZM204.116 29.576C205.582 29.576 206.888 29.8033 208.032 30.258C209.19 30.7127 210.092 31.3507 210.738 32.172C211.398 32.9787 211.728 33.9393 211.728 35.054C211.728 36.154 211.398 37.1147 210.738 37.936C210.092 38.7427 209.19 39.3733 208.032 39.828C206.888 40.2827 205.582 40.51 204.116 40.51C202.664 40.51 201.358 40.2827 200.2 39.828C199.056 39.3733 198.154 38.7427 197.494 37.936C196.834 37.1147 196.504 36.154 196.504 35.054C196.504 33.9393 196.834 32.9787 197.494 32.172C198.154 31.3507 199.056 30.7127 200.2 30.258C201.358 29.8033 202.664 29.576 204.116 29.576ZM204.116 31.842C203.177 31.842 202.348 31.974 201.63 32.238C200.926 32.4873 200.376 32.8467 199.98 33.316C199.584 33.7853 199.386 34.3647 199.386 35.054C199.386 35.714 199.584 36.286 199.98 36.77C200.376 37.2393 200.926 37.606 201.63 37.87C202.348 38.1193 203.177 38.244 204.116 38.244C205.069 38.244 205.898 38.1193 206.602 37.87C207.32 37.606 207.87 37.2393 208.252 36.77C208.648 36.286 208.846 35.714 208.846 35.054C208.846 34.3647 208.648 33.7853 208.252 33.316C207.87 32.8467 207.32 32.4873 206.602 32.238C205.898 31.974 205.069 31.842 204.116 31.842ZM217.835 47.2266C217.273 47.2266 216.791 47.0286 216.39 46.6328C215.994 46.237 215.799 45.7578 215.804 45.1953C215.799 44.6432 215.994 44.1719 216.39 43.7812C216.791 43.3854 217.273 43.1875 217.835 43.1875C218.367 43.1875 218.835 43.3854 219.242 43.7812C219.653 44.1719 219.861 44.6432 219.867 45.1953C219.861 45.5703 219.762 45.9115 219.57 46.2188C219.382 46.526 219.135 46.7708 218.827 46.9531C218.525 47.1354 218.195 47.2266 217.835 47.2266Z" fill="#123524"/>
</svg>
