<svg width="281" height="89" viewBox="0 0 281 89" fill="none" xmlns="http://www.w3.org/2000/svg">
<rect width="281" height="68" rx="16" fill="#FDF2D4"/>
<path d="M44.6506 30H43.358L47.0966 19.8182H48.3693L52.108 30H50.8153L47.7727 21.429H47.6932L44.6506 30ZM45.1278 26.0227H50.3381V27.1165H45.1278V26.0227ZM55.1368 19.8182V30H53.9039V19.8182H55.1368ZM65.854 18.422H67.016V31.078H65.854V18.422ZM66.708 23.56H69.032V24.526H66.708V23.56ZM62.62 19.78H63.754C63.754 20.984 63.558 22.1367 63.166 23.238C62.774 24.33 62.158 25.3427 61.318 26.276C60.478 27.2 59.372 28.0027 58 28.684L57.356 27.788C58.532 27.2 59.5073 26.514 60.282 25.73C61.066 24.9367 61.6493 24.0593 62.032 23.098C62.424 22.1273 62.62 21.082 62.62 19.962V19.78ZM57.944 19.78H63.208V20.746H57.944V19.78ZM83.1884 18.422H84.3644V25.954H83.1884V18.422ZM84.0284 21.712H86.2124V22.678H84.0284V21.712ZM80.3184 26.22C81.1678 26.22 81.9004 26.318 82.5164 26.514C83.1418 26.7007 83.6224 26.976 83.9584 27.34C84.3038 27.6947 84.4764 28.1287 84.4764 28.642C84.4764 29.146 84.3038 29.58 83.9584 29.944C83.6224 30.308 83.1418 30.5833 82.5164 30.77C81.9004 30.966 81.1678 31.064 80.3184 31.064C79.4598 31.064 78.7178 30.966 78.0924 30.77C77.4671 30.5833 76.9864 30.308 76.6504 29.944C76.3144 29.58 76.1464 29.146 76.1464 28.642C76.1464 28.1287 76.3144 27.6947 76.6504 27.34C76.9864 26.976 77.4671 26.7007 78.0924 26.514C78.7178 26.318 79.4598 26.22 80.3184 26.22ZM80.3184 27.158C79.6931 27.158 79.1518 27.2187 78.6944 27.34C78.2464 27.452 77.8964 27.62 77.6444 27.844C77.4018 28.0587 77.2804 28.3247 77.2804 28.642C77.2804 28.95 77.4018 29.216 77.6444 29.44C77.8964 29.664 78.2464 29.8367 78.6944 29.958C79.1518 30.07 79.6931 30.126 80.3184 30.126C80.9344 30.126 81.4711 30.07 81.9284 29.958C82.3858 29.8367 82.7358 29.664 82.9784 29.44C83.2211 29.216 83.3424 28.95 83.3424 28.642C83.3424 28.3247 83.2211 28.0587 82.9784 27.844C82.7358 27.62 82.3858 27.452 81.9284 27.34C81.4711 27.2187 80.9344 27.158 80.3184 27.158ZM75.0824 23.994H76.0624C76.9491 23.994 77.7191 23.9847 78.3724 23.966C79.0258 23.9473 79.6278 23.9053 80.1784 23.84C80.7291 23.7747 81.2891 23.686 81.8584 23.574L81.9844 24.526C81.4058 24.638 80.8318 24.7267 80.2624 24.792C79.7024 24.848 79.0864 24.89 78.4144 24.918C77.7424 24.9367 76.9584 24.946 76.0624 24.946H75.0824V23.994ZM75.0824 19.388H80.6684V20.34H76.2304V24.624H75.0824V19.388ZM96.8233 18.436H97.9853V27.718H96.8233V18.436ZM89.8513 29.86H98.3773V30.812H89.8513V29.86ZM89.8513 26.864H91.0133V30.308H89.8513V26.864ZM90.9013 19.136H91.8673V20.41C91.8673 21.2407 91.7227 22.02 91.4333 22.748C91.144 23.4667 90.7333 24.1013 90.2013 24.652C89.6787 25.1933 89.0627 25.6087 88.3533 25.898L87.7373 24.974C88.3813 24.722 88.9367 24.3627 89.4033 23.896C89.8793 23.4293 90.248 22.8973 90.5093 22.3C90.7707 21.6933 90.9013 21.0633 90.9013 20.41V19.136ZM91.1113 19.136H92.0773V20.41C92.0773 20.886 92.152 21.348 92.3013 21.796C92.4507 22.2347 92.6653 22.6453 92.9453 23.028C93.2253 23.4107 93.5567 23.7513 93.9393 24.05C94.3313 24.3393 94.7607 24.568 95.2273 24.736L94.6253 25.66C93.9253 25.3893 93.3093 24.9973 92.7773 24.484C92.2547 23.9613 91.844 23.3547 91.5453 22.664C91.256 21.964 91.1113 21.2127 91.1113 20.41V19.136ZM104.802 19.346C105.465 19.346 106.048 19.472 106.552 19.724C107.066 19.9667 107.467 20.312 107.756 20.76C108.046 21.208 108.19 21.7307 108.19 22.328C108.19 22.916 108.046 23.4387 107.756 23.896C107.467 24.344 107.066 24.694 106.552 24.946C106.048 25.1887 105.465 25.31 104.802 25.31C104.149 25.31 103.566 25.1887 103.052 24.946C102.539 24.694 102.133 24.344 101.834 23.896C101.545 23.4387 101.4 22.916 101.4 22.328C101.4 21.7307 101.545 21.208 101.834 20.76C102.133 20.312 102.539 19.9667 103.052 19.724C103.566 19.472 104.149 19.346 104.802 19.346ZM104.802 20.354C104.373 20.354 103.986 20.438 103.64 20.606C103.304 20.7647 103.038 20.9933 102.842 21.292C102.646 21.5907 102.548 21.936 102.548 22.328C102.548 22.72 102.646 23.0653 102.842 23.364C103.038 23.6627 103.304 23.896 103.64 24.064C103.986 24.2227 104.373 24.302 104.802 24.302C105.241 24.302 105.628 24.2227 105.964 24.064C106.3 23.896 106.566 23.6627 106.762 23.364C106.958 23.0653 107.056 22.72 107.056 22.328C107.056 21.936 106.958 21.5907 106.762 21.292C106.566 20.9933 106.3 20.7647 105.964 20.606C105.628 20.438 105.241 20.354 104.802 20.354ZM109.856 18.422H111.018V31.106H109.856V18.422ZM100.924 28.334L100.77 27.354C101.545 27.354 102.394 27.3493 103.318 27.34C104.242 27.3213 105.194 27.284 106.174 27.228C107.164 27.1627 108.116 27.06 109.03 26.92L109.128 27.774C108.176 27.9513 107.21 28.082 106.23 28.166C105.26 28.2407 104.322 28.2873 103.416 28.306C102.511 28.3247 101.68 28.334 100.924 28.334ZM121.535 20.634H122.487V20.816C122.487 21.432 122.342 22.0013 122.053 22.524C121.763 23.0373 121.357 23.476 120.835 23.84C120.312 24.204 119.696 24.4747 118.987 24.652L118.497 23.742C119.103 23.5927 119.635 23.378 120.093 23.098C120.55 22.8087 120.905 22.468 121.157 22.076C121.409 21.684 121.535 21.264 121.535 20.816V20.634ZM121.745 20.634H122.697V20.816C122.697 21.236 122.823 21.6327 123.075 22.006C123.327 22.37 123.677 22.6873 124.125 22.958C124.582 23.2287 125.109 23.434 125.707 23.574L125.231 24.484C124.531 24.3067 123.919 24.0453 123.397 23.7C122.874 23.3453 122.468 22.9253 122.179 22.44C121.889 21.9453 121.745 21.404 121.745 20.816V20.634ZM118.763 19.864H125.469V20.774H118.763V19.864ZM121.535 18.45H122.697V20.48H121.535V18.45ZM121.563 25.674H122.725V30.714H121.563V25.674ZM127.163 18.436H128.311V31.092H127.163V18.436ZM118.063 26.514L117.909 25.534C118.711 25.534 119.584 25.5293 120.527 25.52C121.469 25.5013 122.431 25.464 123.411 25.408C124.391 25.352 125.338 25.2633 126.253 25.142L126.337 25.996C125.394 26.1547 124.433 26.2713 123.453 26.346C122.482 26.4207 121.535 26.4673 120.611 26.486C119.696 26.5047 118.847 26.514 118.063 26.514ZM140.504 20.606H142.688V21.572H140.504V20.606ZM140.504 23.308H142.688V24.274H140.504V23.308ZM139.692 18.422H140.854V26.584H139.692V18.422ZM136.878 26.682C137.727 26.682 138.46 26.7707 139.076 26.948C139.692 27.116 140.163 27.3633 140.49 27.69C140.826 28.0167 140.994 28.4133 140.994 28.88C140.994 29.3373 140.826 29.7293 140.49 30.056C140.163 30.3827 139.692 30.63 139.076 30.798C138.46 30.9753 137.727 31.064 136.878 31.064C136.019 31.064 135.282 30.9753 134.666 30.798C134.059 30.63 133.588 30.3827 133.252 30.056C132.916 29.7293 132.748 29.3373 132.748 28.88C132.748 28.4133 132.916 28.0167 133.252 27.69C133.588 27.3633 134.059 27.116 134.666 26.948C135.282 26.7707 136.019 26.682 136.878 26.682ZM136.878 27.592C135.944 27.592 135.212 27.704 134.68 27.928C134.157 28.152 133.896 28.4693 133.896 28.88C133.896 29.2907 134.157 29.608 134.68 29.832C135.212 30.056 135.944 30.168 136.878 30.168C137.802 30.168 138.525 30.056 139.048 29.832C139.58 29.608 139.846 29.2907 139.846 28.88C139.846 28.4693 139.58 28.152 139.048 27.928C138.525 27.704 137.802 27.592 136.878 27.592ZM131.054 19.85H138.53V20.774H131.054V19.85ZM134.792 21.418C135.398 21.418 135.926 21.5113 136.374 21.698C136.831 21.8847 137.186 22.146 137.438 22.482C137.69 22.8087 137.816 23.2007 137.816 23.658C137.816 24.106 137.69 24.498 137.438 24.834C137.186 25.17 136.831 25.4313 136.374 25.618C135.926 25.7953 135.398 25.884 134.792 25.884C134.185 25.884 133.653 25.7953 133.196 25.618C132.748 25.4313 132.393 25.17 132.132 24.834C131.88 24.498 131.754 24.106 131.754 23.658C131.754 23.2007 131.88 22.8087 132.132 22.482C132.393 22.146 132.748 21.8847 133.196 21.698C133.653 21.5113 134.185 21.418 134.792 21.418ZM134.792 22.3C134.213 22.3 133.746 22.426 133.392 22.678C133.046 22.9207 132.874 23.2473 132.874 23.658C132.874 24.0687 133.046 24.3953 133.392 24.638C133.746 24.8807 134.213 25.002 134.792 25.002C135.361 25.002 135.823 24.8807 136.178 24.638C136.532 24.3953 136.71 24.0687 136.71 23.658C136.71 23.2473 136.532 22.9207 136.178 22.678C135.823 22.426 135.361 22.3 134.792 22.3ZM134.218 18.324H135.38V20.368H134.218V18.324ZM149.252 23.35H151.632V24.302H149.252V23.35ZM153.76 18.422H154.88V31.092H153.76V18.422ZM151.24 18.688H152.346V30.448H151.24V18.688ZM146.956 19.486C147.507 19.486 147.983 19.6633 148.384 20.018C148.795 20.3727 149.112 20.8813 149.336 21.544C149.56 22.2067 149.672 22.986 149.672 23.882C149.672 24.7873 149.56 25.5713 149.336 26.234C149.112 26.8967 148.795 27.41 148.384 27.774C147.983 28.1287 147.507 28.306 146.956 28.306C146.424 28.306 145.953 28.1287 145.542 27.774C145.141 27.41 144.828 26.8967 144.604 26.234C144.38 25.5713 144.268 24.7873 144.268 23.882C144.268 22.986 144.38 22.2067 144.604 21.544C144.828 20.8813 145.141 20.3727 145.542 20.018C145.953 19.6633 146.424 19.486 146.956 19.486ZM146.956 20.564C146.63 20.564 146.345 20.6993 146.102 20.97C145.86 21.2407 145.673 21.6233 145.542 22.118C145.412 22.6127 145.346 23.2007 145.346 23.882C145.346 24.5633 145.412 25.156 145.542 25.66C145.673 26.1547 145.86 26.5373 146.102 26.808C146.345 27.0787 146.63 27.214 146.956 27.214C147.292 27.214 147.582 27.0787 147.824 26.808C148.076 26.5373 148.268 26.1547 148.398 25.66C148.529 25.156 148.594 24.5633 148.594 23.882C148.594 23.2007 148.529 22.6127 148.398 22.118C148.268 21.6233 148.076 21.2407 147.824 20.97C147.582 20.6993 147.292 20.564 146.956 20.564ZM161.869 19.29H167.693V24.708H161.869V19.29ZM166.559 20.228H163.003V23.77H166.559V20.228ZM170.017 18.422H171.179V25.646H170.017V18.422ZM170.857 21.46H173.041V22.426H170.857V21.46ZM166.643 26.822H167.623V27.158C167.623 27.6527 167.502 28.1147 167.259 28.544C167.026 28.9733 166.694 29.356 166.265 29.692C165.845 30.028 165.36 30.308 164.809 30.532C164.258 30.7653 163.67 30.9333 163.045 31.036L162.611 30.14C163.152 30.0653 163.666 29.9347 164.151 29.748C164.636 29.5613 165.066 29.3373 165.439 29.076C165.812 28.8053 166.106 28.5067 166.321 28.18C166.536 27.8533 166.643 27.5127 166.643 27.158V26.822ZM166.853 26.822H167.847V27.158C167.847 27.5127 167.954 27.8487 168.169 28.166C168.393 28.4833 168.692 28.7773 169.065 29.048C169.438 29.3187 169.863 29.552 170.339 29.748C170.824 29.9347 171.338 30.07 171.879 30.154L171.445 31.05C170.82 30.938 170.232 30.7653 169.681 30.532C169.13 30.308 168.64 30.028 168.211 29.692C167.791 29.3467 167.46 28.9593 167.217 28.53C166.974 28.1007 166.853 27.6433 166.853 27.158V26.822ZM163.101 26.388H171.389V27.326H163.101V26.388ZM175.98 22.23H184.59V23.168H175.98V22.23ZM174.426 24.862H185.906V25.814H174.426V24.862ZM175.98 18.884H177.128V22.706H175.98V18.884ZM175.896 29.832H184.66V30.784H175.896V29.832ZM175.896 27.088H177.058V30.084H175.896V27.088ZM52.366 36.436H53.528V45.928H52.366V36.436ZM53.164 40.594H55.39V41.56H53.164V40.594ZM43.728 37.976H51.204V38.914H43.728V37.976ZM47.466 39.6C48.0633 39.6 48.5907 39.7027 49.048 39.908C49.5053 40.104 49.86 40.3793 50.112 40.734C50.364 41.0793 50.49 41.49 50.49 41.966C50.49 42.442 50.364 42.8573 50.112 43.212C49.86 43.5573 49.5053 43.828 49.048 44.024C48.5907 44.22 48.0633 44.318 47.466 44.318C46.8687 44.318 46.3413 44.22 45.884 44.024C45.4267 43.828 45.0673 43.5573 44.806 43.212C44.554 42.8573 44.428 42.442 44.428 41.966C44.428 41.49 44.554 41.0793 44.806 40.734C45.0673 40.3793 45.4267 40.104 45.884 39.908C46.3413 39.7027 46.8687 39.6 47.466 39.6ZM47.466 40.51C46.8967 40.51 46.4347 40.6453 46.08 40.916C45.7253 41.1773 45.548 41.5273 45.548 41.966C45.548 42.4047 45.7253 42.7547 46.08 43.016C46.4347 43.2773 46.8967 43.408 47.466 43.408C48.0447 43.408 48.5067 43.2773 48.852 43.016C49.2067 42.7547 49.384 42.4047 49.384 41.966C49.384 41.5273 49.2067 41.1773 48.852 40.916C48.5067 40.6453 48.0447 40.51 47.466 40.51ZM46.892 36.436H48.054V38.452H46.892V36.436ZM45.646 47.86H54.088V48.812H45.646V47.86ZM45.646 45.172H46.794V48.252H45.646V45.172ZM60.0089 37.71H60.9609V38.746C60.9609 39.5113 60.8116 40.23 60.5129 40.902C60.2236 41.574 59.8129 42.162 59.2809 42.666C58.7489 43.1607 58.1329 43.5387 57.4329 43.8L56.8309 42.876C57.2976 42.708 57.7222 42.484 58.1049 42.204C58.4969 41.924 58.8376 41.602 59.1269 41.238C59.4162 40.8647 59.6356 40.468 59.7849 40.048C59.9342 39.6187 60.0089 39.1847 60.0089 38.746V37.71ZM60.2329 37.71H61.1849V38.732C61.1849 39.2733 61.3109 39.8007 61.5629 40.314C61.8149 40.818 62.1742 41.2707 62.6409 41.672C63.1076 42.064 63.6442 42.372 64.2509 42.596L63.6629 43.506C62.9722 43.254 62.3702 42.89 61.8569 42.414C61.3436 41.938 60.9422 41.3827 60.6529 40.748C60.3729 40.1133 60.2329 39.4413 60.2329 38.732V37.71ZM63.5649 39.726H66.3789V40.692H63.5649V39.726ZM57.1949 37.29H63.9569V38.242H57.1949V37.29ZM58.7489 44.682H67.2049V49.092H66.0429V45.634H58.7489V44.682ZM66.0429 36.422H67.2049V43.996H66.0429V36.422ZM78.5438 36.436H79.7058V45.928H78.5438V36.436ZM79.3418 40.594H81.5678V41.56H79.3418V40.594ZM69.9058 37.976H77.3818V38.914H69.9058V37.976ZM73.6438 39.6C74.2411 39.6 74.7685 39.7027 75.2258 39.908C75.6831 40.104 76.0378 40.3793 76.2898 40.734C76.5418 41.0793 76.6678 41.49 76.6678 41.966C76.6678 42.442 76.5418 42.8573 76.2898 43.212C76.0378 43.5573 75.6831 43.828 75.2258 44.024C74.7685 44.22 74.2411 44.318 73.6438 44.318C73.0465 44.318 72.5191 44.22 72.0618 44.024C71.6045 43.828 71.2451 43.5573 70.9838 43.212C70.7318 42.8573 70.6058 42.442 70.6058 41.966C70.6058 41.49 70.7318 41.0793 70.9838 40.734C71.2451 40.3793 71.6045 40.104 72.0618 39.908C72.5191 39.7027 73.0465 39.6 73.6438 39.6ZM73.6438 40.51C73.0745 40.51 72.6125 40.6453 72.2578 40.916C71.9031 41.1773 71.7258 41.5273 71.7258 41.966C71.7258 42.4047 71.9031 42.7547 72.2578 43.016C72.6125 43.2773 73.0745 43.408 73.6438 43.408C74.2225 43.408 74.6845 43.2773 75.0298 43.016C75.3845 42.7547 75.5618 42.4047 75.5618 41.966C75.5618 41.5273 75.3845 41.1773 75.0298 40.916C74.6845 40.6453 74.2225 40.51 73.6438 40.51ZM73.0698 36.436H74.2318V38.452H73.0698V36.436ZM71.8238 47.86H80.2658V48.812H71.8238V47.86ZM71.8238 45.172H72.9718V48.252H71.8238V45.172ZM92.8122 39.25H96.6482V40.202H92.8122V39.25ZM92.8122 43.254H96.6482V44.206H92.8122V43.254ZM90.4882 37.402C91.1042 37.402 91.6502 37.584 92.1262 37.948C92.6022 38.3027 92.9709 38.8113 93.2322 39.474C93.5029 40.1367 93.6382 40.916 93.6382 41.812C93.6382 42.708 93.5029 43.4873 93.2322 44.15C92.9709 44.8127 92.6022 45.326 92.1262 45.69C91.6502 46.054 91.1042 46.236 90.4882 46.236C89.8816 46.236 89.3356 46.054 88.8502 45.69C88.3742 45.326 88.0009 44.8127 87.7302 44.15C87.4689 43.4873 87.3382 42.708 87.3382 41.812C87.3382 40.916 87.4689 40.1367 87.7302 39.474C88.0009 38.8113 88.3742 38.3027 88.8502 37.948C89.3356 37.584 89.8816 37.402 90.4882 37.402ZM90.4882 38.438C90.0869 38.438 89.7322 38.578 89.4242 38.858C89.1162 39.1287 88.8736 39.5207 88.6962 40.034C88.5282 40.538 88.4442 41.1307 88.4442 41.812C88.4442 42.4933 88.5282 43.0907 88.6962 43.604C88.8736 44.108 89.1162 44.5 89.4242 44.78C89.7322 45.06 90.0869 45.2 90.4882 45.2C90.8989 45.2 91.2582 45.06 91.5662 44.78C91.8742 44.5 92.1122 44.108 92.2802 43.604C92.4576 43.0907 92.5462 42.4933 92.5462 41.812C92.5462 41.1307 92.4576 40.538 92.2802 40.034C92.1122 39.5207 91.8742 39.1287 91.5662 38.858C91.2582 38.578 90.8989 38.438 90.4882 38.438ZM96.3822 36.422H97.5302V49.106H96.3822V36.422ZM109.765 36.422H110.871V44.43H109.765V36.422ZM107.693 39.866H110.087V40.818H107.693V39.866ZM107.049 36.674H108.141V43.982H107.049V36.674ZM100.133 37.934H106.545V38.858H100.133V37.934ZM103.353 39.516C103.885 39.516 104.352 39.6047 104.753 39.782C105.164 39.9593 105.481 40.2113 105.705 40.538C105.938 40.8647 106.055 41.2473 106.055 41.686C106.055 42.1247 105.938 42.5073 105.705 42.834C105.481 43.1513 105.164 43.3987 104.753 43.576C104.352 43.7533 103.885 43.842 103.353 43.842C102.83 43.842 102.364 43.7533 101.953 43.576C101.542 43.3987 101.225 43.1513 101.001 42.834C100.777 42.5073 100.665 42.1247 100.665 41.686C100.665 41.2473 100.777 40.8647 101.001 40.538C101.225 40.2113 101.542 39.9593 101.953 39.782C102.364 39.6047 102.83 39.516 103.353 39.516ZM103.353 40.384C102.868 40.384 102.471 40.5007 102.163 40.734C101.855 40.9673 101.701 41.2847 101.701 41.686C101.701 42.078 101.85 42.3953 102.149 42.638C102.457 42.8713 102.858 42.988 103.353 42.988C103.848 42.988 104.244 42.8713 104.543 42.638C104.851 42.3953 105.005 42.078 105.005 41.686C105.005 41.2847 104.851 40.9673 104.543 40.734C104.244 40.5007 103.848 40.384 103.353 40.384ZM102.779 36.52H103.927V38.466H102.779V36.52ZM106.713 44.654C108.038 44.654 109.074 44.8453 109.821 45.228C110.568 45.6107 110.941 46.1567 110.941 46.866C110.941 47.566 110.568 48.1073 109.821 48.49C109.074 48.8727 108.038 49.064 106.713 49.064C105.388 49.064 104.352 48.8727 103.605 48.49C102.858 48.1073 102.485 47.566 102.485 46.866C102.485 46.1567 102.858 45.6107 103.605 45.228C104.352 44.8453 105.388 44.654 106.713 44.654ZM106.713 45.55C105.742 45.55 104.986 45.662 104.445 45.886C103.904 46.11 103.633 46.4367 103.633 46.866C103.633 47.286 103.904 47.608 104.445 47.832C104.986 48.056 105.742 48.168 106.713 48.168C107.674 48.168 108.426 48.056 108.967 47.832C109.508 47.608 109.779 47.286 109.779 46.866C109.779 46.4367 109.508 46.11 108.967 45.886C108.426 45.662 107.674 45.55 106.713 45.55ZM116.638 38.242H117.59V40.286C117.59 40.958 117.497 41.6207 117.31 42.274C117.123 42.918 116.862 43.5293 116.526 44.108C116.199 44.6773 115.817 45.1813 115.378 45.62C114.939 46.0587 114.468 46.404 113.964 46.656L113.292 45.732C113.749 45.508 114.179 45.2047 114.58 44.822C114.991 44.4393 115.35 44.0007 115.658 43.506C115.966 43.0113 116.204 42.4887 116.372 41.938C116.549 41.3873 116.638 40.8367 116.638 40.286V38.242ZM116.876 38.242H117.814V40.286C117.814 40.818 117.898 41.35 118.066 41.882C118.243 42.4047 118.486 42.8993 118.794 43.366C119.111 43.8233 119.471 44.2293 119.872 44.584C120.283 44.9387 120.721 45.2187 121.188 45.424L120.544 46.348C120.031 46.1053 119.55 45.7787 119.102 45.368C118.654 44.9573 118.262 44.486 117.926 43.954C117.599 43.4127 117.343 42.834 117.156 42.218C116.969 41.5927 116.876 40.9487 116.876 40.286V38.242ZM113.698 37.724H120.768V38.69H113.698V37.724ZM122.49 36.422H123.652V49.092H122.49V36.422ZM126.367 42.302H137.847V43.198H126.367V42.302ZM127.739 44.206H136.419V46.908H128.915V48.392H127.767V46.11H135.271V45.046H127.739V44.206ZM127.767 48.084H136.825V48.924H127.767V48.084ZM127.823 36.8H136.377V39.432H128.999V40.804H127.851V38.648H135.229V37.626H127.823V36.8ZM127.851 40.524H136.601V41.364H127.851V40.524ZM148.755 44.472H149.903V49.106H148.755V44.472ZM143.617 44.08H155.055V45.046H143.617V44.08ZM148.755 38.606H149.777V38.928C149.777 39.3573 149.689 39.768 149.511 40.16C149.334 40.5427 149.087 40.8973 148.769 41.224C148.452 41.5507 148.079 41.8447 147.649 42.106C147.229 42.358 146.772 42.5727 146.277 42.75C145.792 42.918 145.283 43.0393 144.751 43.114L144.331 42.19C144.789 42.1247 145.232 42.022 145.661 41.882C146.1 41.742 146.501 41.5693 146.865 41.364C147.239 41.1587 147.565 40.93 147.845 40.678C148.135 40.4167 148.359 40.1413 148.517 39.852C148.676 39.5533 148.755 39.2453 148.755 38.928V38.606ZM148.895 38.606H149.917V38.928C149.917 39.236 149.997 39.5393 150.155 39.838C150.314 40.1273 150.533 40.4027 150.813 40.664C151.093 40.916 151.415 41.1493 151.779 41.364C152.153 41.5693 152.554 41.742 152.983 41.882C153.422 42.022 153.87 42.1247 154.327 42.19L153.907 43.114C153.375 43.0393 152.862 42.918 152.367 42.75C151.882 42.5727 151.425 42.358 150.995 42.106C150.575 41.8447 150.207 41.5507 149.889 41.224C149.581 40.8973 149.339 40.5427 149.161 40.16C148.984 39.768 148.895 39.3573 148.895 38.928V38.606ZM144.723 37.99H153.949V38.928H144.723V37.99ZM148.755 36.422H149.903V38.312H148.755V36.422ZM159.87 38.816H160.822V39.446C160.822 40.202 160.678 40.9067 160.388 41.56C160.099 42.204 159.688 42.764 159.156 43.24C158.634 43.716 158.018 44.08 157.308 44.332L156.734 43.422C157.36 43.2167 157.906 42.9133 158.372 42.512C158.848 42.1107 159.217 41.6487 159.478 41.126C159.74 40.594 159.87 40.034 159.87 39.446V38.816ZM160.066 38.816H161.018V39.446C161.018 39.9967 161.149 40.524 161.41 41.028C161.681 41.5227 162.054 41.9567 162.53 42.33C163.006 42.7033 163.557 42.9927 164.182 43.198L163.608 44.108C162.908 43.8747 162.292 43.534 161.76 43.086C161.228 42.6287 160.813 42.092 160.514 41.476C160.216 40.8507 160.066 40.174 160.066 39.446V38.816ZM157.056 38.116H163.818V39.054H157.056V38.116ZM159.87 36.506H161.032V38.466H159.87V36.506ZM163.384 40.314H166.576V41.294H163.384V40.314ZM165.96 36.436H167.122V45.886H165.96V36.436ZM159.044 47.86H167.472V48.812H159.044V47.86ZM159.044 45.046H160.192V48.364H159.044V45.046ZM179.081 42.75H180.229V44.962H179.081V42.75ZM173.943 42.344H185.381V43.296H173.943V42.344ZM179.655 44.612C181.008 44.612 182.067 44.8033 182.833 45.186C183.598 45.5687 183.981 46.1193 183.981 46.838C183.981 47.5473 183.598 48.0933 182.833 48.476C182.067 48.868 181.008 49.064 179.655 49.064C178.301 49.064 177.237 48.868 176.463 48.476C175.697 48.0933 175.315 47.5473 175.315 46.838C175.315 46.1193 175.697 45.5687 176.463 45.186C177.237 44.8033 178.301 44.612 179.655 44.612ZM179.655 45.522C178.992 45.522 178.423 45.5733 177.947 45.676C177.48 45.7787 177.121 45.928 176.869 46.124C176.617 46.32 176.491 46.558 176.491 46.838C176.491 47.118 176.617 47.356 176.869 47.552C177.121 47.748 177.48 47.8973 177.947 48C178.423 48.112 178.992 48.168 179.655 48.168C180.317 48.168 180.882 48.112 181.349 48C181.825 47.8973 182.189 47.748 182.441 47.552C182.693 47.356 182.819 47.118 182.819 46.838C182.819 46.558 182.693 46.32 182.441 46.124C182.189 45.928 181.825 45.7787 181.349 45.676C180.882 45.5733 180.317 45.522 179.655 45.522ZM178.913 37.472H179.935V37.85C179.935 38.2607 179.846 38.6387 179.669 38.984C179.501 39.3293 179.263 39.6513 178.955 39.95C178.647 40.2393 178.283 40.496 177.863 40.72C177.452 40.944 177.004 41.1307 176.519 41.28C176.033 41.42 175.525 41.5227 174.993 41.588L174.573 40.664C175.03 40.6173 175.469 40.538 175.889 40.426C176.318 40.3047 176.715 40.16 177.079 39.992C177.452 39.8147 177.774 39.614 178.045 39.39C178.315 39.166 178.525 38.9233 178.675 38.662C178.833 38.4007 178.913 38.13 178.913 37.85V37.472ZM179.389 37.472H180.411V37.85C180.411 38.1393 180.485 38.4147 180.635 38.676C180.793 38.928 181.008 39.166 181.279 39.39C181.549 39.6047 181.867 39.8007 182.231 39.978C182.604 40.146 183.001 40.2907 183.421 40.412C183.85 40.5333 184.293 40.6173 184.751 40.664L184.331 41.588C183.799 41.5227 183.29 41.42 182.805 41.28C182.319 41.1307 181.867 40.944 181.447 40.72C181.036 40.496 180.677 40.2393 180.369 39.95C180.061 39.6607 179.818 39.3387 179.641 38.984C179.473 38.6293 179.389 38.2513 179.389 37.85V37.472ZM174.993 37.01H184.345V37.948H174.993V37.01ZM196.244 36.422H197.406V43.226H196.244V36.422ZM189.258 43.856H190.392V45.382H196.258V43.856H197.406V48.924H189.258V43.856ZM190.392 46.306V47.972H196.258V46.306H190.392ZM190.616 37.024C191.26 37.024 191.829 37.15 192.324 37.402C192.818 37.6447 193.206 37.9853 193.486 38.424C193.775 38.8627 193.92 39.3713 193.92 39.95C193.92 40.5193 193.775 41.028 193.486 41.476C193.206 41.9147 192.818 42.2553 192.324 42.498C191.829 42.7407 191.26 42.862 190.616 42.862C189.981 42.862 189.412 42.7407 188.908 42.498C188.413 42.2553 188.021 41.9147 187.732 41.476C187.452 41.028 187.312 40.5193 187.312 39.95C187.312 39.3713 187.452 38.8627 187.732 38.424C188.021 37.9853 188.413 37.6447 188.908 37.402C189.412 37.15 189.981 37.024 190.616 37.024ZM190.616 38.004C190.196 38.004 189.822 38.088 189.496 38.256C189.169 38.4147 188.912 38.6433 188.726 38.942C188.539 39.2313 188.446 39.5673 188.446 39.95C188.446 40.3233 188.539 40.6593 188.726 40.958C188.912 41.2473 189.169 41.476 189.496 41.644C189.822 41.812 190.196 41.896 190.616 41.896C191.036 41.896 191.409 41.812 191.736 41.644C192.062 41.476 192.319 41.2473 192.506 40.958C192.692 40.6593 192.786 40.3233 192.786 39.95C192.786 39.5673 192.692 39.2313 192.506 38.942C192.319 38.6433 192.062 38.4147 191.736 38.256C191.409 38.088 191.036 38.004 190.616 38.004ZM209.332 36.422H210.48V49.092H209.332V36.422ZM200.918 37.668H202.066V45.508H200.918V37.668ZM200.918 44.822H201.954C202.925 44.822 203.91 44.78 204.908 44.696C205.916 44.6027 206.952 44.4487 208.016 44.234L208.17 45.214C207.069 45.4473 206.01 45.6107 204.992 45.704C203.975 45.788 202.962 45.83 201.954 45.83H200.918V44.822ZM221.777 36.422H222.939V49.106H221.777V36.422ZM222.673 41.42H225.011V42.386H222.673V41.42ZM213.755 44.962H214.749C215.524 44.962 216.233 44.9527 216.877 44.934C217.531 44.906 218.156 44.8593 218.753 44.794C219.36 44.7287 219.976 44.64 220.601 44.528L220.741 45.522C220.088 45.634 219.453 45.7227 218.837 45.788C218.231 45.8533 217.596 45.8953 216.933 45.914C216.271 45.9327 215.543 45.942 214.749 45.942H213.755V44.962ZM213.755 37.654H219.621V38.606H214.903V45.41H213.755V37.654ZM227.527 48.0795C227.282 48.0795 227.072 47.9917 226.896 47.8161C226.72 47.6404 226.632 47.4299 226.632 47.1847C226.632 46.9394 226.72 46.7289 226.896 46.5533C227.072 46.3776 227.282 46.2898 227.527 46.2898C227.773 46.2898 227.983 46.3776 228.159 46.5533C228.334 46.7289 228.422 46.9394 228.422 47.1847C228.422 47.3471 228.381 47.4962 228.298 47.6321C228.218 47.768 228.111 47.8774 227.975 47.9602C227.842 48.0398 227.693 48.0795 227.527 48.0795ZM231.593 48.0795C231.347 48.0795 231.137 47.9917 230.961 47.8161C230.786 47.6404 230.698 47.4299 230.698 47.1847C230.698 46.9394 230.786 46.7289 230.961 46.5533C231.137 46.3776 231.347 46.2898 231.593 46.2898C231.838 46.2898 232.048 46.3776 232.224 46.5533C232.4 46.7289 232.488 46.9394 232.488 47.1847C232.488 47.3471 232.446 47.4962 232.363 47.6321C232.284 47.768 232.176 47.8774 232.04 47.9602C231.908 48.0398 231.758 48.0795 231.593 48.0795ZM235.658 48.0795C235.413 48.0795 235.202 47.9917 235.027 47.8161C234.851 47.6404 234.763 47.4299 234.763 47.1847C234.763 46.9394 234.851 46.7289 235.027 46.5533C235.202 46.3776 235.413 46.2898 235.658 46.2898C235.903 46.2898 236.114 46.3776 236.29 46.5533C236.465 46.7289 236.553 46.9394 236.553 47.1847C236.553 47.3471 236.512 47.4962 236.429 47.6321C236.349 47.768 236.242 47.8774 236.106 47.9602C235.973 48.0398 235.824 48.0795 235.658 48.0795Z" fill="#123524"/>
<path d="M140.5 76L146.5 68H134.5L140.5 76Z" fill="#FDF2D4"/>
</svg>
