<svg width="192" height="149" viewBox="0 0 192 149" fill="none" xmlns="http://www.w3.org/2000/svg">
<g clip-path="url(#clip0_218_1362)">
<path d="M191.742 140.244C191.742 140.443 191.345 140.602 190.85 140.602H0.892379C0.397412 140.602 0 140.443 0 140.244C0 140.045 0.397412 139.886 0.892379 139.886H190.85C191.345 139.886 191.742 140.045 191.742 140.244Z" fill="#D6D6E3"/>
<path d="M51.9359 34.3521C59.2758 34.3521 65.2259 28.4019 65.2259 21.062C65.2259 13.7221 59.2758 7.77197 51.9359 7.77197C44.596 7.77197 38.6458 13.7221 38.6458 21.062C38.6458 28.4019 44.596 34.3521 51.9359 34.3521Z" fill="#ED9DA0"/>
<path d="M58.2578 3.84326C61.1852 4.87202 62.8599 5.46095 64.3939 6.9389C66.9855 9.43579 67.4141 12.7726 67.8108 15.8732C68.1224 18.2987 68.5238 21.4341 67.1017 25.0178C66.6171 26.2402 64.2655 31.6882 59.7652 32.3764C58.8815 32.5116 56.8064 32.547 57.4045 32.1055C62.9407 28.019 65.3028 25.5523 65.1087 19.2539C64.9888 15.3414 59.0092 11.1153 55.4589 10.3557C54.6057 10.1815 53.725 10.1935 52.8769 10.3911C52.0289 10.5886 51.2335 10.967 50.5452 11.5003C47.561 13.9502 47.688 24.0808 44.5413 26.1983C43.247 27.0693 44.1099 20.9384 43.1976 21.9317C41.3984 23.8934 42.5523 26.8953 42.8759 28.0413C44.41 33.4682 46.0159 29.4555 47.5123 34.0892C49.1295 39.0924 37.9464 44.4934 37.4636 45.6106C36.6247 47.554 45.6175 54.7429 42.3253 56.3414C38.1468 58.3719 34.8527 55.7276 32.9104 57.9953C31.8246 59.2616 32.4121 60.6046 30.4504 64.5466C29.8102 65.8335 29.4881 66.4769 29.2064 66.4541C27.8641 66.3462 25.6935 55.6099 29.2064 45.6115C30.6803 41.4155 32.1242 37.3052 35.9934 34.0897C38.0401 32.39 39.7565 31.7786 40.2448 29.7937C40.9428 26.9574 38.0447 25.7479 37.4644 21.2743C37.0672 18.2146 36.7882 13.8387 37.8694 11.0338C38.8896 8.38497 39.7752 6.08607 42.0931 4.00146C42.6494 3.5005 47.1439 0.0968484 51.909 0.000970943C54.1027 -0.0431327 55.7146 2.94776 58.2578 3.84158V3.84326Z" fill="#090814"/>
<path d="M149.796 139.27L113.959 139.095L110.398 130.743L122.99 129.829L120.795 120.673L145.699 117.445L121.852 109.154L123.958 108.654L162.305 114.91L160.192 129.2L157.174 137.053L149.796 139.27Z" fill="#3E7B27"/>
<path d="M170.242 132.614C170.242 132.614 167.869 135.511 169.753 139.891L150.802 148.11L148.984 148.491L148.146 144.827L148.706 140.202V137.674L170.242 132.614Z" fill="#D5D6DB"/>
<path d="M110.398 130.743L136.628 125.961L171.383 131.498L149.796 139.27L110.398 130.743Z" fill="#3E7B27"/>
<path d="M110.399 130.741C110.399 130.741 107.946 135.389 110.772 139.682L149.668 148.11C149.668 148.11 147.254 144.408 149.793 139.269L110.399 130.741Z" fill="#3E7B27"/>
<path opacity="0.1" d="M110.399 130.741C110.399 130.741 107.946 135.389 110.772 139.682L149.668 148.11C149.668 148.11 147.254 144.408 149.793 139.269L110.399 130.741Z" fill="black"/>
<path d="M149.668 148.11L171.383 138.844C171.383 138.844 172.598 139.106 171.812 139.995C171.027 140.884 150.087 148.999 150.087 148.999L110.772 139.682L149.668 148.11Z" fill="#3E7B27"/>
<path opacity="0.1" d="M149.668 148.11L171.383 138.844C171.383 138.844 172.598 139.106 171.812 139.995C171.027 140.884 150.087 148.999 150.087 148.999L110.772 139.682L149.668 148.11Z" fill="black"/>
<path opacity="0.1" d="M158.027 140.162L148.634 143.296L148.667 143.395L158.06 140.262L158.027 140.162Z" fill="black"/>
<path opacity="0.1" d="M159.907 139.851L148.63 144.139L148.668 144.237L159.944 139.949L159.907 139.851Z" fill="black"/>
<path opacity="0.1" d="M161.635 139.836L148.693 145.133L148.733 145.23L161.675 139.933L161.635 139.836Z" fill="black"/>
<path opacity="0.1" d="M163.514 139.382L148.844 146.009L148.888 146.104L163.557 139.478L163.514 139.382Z" fill="black"/>
<path opacity="0.1" d="M165.087 139.376L148.961 146.436L149.003 146.531L165.129 139.472L165.087 139.376Z" fill="black"/>
<path opacity="0.1" d="M168.545 138.798L149.204 147.151L149.246 147.248L168.587 138.894L168.545 138.798Z" fill="black"/>
<path d="M171.383 131.498C171.383 131.498 172.336 131.881 171.777 132.476C171.217 133.07 149.793 139.269 149.793 139.269L171.383 131.498Z" fill="#3E7B27"/>
<path d="M180.638 122.544C180.638 122.544 178.265 125.44 180.15 129.821L161.199 138.04L159.38 138.424L158.543 134.759L159.111 130.136V127.605L180.638 122.544Z" fill="#D5D6DB"/>
<path d="M120.795 120.671L147.024 115.891L181.779 121.428L160.192 129.199L120.795 120.671Z" fill="#090814"/>
<path d="M120.791 120.671C120.791 120.671 118.337 125.319 121.164 129.612L160.06 138.04C160.06 138.04 157.646 134.335 160.188 129.198L120.791 120.671Z" fill="#3A3768"/>
<path d="M120.791 120.671C120.791 120.671 118.337 125.319 121.164 129.612L160.06 138.04C160.06 138.04 157.646 134.335 160.188 129.198L147.888 126.536L120.791 120.671Z" fill="#090814"/>
<path d="M160.064 138.04L181.78 128.774C181.78 128.774 182.994 129.036 182.208 129.924C181.423 130.813 160.483 138.929 160.483 138.929L121.168 129.611L160.064 138.04Z" fill="#3A3768"/>
<path d="M160.064 138.04L181.78 128.774C181.78 128.774 182.994 129.036 182.208 129.924C181.423 130.813 160.483 138.929 160.483 138.929L121.168 129.611L160.064 138.04Z" fill="#090814"/>
<path opacity="0.1" d="M158.284 130.135C158.284 130.135 156.19 132.648 158.284 136.417V130.135Z" fill="black"/>
<path opacity="0.1" d="M168.423 130.094L159.03 133.228L159.064 133.327L168.456 130.193L168.423 130.094Z" fill="black"/>
<path opacity="0.1" d="M170.305 129.782L159.028 134.07L159.066 134.168L170.342 129.88L170.305 129.782Z" fill="black"/>
<path opacity="0.1" d="M172.031 129.765L159.09 135.062L159.13 135.159L172.071 129.862L172.031 129.765Z" fill="black"/>
<path opacity="0.1" d="M173.911 129.312L159.242 135.938L159.285 136.034L173.955 129.407L173.911 129.312Z" fill="black"/>
<path opacity="0.1" d="M175.483 129.304L159.357 136.363L159.399 136.459L175.525 129.4L175.483 129.304Z" fill="black"/>
<path opacity="0.1" d="M178.942 128.726L159.601 137.08L159.643 137.176L178.984 128.822L178.942 128.726Z" fill="black"/>
<path d="M181.78 121.427C181.78 121.427 182.732 121.811 182.173 122.404C181.615 122.998 160.193 129.198 160.193 129.198L181.78 121.427Z" fill="#3A3768"/>
<path d="M181.622 111.024C181.622 111.024 179.249 116.226 181.133 120.604L162.182 126.521L160.368 126.904L159.53 123.24L160.09 118.615V116.085L181.622 111.024Z" fill="#D5D6DB"/>
<path d="M121.783 109.152L148.012 104.371L182.768 109.908L161.18 117.678L121.783 109.152Z" fill="#3E7B27"/>
<path d="M121.783 109.151C121.783 109.151 119.325 113.799 122.152 118.092L161.048 126.52C161.048 126.52 158.634 122.815 161.176 117.679L121.783 109.151Z" fill="#3E7B27"/>
<path opacity="0.1" d="M121.783 109.151C121.783 109.151 119.325 113.799 122.152 118.092L161.048 126.52C161.048 126.52 158.634 122.815 161.176 117.679L121.783 109.151Z" fill="black"/>
<path d="M161.052 126.52L182.767 119.558C182.767 119.558 183.982 119.819 183.196 120.708C182.411 121.597 161.471 127.409 161.471 127.409L122.156 118.092L161.052 126.52Z" fill="#3E7B27"/>
<path opacity="0.1" d="M161.052 126.52L182.767 119.558C182.767 119.558 183.982 119.819 183.196 120.708C182.411 121.597 161.471 127.409 161.471 127.409L122.156 118.092L161.052 126.52Z" fill="black"/>
<path opacity="0.1" d="M169.411 118.573L160.019 121.707L160.052 121.806L169.445 118.673L169.411 118.573Z" fill="black"/>
<path opacity="0.1" d="M171.293 118.262L160.016 122.55L160.054 122.648L171.33 118.36L171.293 118.262Z" fill="black"/>
<path opacity="0.1" d="M173.018 118.246L160.077 123.543L160.116 123.64L173.058 118.343L173.018 118.246Z" fill="black"/>
<path opacity="0.1" d="M174.9 117.791L160.23 124.418L160.273 124.513L174.943 117.887L174.9 117.791Z" fill="black"/>
<path opacity="0.1" d="M176.472 117.785L160.346 124.844L160.388 124.94L176.514 117.88L176.472 117.785Z" fill="black"/>
<path opacity="0.1" d="M179.931 117.207L160.59 125.561L160.631 125.657L179.972 117.303L179.931 117.207Z" fill="black"/>
<path d="M182.767 109.907C182.767 109.907 183.72 110.291 183.161 110.885C182.601 111.48 161.181 117.679 161.181 117.679L182.767 109.907Z" fill="#3E7B27"/>
<path opacity="0.1" d="M172.02 107.135C172.02 107.135 168.285 107.7 167.588 108.468L172.02 107.135Z" fill="black"/>
<path opacity="0.1" d="M163.04 110.813C163.418 110.529 163.82 110.279 164.242 110.066C164.854 109.736 165.448 109.372 166.022 108.979" fill="black"/>
<path d="M72.3522 89.5846C72.3522 89.5846 76.9026 101.481 79.4898 100.291C82.0771 99.1014 81.3755 94.0456 81.869 92.6597C82.3626 91.2737 82.91 80.7637 82.91 80.7637C82.91 80.7637 83.1598 73.3286 83.6531 71.8231C84.1111 70.4401 84.4829 63.4662 84.5452 62.3686V62.2229L84.0545 53.5982L81.2767 52.9053L74.8355 55.2861L73.9433 60.3806L73.5953 62.3701L73.4467 63.2176L72.3522 89.5846Z" fill="#ED9DA0"/>
<path d="M36.7683 90.1051C36.7683 90.1051 32.2179 102.001 29.6307 100.812C27.0434 99.6219 27.7453 94.5661 27.2515 93.1802C26.7577 91.7943 26.2105 81.2842 26.2105 81.2842C26.2105 81.2842 25.9607 73.8491 25.4675 72.3436C25.0094 70.9606 24.6376 63.9867 24.5753 62.8891V62.7434L25.0691 54.1187L27.8469 53.4258L34.2887 55.805L35.1808 60.8994L35.5288 62.8889L35.6774 63.7364L36.7683 90.1051Z" fill="#ED9DA0"/>
<path d="M34.984 101.954C34.984 101.954 31.5132 105.769 32.8011 106.462C34.089 107.155 42.419 120.143 42.419 120.143C42.419 120.143 69.7798 123.513 74.9409 118.457C80.102 113.401 79.9967 104.369 79.9967 104.369C79.9967 104.369 75.85 105.261 75.3989 104.776C74.9478 104.291 72.4636 101.954 72.4636 101.954C72.4636 101.954 37.3629 99.8243 34.984 101.954Z" fill="#090814"/>
<path d="M84.2398 53.7239L75.318 60.8615L72.6205 61.0578L71.63 61.1298L54.9953 62.3491L37.747 61.0876L35.1803 60.9001L31.909 60.6621L25.0688 54.1185C25.0688 54.1185 29.9107 48.9317 34.1516 45.4313C35.8229 44.0482 37.402 42.9301 38.553 42.49L38.7494 42.4217C39.4732 42.1393 46.5634 41.4003 47.0797 40.8186C50.4284 37.3658 47.0797 29.1338 47.0797 29.1338C47.0797 29.1338 61.8517 21.5024 60.0672 31.513C58.2827 41.5235 63.2647 40.042 63.4709 40.1367L69.4848 40.3162L70.5821 40.8196L73.3805 42.1014L79.6943 44.9981C84.6502 47.2793 84.2398 53.7239 84.2398 53.7239Z" fill="#ED9DA0"/>
<path opacity="0.1" d="M84.2604 63.1869H24.5748V63.0412L25.0686 54.4166C25.0686 54.4166 29.9104 49.2298 34.1513 45.7293L71.624 44.2432L73.3669 42.4053L79.6804 45.3013C84.638 47.5783 84.2396 54.0239 84.2396 54.0239C84.2396 54.0239 84.9177 61.4918 84.2604 63.1869Z" fill="black"/>
<path d="M84.2604 62.8896H24.5748V62.7438L25.0686 54.1192C25.0686 54.1192 29.9104 48.9325 34.1513 45.432L71.624 43.9459L73.3669 42.1079L79.6804 45.0039C84.638 47.281 84.2396 53.7266 84.2396 53.7266C84.2396 53.7266 84.9177 61.1945 84.2604 62.8896Z" fill="#D6D6E3"/>
<path d="M70.5679 40.8117L71.5644 56.0059L72.6319 61.0617L73.4469 64.928C73.4469 64.928 75.5286 94.6682 74.933 96.1553C74.3374 97.6423 75.2305 98.8319 75.3553 99.6229C75.4802 100.414 75.2305 102.401 75.3285 103.293C75.4265 104.185 75.3285 104.58 73.0514 104.262C70.7743 103.944 67.5969 103.391 67.5969 103.391C67.5969 103.391 59.5672 103.986 56.7923 102.996C54.0173 102.005 48.7625 102.002 48.7625 102.002C48.7625 102.002 40.8308 102.202 38.2553 101.904C35.6798 101.607 34.2879 105.078 32.6048 104.084C30.9217 103.091 34.5854 93.4791 35.7752 90.7013C36.9651 87.9235 34.1901 80.887 34.1901 80.887L37.7589 61.0883L38.553 56.6005V42.4915L38.7493 42.4231C39.4732 42.1408 40.1195 41.6903 40.6348 41.1087L41.5269 55.3067L69.4826 56.3V40.3203" fill="#D6D6E3"/>
<path d="M67.5109 140.485L79.3088 140.863L77.6166 132.114L68.5785 132.973L67.5109 140.485Z" fill="#ED9DA0"/>
<path d="M104.067 119.747C103.273 120.738 100.201 122.522 99.9035 123.117C99.6061 123.712 95.9393 125.496 94.0536 125.793C92.1679 126.091 86.223 127.382 85.1315 128.075C84.3494 128.574 78.0711 130.156 73.9462 131.034C72.8289 131.298 71.6981 131.502 70.5588 131.644C68.7743 131.742 49.2469 125.1 49.2469 125.1L53.0121 121.234L53.2204 121.162C54.2851 120.802 59.2041 119.14 61.9342 118.348C65.0094 117.456 68.5782 113.789 68.5782 113.789C68.5782 113.789 73.8304 112.005 74.5262 111.805C75.2221 111.606 72.7417 104.867 72.7417 104.867C72.7417 104.867 84.1411 103.285 88.6022 101.943C93.0634 100.6 103.374 101.098 105.257 106.353C107.139 111.608 104.873 118.757 104.067 119.747Z" fill="#090814"/>
<path d="M52.1195 136.5C52.1195 136.5 49.8424 138.879 47.5603 138.683C45.2782 138.486 37.3028 139.278 37.3028 139.278C35.8573 139.854 34.5037 140.639 33.2848 141.606C31.42 143.075 26.9413 142.349 26.9413 142.349C26.9413 142.349 27.9318 132.834 27.6283 131.643C27.3249 130.452 29.5883 128.41 29.5883 128.41L32.2649 127.729L39.0456 125.993L48.7619 129.362L52.1195 136.5Z" fill="#090814"/>
<path opacity="0.1" d="M73.9448 131.034C72.8275 131.298 71.6967 131.502 70.5574 131.643C68.7729 131.741 49.2455 125.1 49.2455 125.1L53.0107 121.234L53.2189 121.162C53.8139 121.581 54.3014 121.941 54.6494 122.214C56.2882 123.505 57.8702 121.819 58.4651 121.819C59.06 121.819 64.2132 126.081 64.2132 126.081C64.2132 126.081 68.9716 127.173 69.7657 128.163C70.5598 129.153 73.3345 128.957 73.8283 129.649C73.9764 129.865 73.9941 130.391 73.9448 131.034Z" fill="black"/>
<path d="M37.3037 105.273C37.3037 105.273 32.4919 105.549 29.717 104.381C26.942 103.212 17.7227 100.515 15.046 102.409C12.3694 104.304 5.92474 105.978 8.89862 113.514C11.8725 121.05 13.261 121.247 13.261 121.247C14.1812 121.937 14.9845 122.77 15.6402 123.715C16.5324 125.104 24.8598 128.275 26.9415 128.275C29.0233 128.275 32.6904 128.275 37.8443 131.843C42.9981 135.412 47.6592 135.81 47.6592 135.81C47.6592 135.81 54.2029 138.487 56.2402 139.081C58.2776 139.676 67.5861 142.251 69.769 141.46C71.9519 140.669 73.3378 135.708 73.3378 135.708C73.3378 135.708 74.3282 131.247 73.8316 130.554C73.335 129.862 70.5603 130.058 69.769 129.068C68.9778 128.079 64.2165 126.986 64.2165 126.986C64.2165 126.986 59.0744 122.722 58.4797 122.722C57.885 122.722 56.3028 124.405 54.664 123.117C51.3998 120.699 47.9702 118.513 44.4006 116.574C40.6348 114.59 37.3037 105.273 37.3037 105.273Z" fill="#090814"/>
<path opacity="0.1" d="M27.6293 108.149C28.4861 107.974 29.3717 107.999 30.2171 108.222C31.0626 108.445 31.8451 108.861 32.5037 109.436C34.8829 111.42 42.8889 115.402 42.8889 115.402" fill="black"/>
<path opacity="0.1" d="M87.1154 108.024C87.1154 108.024 76.5071 109.63 74.5265 111.81L87.1154 108.024Z" fill="black"/>
<path d="M99.3086 140.863H98.8417C97.1639 140.803 91.481 140.625 90.3865 140.863C89.0989 141.16 72.0457 140.863 72.0457 140.863L75.3796 140.17C75.3796 140.17 74.1423 135.833 74.9275 135.473C74.9275 135.473 70.4666 132.535 73.8302 130.551C77.1938 128.568 80.8191 129.403 80.8191 129.403L89.2624 126.543L90.8832 125.991C90.8832 125.991 100.399 126.488 102.975 133.031C105.552 139.574 99.3086 140.863 99.3086 140.863Z" fill="#090814"/>
<path d="M26.8912 54.2681L32.1551 49.5097C32.1551 49.5097 52.5658 48.1715 53.4105 55.1099C53.4105 55.1099 60.6463 46.8839 75.8642 48.7158L82.3029 53.8431L64.5063 61.6528L47.2125 67.6514L34.4747 61.9503L26.8912 54.2681Z" fill="#F2F2F2"/>
<path d="M24.5629 54.2681L26.8927 82.1257L51.5771 83.3659L50.5054 55.6271L50.4845 55.1602L24.5629 54.2681Z" fill="#3E7B27"/>
<path d="M83.4337 53.6733L57.9702 57.4919V85.4735L82.8537 81.8781L83.4337 53.6733Z" fill="#3E7B27"/>
<path opacity="0.3" d="M77.429 60.502L63.6741 62.0307L63.9745 66.7177L77.4201 65.2486L77.429 60.502Z" fill="white"/>
<path d="M28.2299 97.0436L29.6307 100.812C29.6307 100.812 31.7124 102.596 33.9907 101.704C36.269 100.811 38.2556 100.368 39.2457 99.4999C40.2359 98.6315 41.6249 94.2686 41.6249 94.2686C41.6249 94.2686 43.0137 89.5102 44.3996 88.3206C45.7855 87.131 49.4555 70.7413 44.3996 72.3441C39.3438 73.9469 35.4775 88.8173 35.4775 88.8173C35.4775 88.8173 34.5854 89.9057 33.2975 90.0069C32.0096 90.108 29.4312 89.8077 28.9351 90.899C28.4389 91.9903 26.7428 94.8638 28.2299 97.0436Z" fill="#ED9DA0"/>
<path d="M57.9699 57.4891C56.6662 57.7829 55.3119 57.7675 54.0152 57.4443C52.7185 57.121 51.5155 56.4988 50.5023 55.6274L51.5758 83.3631C51.5758 83.3631 54.1037 86.0992 57.9699 85.4746V57.4891Z" fill="#3E7B27"/>
<path opacity="0.1" d="M57.9699 57.4891C56.6662 57.7829 55.3119 57.7675 54.0152 57.4443C52.7185 57.121 51.5155 56.4988 50.5023 55.6274L51.5758 83.3631C51.5758 83.3631 54.1037 86.0992 57.9699 85.4746V57.4891Z" fill="black"/>
<path opacity="0.1" d="M58.5646 54.3634C58.5646 54.3634 68.9232 51.1961 71.6236 51.6422L58.5646 54.3634Z" fill="black"/>
<path opacity="0.1" d="M46.9783 52.981C46.9783 52.981 36.938 50.6018 35.2606 51.2768L46.9783 52.981Z" fill="black"/>
<path opacity="0.1" d="M65.0955 54.7589C65.0955 54.7589 72.0227 52.2182 74.5263 53.4265L65.0955 54.7589Z" fill="black"/>
<path opacity="0.1" d="M61.6072 118.471C62.6806 117.665 63.8231 116.955 65.0214 116.351C66.8057 115.491 70.0773 113.261 70.0773 113.261" fill="black"/>
<path opacity="0.1" d="M35.2601 88.1216C35.2601 88.1216 30.9149 91.6755 29.6096 91.9878C28.3042 92.3002 27.4981 95.072 27.4981 95.072" fill="black"/>
<path d="M80.8798 96.514L79.4939 100.291C79.4939 100.291 77.4121 102.076 75.1314 101.183C72.8508 100.291 70.8697 99.8479 69.8764 98.9794C68.8831 98.111 67.4972 93.7481 67.4972 93.7481C67.4972 93.7481 66.1113 88.9897 64.7225 87.8001C63.3337 86.6105 59.6667 70.2208 64.7225 71.8236C69.7784 73.4264 73.6446 88.2968 73.6446 88.2968C73.6446 88.2968 74.5368 89.3852 75.8246 89.4864C77.1125 89.5875 79.6909 89.2872 80.1871 90.3785C80.6832 91.4698 82.3659 94.3431 80.8798 96.514Z" fill="#ED9DA0"/>
<path opacity="0.1" d="M74.77 88.4478C74.77 88.4478 78.5979 91.5638 79.7516 91.838C80.9052 92.1122 81.613 94.5422 81.613 94.5422" fill="black"/>
</g>
<defs>
<clipPath id="clip0_218_1362">
<rect width="191.742" height="149" fill="white"/>
</clipPath>
</defs>
</svg>
