<svg width="11" height="11" viewBox="0 0 11 11" fill="none" xmlns="http://www.w3.org/2000/svg">
<mask id="mask0_264_2451" style="mask-type:alpha" maskUnits="userSpaceOnUse" x="0" y="0" width="11" height="11">
<path fill-rule="evenodd" clip-rule="evenodd" d="M0.888864 0.888864C1.15735 0.620379 1.59265 0.620379 1.86114 0.888864L10.1111 9.13886C10.3796 9.40735 10.3796 9.84265 10.1111 10.1111C9.84265 10.3796 9.40735 10.3796 9.13886 10.1111L0.888864 1.86114C0.620379 1.59265 0.620379 1.15735 0.888864 0.888864Z" fill="#006FFD"/>
<path fill-rule="evenodd" clip-rule="evenodd" d="M10.1111 0.888864C9.84265 0.620379 9.40735 0.620379 9.13886 0.888864L0.888864 9.13886C0.620379 9.40735 0.620379 9.84265 0.888864 10.1111C1.15735 10.3796 1.59265 10.3796 1.86114 10.1111L10.1111 1.86114C10.3796 1.59265 10.3796 1.15735 10.1111 0.888864Z" fill="#006FFD"/>
</mask>
<g mask="url(#mask0_264_2451)">
<rect width="11" height="11" fill="currentColor"/>
</g>
</svg>
