<svg width="15" height="15" viewBox="0 0 15 15" fill="none" xmlns="http://www.w3.org/2000/svg">
<g clip-path="url(#clip0_668_1314)">
<mask id="mask0_668_1314" style="mask-type:alpha" maskUnits="userSpaceOnUse" x="2" y="0" width="11" height="16">
<path fill-rule="evenodd" clip-rule="evenodd" d="M8.47509 0.0377902C8.62734 0.0909956 8.76035 0.196785 8.85477 0.339774C8.94919 0.482762 9.0001 0.655492 9.00009 0.832844V4.99979H12.0001C12.1373 4.99972 12.2719 5.04147 12.3892 5.12049C12.5065 5.1995 12.6021 5.31276 12.6655 5.44794C12.7289 5.58312 12.7577 5.73503 12.7488 5.88716C12.74 6.03928 12.6937 6.18578 12.6151 6.31071L7.36509 14.6446C7.27372 14.7901 7.14296 14.8993 6.99184 14.9565C6.84073 15.0137 6.67713 15.0158 6.52486 14.9625C6.37259 14.9093 6.23959 14.8034 6.14521 14.6603C6.05083 14.5173 5.99999 14.3445 6.00009 14.1671V10.0001H3.00009C2.8629 10.0002 2.72832 9.95845 2.611 9.87943C2.49368 9.80041 2.39811 9.68715 2.3347 9.55198C2.27128 9.4168 2.24245 9.26488 2.25133 9.11276C2.26022 8.96064 2.30648 8.81414 2.38509 8.6892L7.63509 0.355312C7.7266 0.210124 7.85738 0.101138 8.00844 0.0441874C8.1595 -0.0127634 8.32297 -0.0147123 8.47509 0.0386236V0.0377902Z" fill="#006FFD"/>
</mask>
<g mask="url(#mask0_668_1314)">
<rect width="15" height="15" fill="#FFDA61"/>
</g>
</g>
<defs>
<clipPath id="clip0_668_1314">
<rect width="15" height="15" fill="white"/>
</clipPath>
</defs>
</svg>
