<svg width="24" height="24" viewBox="0 0 24 24" fill="none" xmlns="http://www.w3.org/2000/svg">
<mask id="mask0_473_1331" style="mask-type:alpha" maskUnits="userSpaceOnUse" x="0" y="1" width="24" height="22">
<path d="M6.75 1.38721C3.17257 1.38721 0.25 4.26174 0.25 7.83471C0.25 9.1745 0.519753 11.3517 2.00687 13.9316C3.48987 16.5043 6.14418 19.4096 10.8078 22.2766L10.8127 22.2796C11.1704 22.4973 11.5812 22.6124 12 22.6124C12.4188 22.6124 12.8296 22.4973 13.1873 22.2796L13.1922 22.2766C17.8558 19.4096 20.5101 16.5043 21.9931 13.9316C23.4802 11.3517 23.75 9.1745 23.75 7.83471C23.75 4.26174 20.8274 1.38721 17.25 1.38721C15.3653 1.38721 13.7707 2.39564 12.7402 3.24981C12.464 3.47869 12.216 3.70679 12 3.91916C11.784 3.70679 11.536 3.47869 11.2598 3.24981C10.2293 2.39564 8.63471 1.38721 6.75 1.38721Z" fill="#006FFD"/>
</mask>
<g mask="url(#mask0_473_1331)">
<rect width="24" height="24" fill="#FF616D"/>
</g>
</svg>
