<svg width="13" height="13" viewBox="0 0 13 13" fill="none" xmlns="http://www.w3.org/2000/svg">
<mask id="mask0_264_2323" style="mask-type:alpha" maskUnits="userSpaceOnUse" x="0" y="0" width="13" height="13">
<path d="M3.65609 0.751953C1.71831 0.751953 0.135254 2.30899 0.135254 4.24435C0.135254 4.97007 0.28137 6.14937 1.08689 7.54681C1.89018 8.94038 3.32793 10.5141 5.85404 12.067L5.85669 12.0687C6.05049 12.1866 6.27298 12.2489 6.49984 12.2489C6.72669 12.2489 6.94918 12.1866 7.14298 12.0687L7.14564 12.067C9.67174 10.5141 11.1095 8.94038 11.9128 7.54681C12.7183 6.14937 12.8644 4.97007 12.8644 4.24435C12.8644 2.30899 11.2814 0.751953 9.34359 0.751953C8.3227 0.751953 7.45898 1.29819 6.90077 1.76086C6.75119 1.88484 6.61685 2.0084 6.49984 2.12343C6.38283 2.0084 6.24848 1.88484 6.09891 1.76086C5.54069 1.29819 4.67697 0.751953 3.65609 0.751953Z" fill="#006FFD"/>
</mask>
<g mask="url(#mask0_264_2323)">
<rect width="13" height="13" fill="#FF616D"/>
</g>
</svg>
