<svg width="24" height="24" viewBox="0 0 24 24" fill="none" xmlns="http://www.w3.org/2000/svg">
<mask id="mask0_668_1275" style="mask-type:alpha" maskUnits="userSpaceOnUse" x="0" y="1" width="24" height="22">
<path fill-rule="evenodd" clip-rule="evenodd" d="M0.25 7.83471C0.25 4.26174 3.17257 1.38721 6.75 1.38721C8.63471 1.38721 10.2293 2.39564 11.2598 3.24981C11.536 3.47869 11.784 3.70679 12 3.91916C12.216 3.70679 12.464 3.47869 12.7402 3.24981C13.7707 2.39564 15.3653 1.38721 17.25 1.38721C20.8274 1.38721 23.75 4.26174 23.75 7.83471C23.75 9.1745 23.4802 11.3517 21.9931 13.9316C20.5101 16.5043 17.8558 19.4096 13.1922 22.2766L13.1873 22.2796C12.8296 22.4973 12.4188 22.6124 12 22.6124C11.5812 22.6124 11.1704 22.4973 10.8127 22.2796L10.8078 22.2766C6.14418 19.4096 3.48987 16.5043 2.00687 13.9316C0.519753 11.3517 0.25 9.1745 0.25 7.83471ZM13.0014 6.5354C12.7654 6.85121 12.3943 7.03721 12 7.03721C11.6062 7.03721 11.2355 6.85164 10.9995 6.5365C10.9992 6.53613 10.9989 6.53577 10.9986 6.5354L10.999 6.53587L10.9995 6.5365L10.9995 6.53661L11 6.53725C11.0001 6.53731 10.9996 6.53664 10.9985 6.53527L10.9858 6.51879C10.9731 6.50241 10.952 6.4756 10.923 6.43985C10.8648 6.36822 10.7753 6.26138 10.6581 6.13108C10.4222 5.86889 10.0816 5.52031 9.66447 5.17461C8.79478 4.45377 7.76434 3.88721 6.75 3.88721C4.52933 3.88721 2.75 5.66628 2.75 7.83471C2.75 8.81227 2.93962 10.5437 4.1728 12.6831C5.39901 14.8103 7.69543 17.4072 12 20.0746C16.3046 17.4072 18.601 14.8103 19.8272 12.6831C21.0604 10.5437 21.25 8.81227 21.25 7.83471C21.25 5.66628 19.4707 3.88721 17.25 3.88721C16.2357 3.88721 15.2052 4.45377 14.3355 5.17461C13.9184 5.52031 13.5778 5.86889 13.3419 6.13108C13.2247 6.26138 13.1352 6.36822 13.077 6.43985C13.048 6.4756 13.0269 6.50241 13.0142 6.51879L13.0015 6.53527C13.0008 6.53618 13.0003 6.53678 13.0001 6.53706L13.0005 6.53661L13.001 6.53587L13.0014 6.5354Z" fill="#006FFD"/>
</mask>
<g mask="url(#mask0_668_1275)">
<rect width="24" height="24" fill="#FF616D"/>
</g>
</svg>
