<svg width="32" height="32" viewBox="0 0 32 32" fill="none" xmlns="http://www.w3.org/2000/svg">
<mask id="mask0_458_1231" style="mask-type:alpha" maskUnits="userSpaceOnUse" x="0" y="2" width="32" height="28">
<path d="M11.4623 11.6214C11.4623 13.4623 10.0297 14.9546 8.26241 14.9546C6.49517 14.9546 5.06253 13.4623 5.06253 11.6214C5.06253 9.78057 6.49517 8.28825 8.26241 8.28825C10.0297 8.28825 11.4623 9.78057 11.4623 11.6214Z" fill="#B4DBFF"/>
<path fill-rule="evenodd" clip-rule="evenodd" d="M0.000488281 6.00019C0.000488281 4.15932 1.43312 2.66699 3.20036 2.66699H28.7994C30.5666 2.66699 31.9992 4.15932 31.9992 6.00019V25.9994C31.9992 27.8403 30.5666 29.3326 28.7994 29.3326H26.6872C26.6802 29.3326 26.6731 29.3326 26.6661 29.3326H3.92964C3.92361 29.3326 3.91759 29.3326 3.91157 29.3326H3.20036C1.43312 29.3326 0.000488281 27.8403 0.000488281 25.9994V6.00019ZM3.20036 5.16689H28.7994C29.2412 5.16689 29.5993 5.53997 29.5993 6.00019V16.3866L22.6472 9.33343L10.8195 21.3329L7.33543 17.7982L2.40039 22.805V6.00019C2.40039 5.53997 2.75855 5.16689 3.20036 5.16689Z" fill="#B4DBFF"/>
</mask>
<g mask="url(#mask0_458_1231)">
<rect x="0.000488281" y="-0.000976562" width="31.9987" height="31.9987" fill="#7F8C7A"/>
</g>
</svg>
