<svg width="13" height="12" viewBox="0 0 13 12" fill="none" xmlns="http://www.w3.org/2000/svg">
<mask id="mask0_0_1806" style="mask-type:alpha" maskUnits="userSpaceOnUse" x="1" y="0" width="11" height="12">
<circle cx="6.5" cy="6" r="5.5" fill="#D9D9D9"/>
</mask>
<g mask="url(#mask0_0_1806)">
<rect x="0.5" width="12" height="12" fill="#85A947"/>
</g>
<path fill-rule="evenodd" clip-rule="evenodd" d="M5.31652 5.40627C5.31652 5.13013 5.54037 4.90627 5.81652 4.90627H6.49991C6.77605 4.90627 6.99991 5.13013 6.99991 5.40627V7.73465H7.60284C7.87899 7.73465 8.10284 7.95851 8.10284 8.23465C8.10284 8.51079 7.87899 8.73465 7.60284 8.73465H5.39697C5.12083 8.73465 4.89697 8.51079 4.89697 8.23465C4.89697 7.95851 5.12083 7.73465 5.39697 7.73465H5.99991V5.90627H5.81652C5.54037 5.90627 5.31652 5.68241 5.31652 5.40627Z" fill="white"/>
<path d="M7.11622 3.91889C7.11622 4.28022 6.8233 4.57313 6.46198 4.57313C6.10065 4.57313 5.80773 4.28022 5.80773 3.91889C5.80773 3.55756 6.10065 3.26465 6.46198 3.26465C6.8233 3.26465 7.11622 3.55756 7.11622 3.91889Z" fill="white"/>
</svg>
