<svg width="202" height="231" viewBox="0 0 202 231" fill="none" xmlns="http://www.w3.org/2000/svg">
<g clip-path="url(#clip0_224_3518)">
<path d="M96.9383 216.706L96.6809 210.911C96.6541 210.896 96.6273 210.882 96.6005 210.868C93.842 209.419 90.6804 212.042 91.5615 215.034C92.3905 217.849 92.9475 220.883 94.465 223.347C95.3616 224.778 96.5683 225.989 97.9958 226.89C99.4232 227.79 101.035 228.358 102.711 228.55L106.216 230.698C106.697 228.014 106.591 225.258 105.905 222.618C105.219 219.979 103.97 217.52 102.244 215.411C101.264 214.237 100.14 213.191 98.899 212.299C98.0597 214.515 96.9383 216.706 96.9383 216.706Z" fill="#F2F2F2"/>
<path d="M65.5603 157.892C58.8129 150.925 49.0349 146.929 38.7336 146.929L38.3362 146.93C31.551 146.933 24.8869 145.131 19.0254 141.709L18.4154 141.353L18.9067 140.846C21.5663 138.091 23.7871 134.944 25.4912 131.513C24.2809 132.643 22.8373 133.492 21.2627 134.002C19.6881 134.511 18.021 134.667 16.3792 134.46C14.646 134.253 12.982 133.656 11.5121 132.713C10.0423 131.771 8.80468 130.507 7.89218 129.017C4.29176 123.169 0 114.87 0 108.547C0.00560461 103.203 1.12317 97.9192 3.28146 93.0317C5.43976 88.1442 8.59143 83.7605 12.5356 80.16C15.0326 77.9058 17.0271 75.15 18.389 72.0722C19.7508 68.9945 20.4496 65.664 20.4396 62.2978L20.4376 61.8187C20.437 57.3868 20.9779 52.9716 22.0484 48.6713L22.1571 48.237L22.6033 48.2526C25.481 48.3507 28.3602 48.1092 31.1815 47.5331C28.5351 47.2081 25.9463 46.5187 23.4883 45.4845L23.0083 45.29L23.1712 44.7975C34.402 37.8354 59.7531 41.4407 74.4677 7.73403C86.3992 -19.5975 128.498 31.9963 128.498 61.8187C128.498 64.8617 125.49 68.883 127.741 70.8943C152.083 92.6365 135.287 106.598 129.992 120.647C128.736 123.98 131.46 127.639 131.46 131.245C131.46 131.857 131.444 132.489 131.414 133.122L131.367 134.097L130.555 133.556C128.95 132.503 127.461 131.281 126.116 129.91C127.512 133.127 128.17 136.615 128.041 140.12C127.912 143.624 127.001 147.055 125.373 150.16C122.822 154.98 120.354 158.431 118.038 160.416C110.618 166.774 101.053 170.053 91.2986 169.584C81.5441 169.114 72.3372 164.932 65.5603 157.892Z" fill="#E6E6E6"/>
<path d="M106.313 230.413C106.479 230.412 106.639 230.352 106.764 230.243C106.889 230.134 106.971 229.984 106.994 229.82C107.024 229.613 109.893 208.897 107.316 181.363C104.936 155.935 97.2944 119.31 74.4022 89.2299C74.3474 89.1577 74.2789 89.097 74.2006 89.0513C74.1223 89.0056 74.0358 88.9757 73.946 88.9635C73.8562 88.9513 73.7649 88.957 73.6773 88.9801C73.5897 89.0033 73.5075 89.0435 73.4354 89.0985C73.3633 89.1535 73.3028 89.2222 73.2572 89.3006C73.2117 89.3791 73.182 89.4657 73.17 89.5556C73.1579 89.6455 73.1636 89.737 73.1869 89.8247C73.2101 89.9123 73.2504 89.9946 73.3054 90.0667C95.9999 119.887 103.58 156.243 105.943 181.492C108.505 208.865 105.658 229.42 105.629 229.625C105.615 229.723 105.623 229.823 105.651 229.918C105.679 230.012 105.727 230.1 105.792 230.175C105.856 230.249 105.936 230.309 106.026 230.35C106.116 230.391 106.214 230.413 106.313 230.413Z" fill="#3F3D56"/>
<path d="M87.6313 131.659C87.7769 131.659 87.9188 131.613 88.0367 131.527C88.1546 131.442 88.2423 131.321 88.2874 131.182C88.3325 131.044 88.3325 130.894 88.2876 130.755C88.2426 130.617 88.155 130.496 88.0372 130.41C87.9541 130.35 79.5794 124.308 67.0595 119.718C55.4857 115.476 37.8861 111.63 19.7676 117.404C19.6812 117.431 19.6011 117.475 19.5317 117.534C19.4624 117.592 19.4052 117.664 19.3636 117.744C19.3219 117.825 19.2964 117.913 19.2887 118.003C19.2811 118.093 19.2912 118.184 19.3187 118.271C19.3462 118.357 19.3904 118.438 19.4489 118.507C19.5074 118.576 19.5789 118.633 19.6594 118.675C19.74 118.717 19.8279 118.742 19.9182 118.749C20.0085 118.757 20.0994 118.747 20.1857 118.719C37.933 113.064 55.2136 116.847 66.5854 121.015C78.9266 125.539 87.1449 131.468 87.2265 131.527C87.3441 131.613 87.4858 131.659 87.6313 131.659Z" fill="#3F3D56"/>
<path d="M119.186 52.9732C119.197 52.8278 119.161 52.6827 119.084 52.5589C119.007 52.435 118.893 52.3386 118.758 52.2836C118.623 52.2286 118.475 52.2178 118.333 52.2527C118.192 52.2877 118.065 52.3665 117.971 52.478C117.905 52.5566 111.283 60.4845 105.809 72.6565C100.75 83.9086 95.651 101.207 100.098 119.716C100.14 119.894 100.252 120.048 100.408 120.143C100.564 120.239 100.751 120.268 100.929 120.226C101.107 120.183 101.26 120.071 101.356 119.915C101.451 119.759 101.481 119.571 101.438 119.393C97.0829 101.263 102.095 84.2791 107.067 73.2233C112.463 61.225 118.96 53.4451 119.025 53.3679C119.119 53.2567 119.175 53.1185 119.186 52.9732Z" fill="#3F3D56"/>
<path d="M118.253 88.5662C118.835 93.265 122.087 97.1393 126.816 97.1393C129.087 97.1393 131.265 96.2361 132.87 94.6283C134.476 93.0205 135.378 90.8399 135.378 88.5662C135.378 83.8314 131.524 80.4308 126.816 79.9931C121.819 79.5286 117.506 82.5335 118.253 88.5662Z" fill="#2F2E41"/>
<path d="M130.782 226.637L134.042 226.636L135.593 214.044L130.781 214.044L130.782 226.637Z" fill="#FFB6B6"/>
<path d="M130.667 230.042L140.694 230.042V229.915C140.694 228.878 140.283 227.885 139.551 227.152C138.819 226.419 137.826 226.007 136.791 226.007L134.959 224.616L131.542 226.007L130.667 226.007L130.667 230.042Z" fill="#2F2E41"/>
<path d="M117.937 226.637L121.198 226.636L122.749 214.044L117.937 214.044L117.937 226.637Z" fill="#FFB6B6"/>
<path d="M117.823 230.042L127.85 230.042V229.915C127.85 228.878 127.439 227.885 126.707 227.152C125.975 226.419 124.982 226.007 123.947 226.007L122.115 224.616L118.698 226.007L117.823 226.007L117.823 230.042Z" fill="#2F2E41"/>
<path d="M142.003 147.767L144.308 155.68L141.592 189.196C141.592 189.196 142.991 191.292 142.003 191.292C141.015 191.292 139.748 191.757 140.546 193.008C141.344 194.259 138.616 198.752 138.616 198.752L134.757 222.617L129.841 222.544C129.841 222.544 127.341 221.15 128.744 219.74C130.147 218.33 131.135 218.33 129.817 217.011C128.5 215.692 128.5 216.089 128.5 215.066C128.5 214.044 127.18 201.542 130.31 196.747L129.367 177.195L127.146 196.373L122.572 221.957L117.835 221.918C117.835 221.918 115.648 219.807 115.652 218.244C115.656 216.681 117.003 216.552 116 215.627C114.997 214.703 114.997 200.504 117.961 192.611C117.961 192.611 119.638 188.201 117.957 186.69C116.277 185.179 117.955 183.45 117.955 183.45C117.955 183.45 120.617 182.486 117.953 179.711C115.289 176.935 117.938 157.306 117.938 157.306C117.938 157.306 115.026 149.382 117.976 146.266C120.925 143.15 142.003 147.767 142.003 147.767Z" fill="#2F2E41"/>
<path d="M100.943 161.401L105.056 151.449L108.297 153.252L106.339 163.375C106.535 164.017 106.549 164.7 106.378 165.349C106.208 165.997 105.86 166.586 105.373 167.047C104.887 167.508 104.282 167.825 103.626 167.961C102.97 168.097 102.289 168.047 101.66 167.817C101.031 167.587 100.478 167.185 100.064 166.658C99.6503 166.131 99.3915 165.498 99.317 164.831C99.2425 164.165 99.3552 163.491 99.6424 162.885C99.9296 162.279 100.38 161.765 100.943 161.401Z" fill="#FFB6B6"/>
<path d="M169.963 82.7029L163.705 91.4631L160.956 88.9723L165.154 79.5557C165.108 78.8865 165.25 78.2178 165.563 77.6248C165.876 77.0318 166.348 76.5379 166.926 76.1988C167.504 75.8596 168.165 75.6886 168.834 75.7049C169.504 75.7213 170.156 75.9243 170.717 76.2913C171.277 76.6582 171.725 77.1745 172.009 77.7821C172.292 78.3897 172.401 79.0645 172.323 79.7306C172.245 80.3968 171.982 81.0279 171.566 81.5529C171.149 82.078 170.594 82.4762 169.963 82.7029Z" fill="#FFB6B6"/>
<path d="M142.624 148.578C146.683 154.882 126.278 162.882 118.449 159.67C117.078 159.108 112.362 157.25 115.586 154.675C118.809 152.1 115.212 151.737 115.127 150.061C115.07 148.94 115.937 146.481 115.032 146.587C114.128 146.692 113.07 145.142 115.039 144.475C117.009 143.808 115.06 143.2 115.077 142.566C115.266 135.657 120.561 124.666 120.561 124.666L111.02 149.085C111.02 149.085 111.09 153.31 109.873 152.019C108.657 150.728 108.745 154.906 108.745 154.906C108.745 154.906 106.936 156.171 107.976 156.874C109.017 157.578 106.856 159.741 106.856 159.741L101.815 159.38C101.815 159.38 101.894 155.631 102.755 154.802C103.616 153.973 103.193 152.668 103.193 152.668C103.193 152.668 105.434 150.682 103.931 149.069C101.999 146.995 109.044 111.964 111.475 112.311C111.819 110.636 112.619 109.089 113.786 107.841C114.953 106.592 116.442 105.691 118.088 105.237L123.533 103.737L124.5 99.8959H132.166L133.502 102.419L139.33 105.053C140.428 103.502 141.249 101.868 145.744 101.338C145.744 101.338 157.858 90.3027 157.267 89.4411C156.675 88.5794 158.553 86.5621 158.553 86.5621C158.553 86.5621 160.157 86.0366 159.252 85.756C158.347 85.4755 160.058 84.8268 160.058 84.8268C160.058 84.8268 161.642 84.41 160.895 83.8612C160.147 83.3124 163.388 82.9519 163.388 82.9519L167.593 86.3867L166.743 87.8294C166.743 87.8294 167.261 89.794 166.585 89.0768C165.909 88.3596 165.781 90.4409 165.781 90.4409C165.781 90.4409 165.436 92.7201 163.388 93.4067C161.34 94.0934 159.787 100.617 159.787 100.617C154.958 106.904 149.258 111.809 142.504 115.037C145.136 118.062 142.624 148.578 142.624 148.578Z" fill="#3E7B27"/>
<path d="M127.762 97.6484C131.956 97.6484 135.355 94.2448 135.355 90.0461C135.355 85.8475 131.956 82.4438 127.762 82.4438C123.569 82.4438 120.169 85.8475 120.169 90.0461C120.169 94.2448 123.569 97.6484 127.762 97.6484Z" fill="#FFB6B6"/>
<path d="M119.9 90.8742C120.14 92.5261 121.546 94.831 121.217 94.831C120.888 94.831 118.546 88.0209 120.888 87.5768C122.586 87.2547 122.966 87.5372 124.553 86.8481L124.329 87.0591C125.38 87.8241 126.842 87.3526 128.041 86.8547C129.243 86.3601 130.702 85.8886 131.756 86.6502C132.418 87.1284 132.698 87.9593 133.109 88.6649C133.521 89.3739 134.282 90.0432 135.066 89.8256C135.695 89.6508 136.057 88.9452 136.054 88.2923C136.05 87.6395 135.201 87.0184 135.487 86.4326C136.335 84.6967 135.572 83.5136 133.725 82.6967C133.053 82.5945 132.381 82.4901 131.71 82.3835C132.062 81.8952 132.488 81.4657 132.974 81.1107C132.769 80.5838 132.414 80.1287 131.953 79.8016C131.416 79.4818 130.751 79.5049 130.129 79.5378C128.739 79.6104 127.35 79.6829 125.963 79.7555C124.935 79.8082 123.871 79.8709 122.953 80.3424C121.806 80.9326 121.056 82.0834 120.509 83.254C119.284 85.8853 119.478 88.0022 119.9 90.8742Z" fill="#2F2E41"/>
<path d="M88.3127 230.899L162.99 231C163.094 231 163.194 230.959 163.267 230.885C163.341 230.811 163.382 230.712 163.382 230.607C163.382 230.503 163.341 230.403 163.267 230.33C163.194 230.256 163.094 230.215 162.99 230.215L88.3127 230.114C88.2087 230.114 88.1089 230.155 88.0354 230.229C87.9618 230.302 87.9205 230.402 87.9205 230.506C87.9205 230.61 87.9618 230.71 88.0354 230.784C88.1089 230.857 88.2087 230.899 88.3127 230.899Z" fill="#CACACA"/>
<path d="M61.3037 196.675C61.4414 195.728 60.4504 194.799 59.0902 194.601C57.7301 194.403 56.5158 195.01 56.3782 195.958C56.2405 196.905 57.2315 197.833 58.5917 198.032C59.9518 198.23 61.166 197.622 61.3037 196.675Z" fill="#E6E6E6"/>
<path d="M77.4978 195.093C77.6355 194.146 76.6444 193.217 75.2843 193.019C73.9241 192.821 72.7099 193.428 72.5723 194.376C72.4346 195.323 73.4256 196.251 74.7858 196.45C76.1459 196.648 77.3601 196.04 77.4978 195.093Z" fill="#3F3D56"/>
<path d="M56.8694 183.549C57.007 182.602 56.016 181.673 54.6559 181.475C53.2957 181.277 52.0815 181.884 51.9438 182.831C51.8062 183.779 52.7972 184.707 54.1573 184.905C55.5175 185.104 56.7317 184.496 56.8694 183.549Z" fill="#FF6584"/>
<path d="M49.8322 178.172C49.8388 177.303 49.3543 176.594 48.7502 176.589C48.146 176.585 47.6509 177.286 47.6443 178.156C47.6378 179.025 48.1222 179.734 48.7264 179.739C49.3305 179.743 49.8256 179.042 49.8322 178.172Z" fill="#E6E6E6"/>
<path d="M47.446 168.158C47.4525 167.288 46.9681 166.579 46.3639 166.575C45.7598 166.57 45.2647 167.271 45.2581 168.141C45.2515 169.011 45.736 169.72 46.3401 169.724C46.9443 169.729 47.4394 169.027 47.446 168.158Z" fill="#3F3D56"/>
<path d="M66.0025 185.783C66.009 184.913 65.5246 184.204 64.9205 184.2C64.3163 184.195 63.8212 184.896 63.8146 185.766C63.8081 186.636 64.2925 187.345 64.8967 187.349C65.5008 187.354 65.9959 186.652 66.0025 185.783Z" fill="#E6E6E6"/>
<path d="M58.1768 189.695C58.1834 188.825 57.6989 188.116 57.0947 188.112C56.4906 188.107 55.9955 188.808 55.9889 189.678C55.9824 190.548 56.4668 191.256 57.071 191.261C57.6751 191.266 58.1702 190.564 58.1768 189.695Z" fill="#FF6584"/>
<path d="M69.0703 196.925C69.0769 196.055 68.5925 195.347 67.9883 195.342C67.3842 195.337 66.8891 196.039 66.8825 196.908C66.8759 197.778 67.3604 198.487 67.9645 198.491C68.5687 198.496 69.0638 197.795 69.0703 196.925Z" fill="#3F3D56"/>
<path d="M185.793 145.896C185.931 144.948 184.94 144.02 183.58 143.822C182.22 143.624 181.005 144.231 180.868 145.178C180.73 146.126 181.721 147.054 183.081 147.252C184.441 147.45 185.656 146.843 185.793 145.896Z" fill="#E6E6E6"/>
<path d="M201.987 144.314C202.125 143.366 201.134 142.438 199.774 142.24C198.414 142.042 197.199 142.649 197.062 143.596C196.924 144.544 197.915 145.472 199.275 145.67C200.635 145.868 201.85 145.261 201.987 144.314Z" fill="#3F3D56"/>
<path d="M181.359 132.77C181.496 131.822 180.505 130.894 179.145 130.696C177.785 130.497 176.571 131.105 176.433 132.052C176.295 132.999 177.286 133.928 178.647 134.126C180.007 134.324 181.221 133.717 181.359 132.77Z" fill="#FF6584"/>
<path d="M174.322 127.393C174.328 126.523 173.844 125.815 173.24 125.81C172.635 125.805 172.14 126.507 172.134 127.376C172.127 128.246 172.612 128.955 173.216 128.959C173.82 128.964 174.315 128.263 174.322 127.393Z" fill="#E6E6E6"/>
<path d="M171.935 117.378C171.942 116.509 171.458 115.8 170.853 115.795C170.249 115.791 169.754 116.492 169.748 117.362C169.741 118.231 170.225 118.94 170.83 118.945C171.434 118.949 171.929 118.248 171.935 117.378Z" fill="#3F3D56"/>
<path d="M190.492 135.003C190.499 134.134 190.014 133.425 189.41 133.42C188.806 133.416 188.311 134.117 188.304 134.987C188.298 135.856 188.782 136.565 189.386 136.57C189.99 136.574 190.485 135.873 190.492 135.003Z" fill="#E6E6E6"/>
<path d="M182.666 138.915C182.673 138.046 182.188 137.337 181.584 137.332C180.98 137.328 180.485 138.029 180.478 138.899C180.472 139.768 180.956 140.477 181.56 140.482C182.165 140.486 182.66 139.785 182.666 138.915Z" fill="#FF6584"/>
<path d="M193.56 146.146C193.566 145.276 193.082 144.567 192.478 144.563C191.874 144.558 191.379 145.259 191.372 146.129C191.365 146.999 191.85 147.708 192.454 147.712C193.058 147.717 193.553 147.015 193.56 146.146Z" fill="#3F3D56"/>
<path d="M125.525 51.9212C125.662 50.9738 124.671 50.0452 123.311 49.8471C121.951 49.649 120.737 50.2563 120.599 51.2036C120.461 52.151 121.452 53.0796 122.812 53.2777C124.173 53.4758 125.387 52.8685 125.525 51.9212Z" fill="white"/>
<path d="M141.718 50.3389C141.856 49.3916 140.865 48.463 139.505 48.2649C138.145 48.0667 136.931 48.6741 136.793 49.6214C136.655 50.5687 137.646 51.4973 139.006 51.6954C140.367 51.8936 141.581 51.2862 141.718 50.3389Z" fill="#3F3D56"/>
<path d="M121.09 38.7949C121.228 37.8476 120.237 36.919 118.877 36.7209C117.516 36.5228 116.302 37.1301 116.165 38.0774C116.027 39.0248 117.018 39.9533 118.378 40.1515C119.738 40.3496 120.952 39.7423 121.09 38.7949Z" fill="#FF6584"/>
<path d="M114.053 33.4182C114.06 32.5485 113.575 31.8397 112.971 31.8352C112.367 31.8306 111.872 32.5319 111.865 33.4016C111.859 34.2713 112.343 34.98 112.947 34.9846C113.551 34.9892 114.046 34.2879 114.053 33.4182Z" fill="#E6E6E6"/>
<path d="M111.667 23.4038C111.673 22.5341 111.189 21.8253 110.585 21.8208C109.98 21.8162 109.485 22.5175 109.479 23.3872C109.472 24.2569 109.957 24.9656 110.561 24.9702C111.165 24.9748 111.66 24.2735 111.667 23.4038Z" fill="#3F3D56"/>
<path d="M130.223 41.0288C130.23 40.1591 129.745 39.4503 129.141 39.4458C128.537 39.4412 128.042 40.1425 128.035 41.0122C128.029 41.8819 128.513 42.5906 129.117 42.5952C129.722 42.5998 130.217 41.8985 130.223 41.0288Z" fill="#E6E6E6"/>
<path d="M122.398 44.9406C122.404 44.0709 121.92 43.3622 121.316 43.3577C120.711 43.3531 120.216 44.0544 120.21 44.9241C120.203 45.7938 120.688 46.5025 121.292 46.5071C121.896 46.5116 122.391 45.8103 122.398 44.9406Z" fill="#FF6584"/>
<path d="M133.291 52.1711C133.298 51.3014 132.813 50.5927 132.209 50.5881C131.605 50.5836 131.11 51.2848 131.103 52.1545C131.097 53.0242 131.581 53.733 132.185 53.7375C132.79 53.7421 133.285 53.0408 133.291 52.1711Z" fill="#3F3D56"/>
</g>
<defs>
<clipPath id="clip0_224_3518">
<rect width="202" height="231" fill="white"/>
</clipPath>
</defs>
</svg>
