<svg width="127" height="114" viewBox="0 0 127 114" fill="none" xmlns="http://www.w3.org/2000/svg">
<path d="M109.347 103.131H21.9332C20.2067 103.129 18.5516 102.442 17.3308 101.221C16.11 99.9993 15.4234 98.3432 15.4214 96.6157V20.2393C15.4235 18.5119 16.1102 16.8559 17.3309 15.6344C18.5517 14.413 20.2068 13.7259 21.9332 13.7239H109.347C111.074 13.7258 112.729 14.4129 113.95 15.6343C115.171 16.8558 115.857 18.5119 115.859 20.2393V96.6162C115.857 98.3436 115.171 99.9997 113.95 101.221C112.729 102.443 111.074 103.13 109.347 103.131Z" fill="white"/>
<path d="M88.6923 34.3972H45.7634C44.3606 34.3972 43.2234 35.535 43.2234 36.9386V79.8916C43.2234 81.2952 44.3606 82.4331 45.7634 82.4331H88.6923C90.0951 82.4331 91.2323 81.2952 91.2323 79.8916V36.9386C91.2323 35.535 90.0951 34.3972 88.6923 34.3972Z" fill="#F2F2F2"/>
<path d="M109.347 103.337H21.933C20.1521 103.335 18.4448 102.626 17.1855 101.366C15.9263 100.106 15.218 98.398 15.216 96.6161V20.2392C15.2181 18.4574 15.9264 16.7491 17.1857 15.4892C18.4449 14.2293 20.1522 13.5206 21.933 13.5186H109.347C111.128 13.5205 112.835 14.2292 114.095 15.4892C115.354 16.7492 116.062 18.4575 116.064 20.2393V96.6161C116.062 98.398 115.354 100.106 114.095 101.366C112.835 102.626 111.128 103.335 109.347 103.337ZM21.933 13.9292C20.2611 13.9311 18.6581 14.5966 17.4759 15.7795C16.2937 16.9624 15.6286 18.5663 15.6267 20.2392V96.6161C15.6285 98.2891 16.2936 99.8931 17.4759 101.076C18.6582 102.259 20.2612 102.925 21.9333 102.927H109.347C111.019 102.925 112.622 102.259 113.805 101.076C114.987 99.8932 115.652 98.2892 115.654 96.6161V20.2392C115.652 18.5662 114.987 16.9623 113.805 15.7793C112.623 14.5963 111.02 13.9309 109.347 13.929L21.933 13.9292Z" fill="#090814"/>
<path d="M5.60521 75.9572C5.02404 75.9553 4.46165 75.7511 4.01449 75.3796C3.56733 75.0082 3.26327 74.4926 3.15444 73.9214L0.045648 57.5737C-0.0780196 56.9362 0.0518615 56.2755 0.40765 55.7323C0.763439 55.1892 1.31704 54.8064 1.95064 54.6654L15.876 51.5094C16.2003 51.4359 16.536 51.4278 16.8635 51.4856C17.191 51.5434 17.5036 51.666 17.7832 51.8462C18.0627 52.0263 18.3036 52.2605 18.4916 52.5349C18.6796 52.8093 18.8111 53.1185 18.8783 53.4444L22.2661 69.8664C22.3973 70.512 22.2695 71.1834 21.9104 71.7356C21.5513 72.2878 20.9896 72.6766 20.3465 72.8183L6.14163 75.8994C5.96556 75.9378 5.78589 75.9572 5.60569 75.9574L5.60521 75.9572Z" fill="#F2F2F2"/>
<path d="M4.53496 61.2313C4.35589 61.2312 4.18329 61.1643 4.05101 61.0435C3.91873 60.9228 3.83631 60.7569 3.81991 60.5785C3.80352 60.4001 3.85433 60.222 3.96238 60.0791C4.07043 59.9362 4.22793 59.8389 4.40399 59.8062L15.6619 57.7017C15.8485 57.6682 16.0408 57.7099 16.1968 57.8177C16.3528 57.9255 16.4599 58.0906 16.4947 58.2771C16.5295 58.4636 16.4892 58.6562 16.3826 58.8131C16.2759 58.97 16.1117 59.0783 15.9256 59.1144L4.66831 61.2189C4.62455 61.2271 4.58012 61.2313 4.53559 61.2313H4.53496Z" fill="#3E7B27"/>
<path d="M5.56103 65.5425C5.38499 65.5425 5.21508 65.4779 5.08356 65.3608C4.95205 65.2437 4.86809 65.0824 4.84764 64.9074C4.82719 64.7325 4.87167 64.5561 4.97263 64.4118C5.07359 64.2675 5.22401 64.1654 5.3953 64.1247L15.9928 61.5992C16.085 61.5758 16.181 61.571 16.2751 61.585C16.3693 61.599 16.4597 61.6316 16.5411 61.6809C16.6225 61.7302 16.6933 61.7952 16.7494 61.8721C16.8055 61.949 16.8458 62.0363 16.8679 62.1289C16.89 62.2216 16.8935 62.3176 16.8781 62.4116C16.8628 62.5056 16.8289 62.5956 16.7785 62.6763C16.7281 62.7571 16.6621 62.827 16.5845 62.8821C16.5068 62.9371 16.419 62.9762 16.3262 62.997L5.72804 65.5227C5.67337 65.5357 5.61738 65.5423 5.56119 65.5424L5.56103 65.5425Z" fill="#3E7B27"/>
<path d="M6.2789 69.7139C6.10142 69.7138 5.93027 69.6479 5.79847 69.5289C5.66667 69.41 5.58355 69.2464 5.56515 69.0698C5.54675 68.8932 5.59437 68.716 5.69882 68.5724C5.80326 68.4288 5.95715 68.3291 6.13079 68.2923L13.3607 66.7605C13.453 66.7409 13.5482 66.7397 13.6409 66.757C13.7336 66.7743 13.822 66.8096 13.901 66.8611C13.98 66.9125 14.0482 66.979 14.1015 67.0568C14.1549 67.1346 14.1924 67.2222 14.2119 67.3145C14.2315 67.4068 14.2326 67.502 14.2154 67.5948C14.1981 67.6875 14.1628 67.776 14.1114 67.8551C14.0599 67.9342 13.9935 68.0023 13.9157 68.0557C13.838 68.1091 13.7505 68.1466 13.6582 68.1662L6.4286 69.698C6.37939 69.7085 6.32922 69.7138 6.2789 69.7139Z" fill="#3E7B27"/>
<path d="M119.738 23.6294C119.608 23.6293 119.479 23.6192 119.351 23.5991L104.992 21.345C104.662 21.2931 104.346 21.1758 104.063 20.9999C103.779 20.824 103.533 20.5931 103.34 20.3207C103.147 20.0484 103.01 19.7401 102.938 19.4141C102.866 19.0881 102.86 18.7509 102.92 18.4224L105.915 2.0531C106.03 1.41393 106.39 0.844789 106.917 0.466618C107.445 0.0884484 108.099 -0.068939 108.741 0.0279022L122.866 2.11171C123.195 2.16032 123.511 2.27404 123.795 2.4462C124.08 2.61836 124.327 2.84551 124.523 3.11439C124.719 3.38327 124.859 3.68848 124.935 4.01219C125.012 4.33589 125.023 4.67161 124.968 4.99971L122.206 21.5394C122.106 22.1229 121.804 22.6524 121.353 23.0348C120.901 23.4172 120.329 23.6277 119.738 23.6294Z" fill="#F2F2F2"/>
<path d="M120.302 9.23495C120.258 9.23495 120.214 9.2308 120.17 9.22256L108.911 7.12128C108.818 7.10492 108.728 7.07015 108.648 7.01897C108.568 6.96779 108.499 6.90123 108.445 6.82313C108.391 6.74504 108.352 6.65697 108.332 6.56402C108.313 6.47107 108.311 6.37509 108.329 6.28164C108.346 6.1882 108.382 6.09914 108.434 6.01962C108.486 5.9401 108.553 5.87172 108.632 5.81841C108.711 5.76511 108.799 5.72796 108.892 5.7091C108.985 5.69025 109.081 5.69007 109.174 5.70857L120.433 7.81032C120.609 7.84302 120.767 7.94036 120.875 8.08323C120.983 8.22611 121.033 8.40422 121.017 8.58263C121.001 8.76105 120.918 8.9269 120.786 9.04767C120.654 9.16843 120.481 9.23539 120.302 9.23542L120.302 9.23495Z" fill="#3E7B27"/>
<path d="M119.239 12.9954C119.206 12.9954 119.174 12.9932 119.141 12.9887L108.346 11.5179C108.16 11.4895 107.992 11.3889 107.879 11.2378C107.766 11.0868 107.717 10.8973 107.743 10.7104C107.768 10.5235 107.866 10.3541 108.015 10.2388C108.164 10.1234 108.353 10.0715 108.54 10.094L119.335 11.5649C119.515 11.5896 119.679 11.6818 119.794 11.8227C119.909 11.9637 119.966 12.1431 119.954 12.3246C119.942 12.5061 119.862 12.6762 119.729 12.8007C119.597 12.9252 119.422 12.9948 119.24 12.9954H119.239Z" fill="#3E7B27"/>
<path d="M114.907 16.8563C114.868 16.8562 114.829 16.853 114.791 16.8468L107.496 15.665C107.402 15.6507 107.312 15.6179 107.231 15.5686C107.15 15.5192 107.079 15.4543 107.023 15.3776C106.968 15.3008 106.927 15.2138 106.905 15.1215C106.883 15.0291 106.88 14.9334 106.895 14.8397C106.91 14.746 106.944 14.6562 106.994 14.5756C107.044 14.4949 107.109 14.425 107.187 14.3699C107.264 14.3147 107.351 14.2754 107.444 14.2542C107.536 14.233 107.632 14.2304 107.725 14.2464L115.021 15.4277C115.2 15.4556 115.362 15.5501 115.474 15.6923C115.586 15.8346 115.641 16.0139 115.626 16.1946C115.612 16.3752 115.53 16.5438 115.397 16.6665C115.263 16.7892 115.089 16.857 114.908 16.8563H114.907Z" fill="#3E7B27"/>
<path d="M90.0618 49.2236C89.022 49.8548 87.1695 50.6455 85.2764 49.8329L84.0526 49.3075L86.5048 46.5251C84.5464 44.331 83.4653 41.4915 83.4682 38.5497C83.4711 35.608 84.5579 32.7706 86.5207 30.5804C88.4676 28.4036 91.1625 27.0401 94.0687 26.7615C96.975 26.4829 99.8795 27.3095 102.204 29.0768C104.54 30.8625 106.135 33.4477 106.683 36.337C107.232 39.2263 106.696 42.2166 105.178 44.735C103.681 47.2445 101.296 49.0991 98.4953 49.9306C95.695 50.7621 92.6847 50.5098 90.0618 49.2236Z" fill="#3E7B27"/>
<path d="M89.6272 35.0974H100.852C101.067 35.0974 101.274 35.183 101.426 35.3352C101.578 35.4875 101.663 35.694 101.663 35.9093C101.663 36.1246 101.578 36.3312 101.426 36.4834C101.274 36.6357 101.067 36.7212 100.852 36.7212H89.6272C89.412 36.7212 89.2056 36.6357 89.0535 36.4834C88.9013 36.3312 88.8158 36.1246 88.8158 35.9093C88.8158 35.694 88.9013 35.4875 89.0535 35.3352C89.2056 35.183 89.412 35.0974 89.6272 35.0974Z" fill="white"/>
<path d="M89.6272 37.804H100.852C101.067 37.804 101.274 37.8895 101.426 38.0418C101.578 38.194 101.663 38.4005 101.663 38.6159C101.663 38.8312 101.578 39.0377 101.426 39.19C101.274 39.3422 101.067 39.4278 100.852 39.4278H89.6272C89.412 39.4278 89.2056 39.3422 89.0535 39.19C88.9013 39.0377 88.8158 38.8312 88.8158 38.6159C88.8158 38.4005 88.9013 38.194 89.0535 38.0418C89.2056 37.8895 89.412 37.804 89.6272 37.804Z" fill="white"/>
<path d="M89.6272 40.5098H97.0653C97.2805 40.5098 97.4869 40.5953 97.6391 40.7476C97.7912 40.8998 97.8767 41.1063 97.8767 41.3217C97.8767 41.537 97.7912 41.7435 97.6391 41.8958C97.4869 42.048 97.2805 42.1336 97.0653 42.1336H89.6272C89.412 42.1336 89.2056 42.048 89.0535 41.8958C88.9013 41.7435 88.8158 41.537 88.8158 41.3217C88.8158 41.1063 88.9013 40.8998 89.0535 40.7476C89.2056 40.5953 89.412 40.5098 89.6272 40.5098Z" fill="white"/>
<path d="M55.0722 53.592C54.963 53.5987 54.8539 53.6079 54.7461 53.6238C52.5554 53.9097 50.9044 55.6425 50.8458 57.7201C50.7872 59.7977 52.3357 61.6116 54.5077 62.0064C54.6155 62.0253 54.7231 62.0415 54.8321 62.054C54.2944 60.7015 54.0383 59.2533 54.0795 57.7982C54.1208 56.3432 54.4586 54.9119 55.0722 53.592Z" fill="#090814"/>
<path d="M67.1612 71.648C74.4583 71.648 80.3738 65.7292 80.3738 58.428C80.3738 51.1268 74.4583 45.208 67.1612 45.208C59.8641 45.208 53.9487 51.1268 53.9487 58.428C53.9487 65.7292 59.8641 71.648 67.1612 71.648Z" fill="#090814"/>
<path d="M67.1613 71.3834C74.3124 71.3834 80.1095 65.5831 80.1095 58.4279C80.1095 51.2728 74.3124 45.4724 67.1613 45.4724C60.0101 45.4724 54.213 51.2728 54.213 58.4279C54.213 65.5831 60.0101 71.3834 67.1613 71.3834Z" fill="white"/>
<path d="M79.3834 53.592C79.4926 53.5987 79.6016 53.6079 79.7094 53.6238C81.9002 53.9097 83.5512 55.6425 83.6099 57.7201C83.6686 59.7977 82.1199 61.6099 79.9477 62.0056C79.8401 62.0245 79.7323 62.0407 79.6232 62.0532C80.1609 60.7008 80.417 59.2528 80.3757 57.7979C80.3345 56.343 79.9968 54.9118 79.3834 53.592Z" fill="#090814"/>
<path d="M72.4766 55.7076H61.8461C61.567 55.7052 61.2901 55.7581 61.0315 55.8633C60.7729 55.9685 60.5377 56.1239 60.3394 56.3206C60.1412 56.5173 59.9838 56.7512 59.8764 57.0091C59.769 57.2669 59.7137 57.5435 59.7137 57.8228C59.7137 58.1021 59.769 58.3787 59.8764 58.6365C59.9838 58.8943 60.1412 59.1283 60.3394 59.325C60.5377 59.5216 60.7729 59.677 61.0315 59.7822C61.2901 59.8874 61.567 59.9404 61.8461 59.9379H72.4766C73.0341 59.9331 73.5671 59.7081 73.9596 59.312C74.3522 58.9158 74.5724 58.3806 74.5724 57.8228C74.5724 57.2649 74.3522 56.7297 73.9596 56.3336C73.5671 55.9374 73.0341 55.7124 72.4766 55.7076Z" fill="#090814"/>
<path d="M75.4147 64.8895C75.1446 64.6969 74.8215 64.5929 74.4899 64.5918H68.4282C68.0059 64.5918 67.6009 64.7596 67.3023 65.0584C67.0037 65.3572 66.836 65.7624 66.836 66.1849C66.836 66.6074 67.0037 67.0126 67.3023 67.3113C67.6009 67.6101 68.0059 67.7779 68.4282 67.7779H74.4902C74.5984 67.7785 74.7063 67.7678 74.8123 67.7462C74.9178 67.7234 75.021 67.6908 75.1206 67.649C75.3797 67.5372 75.6045 67.3586 75.7719 67.1313C75.9394 66.904 76.0434 66.6362 76.0733 66.3555C76.1033 66.0747 76.0581 65.7911 75.9424 65.5335C75.8267 65.276 75.6446 65.0539 75.4149 64.8899L75.4147 64.8895Z" fill="#090814"/>
<path d="M68.8319 66.9938C69.2783 66.9938 69.6402 66.6317 69.6402 66.185C69.6402 65.7383 69.2783 65.3762 68.8319 65.3762C68.3854 65.3762 68.0235 65.7383 68.0235 66.185C68.0235 66.6317 68.3854 66.9938 68.8319 66.9938Z" fill="#F1F1F1"/>
<path d="M71.4589 66.9938C71.9053 66.9938 72.2672 66.6317 72.2672 66.185C72.2672 65.7383 71.9053 65.3762 71.4589 65.3762C71.0124 65.3762 70.6505 65.7383 70.6505 66.185C70.6505 66.6317 71.0124 66.9938 71.4589 66.9938Z" fill="#F1F1F1"/>
<path d="M74.0858 66.9938C74.5323 66.9938 74.8942 66.6317 74.8942 66.185C74.8942 65.7383 74.5323 65.3762 74.0858 65.3762C73.6394 65.3762 73.2775 65.7383 73.2775 66.185C73.2775 66.6317 73.6394 66.9938 74.0858 66.9938Z" fill="#3E7B27"/>
<path d="M109.776 113.444C109.35 113.442 108.937 113.293 108.608 113.022C108.278 112.75 108.053 112.373 107.971 111.954L104.752 95.3438C104.701 95.0807 104.708 94.8098 104.773 94.5498C104.838 94.2898 104.958 94.0471 105.127 93.8386C105.295 93.6301 105.506 93.4609 105.747 93.3427C105.987 93.2246 106.25 93.1603 106.518 93.1545L122.071 92.8195C122.507 92.8078 122.932 92.9522 123.271 93.2266C123.609 93.5011 123.839 93.8875 123.917 94.3162L126.968 110.425C127.017 110.682 127.01 110.948 126.948 111.202C126.886 111.457 126.77 111.696 126.608 111.902C126.447 112.109 126.243 112.278 126.01 112.399C125.778 112.52 125.522 112.59 125.26 112.604L109.875 113.441C109.842 113.443 109.809 113.444 109.776 113.444Z" fill="#F2F2F2"/>
<path d="M116.875 104.897C116.288 105.505 115.601 105.976 114.756 106.127L115.154 106.658C115.489 106.08 115.673 105.404 115.687 104.691C115.68 104.599 115.641 104.509 115.576 104.44C115.512 104.372 115.428 104.329 115.342 104.322C114.408 104.189 113.585 103.205 113.451 102.23C113.295 101.101 113.838 100.052 114.686 99.5219C115.153 99.2211 115.705 99.0763 116.28 99.1038C116.855 99.1312 117.43 99.3299 117.94 99.6774C118.407 100 118.792 100.451 119.048 100.974C119.304 101.498 119.42 102.072 119.383 102.629C119.336 103.268 119.07 103.84 118.635 104.239C118.212 104.605 117.676 104.804 117.103 104.806C117.017 104.804 116.938 104.836 116.881 104.897C116.823 104.958 116.793 105.043 116.795 105.134C116.801 105.227 116.84 105.317 116.905 105.386C116.969 105.455 117.054 105.497 117.14 105.503C117.443 105.5 117.74 105.461 118.027 105.386C118.349 105.291 118.648 105.138 118.913 104.935C119.434 104.537 119.8 103.953 119.956 103.271C120.102 102.606 120.055 101.887 119.823 101.203C119.59 100.519 119.181 99.9005 118.647 99.4237C118.076 98.9239 117.402 98.5912 116.704 98.4637C116.005 98.3362 115.31 98.4191 114.698 98.7029C113.55 99.2104 112.743 100.436 112.771 101.836C112.801 103.33 113.951 104.816 115.38 105.019L115.034 104.65C115.015 105.243 114.855 105.803 114.569 106.278C114.422 106.536 114.71 106.855 114.966 106.81C115.919 106.639 116.707 106.097 117.369 105.413C117.652 105.119 117.16 104.603 116.876 104.897L116.875 104.897Z" fill="#3E7B27"/>
<path d="M114.968 101.91L114.981 101.473L114.495 101.76C114.871 102.02 115.29 102.295 115.729 102.302C115.939 102.316 116.142 102.264 116.312 102.151C116.482 102.038 116.612 101.869 116.687 101.665C116.697 101.633 116.742 101.465 116.743 101.465L116.618 101.536C116.566 101.515 116.567 101.519 116.621 101.55C116.646 101.575 116.671 101.599 116.697 101.621C116.787 101.715 116.894 101.785 117.009 101.825C117.124 101.866 117.243 101.876 117.356 101.854C117.835 101.739 117.92 101.201 117.904 100.724C117.888 100.253 117.215 100.211 117.231 100.681C117.235 100.808 117.262 101.012 117.182 101.11C117.136 101.165 117.128 101.115 117.067 101.06C116.92 100.907 116.73 100.817 116.537 100.808C116.432 100.813 116.334 100.851 116.255 100.919C116.177 100.987 116.121 101.08 116.095 101.188C116.057 101.308 116.053 101.415 115.963 101.488C115.889 101.539 115.803 101.568 115.711 101.571C115.388 101.583 115.066 101.333 114.793 101.143C114.74 101.11 114.682 101.091 114.623 101.088C114.565 101.085 114.508 101.099 114.46 101.128C114.411 101.156 114.371 101.199 114.345 101.252C114.318 101.305 114.305 101.366 114.307 101.43L114.294 101.866C114.3 101.963 114.341 102.058 114.408 102.13C114.474 102.203 114.561 102.247 114.651 102.253C114.739 102.257 114.822 102.224 114.881 102.159C114.94 102.095 114.971 102.006 114.968 101.91Z" fill="#3E7B27"/>
<path d="M115.805 102.826C115.846 102.871 115.872 102.929 115.878 102.989C115.883 103.048 115.868 103.106 115.835 103.149C115.813 103.172 115.786 103.188 115.755 103.196C115.725 103.203 115.693 103.203 115.661 103.193C115.728 103.213 115.619 103.156 115.68 103.203C115.696 103.213 115.712 103.225 115.727 103.237C115.698 103.212 115.693 103.207 115.711 103.223C115.745 103.229 115.799 103.298 115.834 103.325C115.856 103.342 115.877 103.357 115.9 103.371C115.988 103.428 116.085 103.462 116.183 103.472C116.452 103.487 116.615 103.303 116.73 103.077C116.748 103.041 116.766 103.004 116.785 102.969C116.79 102.961 116.794 102.953 116.799 102.945C116.817 102.916 116.811 102.924 116.78 102.971C116.79 102.957 116.801 102.944 116.812 102.932C116.842 102.883 116.75 102.973 116.795 102.946C116.825 102.93 116.812 102.935 116.757 102.96C116.79 102.952 116.776 102.952 116.717 102.96L116.74 102.961C116.712 102.96 116.683 102.95 116.659 102.932C116.67 102.938 116.68 102.944 116.69 102.951C116.712 102.966 116.704 102.96 116.668 102.931C116.708 102.946 116.764 103.032 116.793 103.066C116.828 103.107 116.865 103.145 116.904 103.179C116.98 103.252 117.068 103.307 117.162 103.339C117.256 103.37 117.354 103.378 117.446 103.361C117.53 103.341 117.599 103.284 117.638 103.204C117.677 103.124 117.683 103.027 117.656 102.934C117.626 102.841 117.565 102.76 117.485 102.709C117.406 102.657 117.315 102.638 117.231 102.656C117.259 102.65 117.289 102.653 117.318 102.665C117.283 102.653 117.288 102.657 117.334 102.677C117.319 102.669 117.305 102.66 117.292 102.65C117.329 102.682 117.333 102.685 117.304 102.658C117.256 102.606 117.211 102.552 117.163 102.501C117.099 102.426 117.023 102.364 116.939 102.319C116.856 102.274 116.767 102.247 116.677 102.24C116.376 102.228 116.238 102.481 116.112 102.719C116.099 102.739 116.087 102.76 116.076 102.782C116.108 102.737 116.114 102.727 116.094 102.754C116.087 102.763 116.08 102.772 116.072 102.78C116.044 102.826 116.137 102.738 116.089 102.766C116.059 102.782 116.072 102.778 116.128 102.753C116.095 102.761 116.108 102.761 116.168 102.753C116.131 102.75 116.136 102.752 116.183 102.759C116.148 102.745 116.152 102.748 116.196 102.767C116.183 102.77 116.119 102.714 116.109 102.704C116.147 102.736 116.149 102.738 116.117 102.71L116.046 102.651C116.016 102.626 115.984 102.603 115.951 102.582C115.85 102.514 115.735 102.48 115.623 102.486C115.51 102.492 115.407 102.538 115.329 102.616C115.288 102.659 115.256 102.711 115.236 102.769C115.216 102.827 115.207 102.891 115.211 102.955C115.214 103.02 115.23 103.085 115.256 103.146C115.283 103.208 115.32 103.264 115.366 103.312C115.434 103.381 115.521 103.422 115.609 103.426C115.697 103.43 115.779 103.398 115.838 103.335C115.895 103.27 115.924 103.181 115.918 103.085C115.912 102.99 115.871 102.897 115.805 102.826Z" fill="#3E7B27"/>
</svg>
