<svg width="138" height="88" viewBox="0 0 138 88" fill="none" xmlns="http://www.w3.org/2000/svg">
<g clip-path="url(#clip0_1107_1206)">
<path d="M128.234 77.7539H93.5681C92.3069 77.7525 91.0977 77.2509 90.2059 76.3591C89.3141 75.4673 88.8125 74.2582 88.811 72.9969V18.3152C88.8125 17.054 89.3141 15.8448 90.2059 14.953C91.0977 14.0612 92.3069 13.5595 93.5681 13.5581H128.234C129.495 13.5595 130.704 14.0612 131.596 14.953C132.488 15.8448 132.99 17.054 132.991 18.3152V72.9969C132.99 74.2582 132.488 75.4673 131.596 76.3591C130.704 77.2509 129.495 77.7525 128.234 77.7539Z" fill="#E6E6E6"/>
<path d="M128.809 16.3965H93.5027C93.1079 16.397 92.7294 16.554 92.4503 16.8332C92.1711 17.1124 92.014 17.4908 92.0135 17.8857V73.2804C92.0142 73.6752 92.1712 74.0536 92.4504 74.3327C92.7295 74.6119 93.108 74.769 93.5027 74.7696H128.809C129.204 74.7691 129.582 74.612 129.861 74.3329C130.141 74.0537 130.298 73.6752 130.298 73.2804V17.8857C130.298 17.4908 130.141 17.1124 129.861 16.8332C129.582 16.554 129.204 16.397 128.809 16.3965Z" fill="white"/>
<path d="M94.4155 13.558C94.4156 13.4615 94.454 13.369 94.5222 13.3008C94.5904 13.2326 94.6829 13.1942 94.7794 13.1941H97.2541C97.3506 13.1941 97.4431 13.2324 97.5114 13.3007C97.5796 13.3689 97.618 13.4615 97.618 13.558C97.618 13.6545 97.5796 13.7471 97.5114 13.8153C97.4431 13.8836 97.3506 13.9219 97.2541 13.9219H94.7794C94.6829 13.9218 94.5904 13.8834 94.5222 13.8152C94.454 13.747 94.4156 13.6545 94.4155 13.558Z" fill="#E6E6E6"/>
<path d="M98.4914 13.558C98.4915 13.4615 98.5299 13.369 98.5981 13.3008C98.6663 13.2326 98.7588 13.1942 98.8553 13.1941H101.33C101.427 13.1941 101.519 13.2324 101.587 13.3007C101.656 13.3689 101.694 13.4615 101.694 13.558C101.694 13.6545 101.656 13.7471 101.587 13.8153C101.519 13.8836 101.427 13.9219 101.33 13.9219H98.8553C98.7588 13.9218 98.6663 13.8834 98.5981 13.8152C98.5299 13.747 98.4915 13.6545 98.4914 13.558Z" fill="#E6E6E6"/>
<path d="M122.947 13.558C122.947 13.4615 122.985 13.369 123.054 13.3008C123.122 13.2326 123.214 13.1942 123.311 13.1941H125.785C125.882 13.1941 125.975 13.2324 126.043 13.3007C126.111 13.3689 126.149 13.4615 126.149 13.558C126.149 13.6545 126.111 13.7471 126.043 13.8153C125.975 13.8836 125.882 13.9219 125.785 13.9219H123.311C123.214 13.9218 123.122 13.8834 123.054 13.8152C122.985 13.747 122.947 13.6545 122.947 13.558Z" fill="#E6E6E6"/>
<path d="M116.048 73.6283C116.048 74.0112 116.041 74.3926 116.024 74.7696H93.5027C93.108 74.769 92.7295 74.6119 92.4504 74.3328C92.1712 74.0536 92.0142 73.6752 92.0135 73.2804V45.3982C98.7202 46.4817 104.822 49.9176 109.226 55.0903C113.63 60.2631 116.049 66.8348 116.048 73.6283Z" fill="#F2F2F2"/>
<path d="M115.284 30.6321H106.884C106.502 30.6321 106.192 30.9419 106.192 31.3241V32.1877C106.192 32.5699 106.502 32.8797 106.884 32.8797H115.284C115.666 32.8797 115.976 32.5699 115.976 32.1877V31.3241C115.976 30.9419 115.666 30.6321 115.284 30.6321Z" fill="#3E7B27"/>
<path d="M120.622 35.1272H101.546C101.164 35.1272 100.854 35.437 100.854 35.8192V36.6828C100.854 37.065 101.164 37.3749 101.546 37.3749H120.622C121.004 37.3749 121.314 37.065 121.314 36.6828V35.8192C121.314 35.437 121.004 35.1272 120.622 35.1272Z" fill="#E6E6E6"/>
<path d="M120.622 39.6226H101.546C101.164 39.6226 100.854 39.9324 100.854 40.3146V41.1782C100.854 41.5604 101.164 41.8702 101.546 41.8702H120.622C121.004 41.8702 121.314 41.5604 121.314 41.1782V40.3146C121.314 39.9324 121.004 39.6226 120.622 39.6226Z" fill="#E6E6E6"/>
<path d="M117.355 70.9839C117.246 70.989 117.138 70.9603 117.045 70.9017C116.953 70.8431 116.88 70.7575 116.838 70.6565C116.796 70.5555 116.786 70.444 116.809 70.337C116.832 70.23 116.888 70.1328 116.968 70.0584L117.005 69.913C117 69.9013 116.995 69.8897 116.99 69.8781C116.88 69.6178 116.696 69.3959 116.46 69.2403C116.224 69.0846 115.947 69.0021 115.665 69.0032C115.382 69.0042 115.106 69.0888 114.871 69.2462C114.637 69.4036 114.454 69.6268 114.345 69.8879C113.913 70.9298 113.362 71.9736 113.226 73.0752C113.167 73.5622 113.192 74.0558 113.301 74.5342C112.285 72.3177 111.757 69.9086 111.754 67.4704C111.753 66.8585 111.787 66.2471 111.856 65.639C111.912 65.1405 111.99 64.6456 112.09 64.1542C112.634 61.488 113.803 58.989 115.501 56.8624C116.323 56.414 116.988 55.7245 117.406 54.8867C117.557 54.5856 117.664 54.2641 117.723 53.9323C117.631 53.9444 117.536 53.952 117.444 53.9581C117.415 53.9596 117.384 53.9612 117.356 53.9627L117.345 53.9632C117.243 53.9678 117.142 53.9428 117.054 53.8913C116.966 53.8397 116.894 53.7639 116.849 53.6728C116.803 53.5817 116.784 53.4793 116.795 53.3779C116.806 53.2765 116.846 53.1805 116.91 53.1013C116.95 53.052 116.99 53.0028 117.03 52.9536C117.091 52.8776 117.153 52.8031 117.214 52.7271C117.221 52.7199 117.228 52.7123 117.234 52.7043C117.304 52.6177 117.374 52.5326 117.444 52.4459C117.316 52.2479 117.144 52.082 116.942 51.9612C116.242 51.5508 115.275 51.835 114.769 52.4688C114.261 53.1025 114.166 53.9916 114.342 54.7833C114.515 55.4571 114.802 56.0964 115.19 56.6739C115.152 56.7226 115.112 56.7697 115.074 56.8183C114.38 57.7114 113.775 58.6704 113.267 59.6816C113.39 58.5488 113.243 57.4028 112.837 56.3381C112.426 55.3457 111.655 54.51 110.976 53.6521C110.16 52.6217 108.488 53.0714 108.344 54.3776C108.343 54.3903 108.342 54.4029 108.34 54.4156C108.441 54.4725 108.54 54.5328 108.636 54.5967C108.758 54.6778 108.852 54.7936 108.906 54.9291C108.961 55.0645 108.973 55.2132 108.941 55.3556C108.91 55.4981 108.836 55.6277 108.729 55.7275C108.623 55.8273 108.489 55.8926 108.344 55.9148L108.33 55.9171C108.366 56.2806 108.429 56.6408 108.52 56.9946C108.782 57.9824 109.246 58.9054 109.881 59.7056C110.517 60.5059 111.311 61.1662 112.214 61.6451C112.273 61.6755 112.331 61.7059 112.39 61.7347C111.881 63.1796 111.561 64.6846 111.439 66.212C111.37 67.113 111.374 68.0182 111.451 68.9187L111.447 68.8868C111.252 67.8855 110.718 66.982 109.935 66.329C108.771 65.3731 107.127 65.021 105.871 64.2527C105.738 64.167 105.583 64.1213 105.424 64.1209C105.266 64.1205 105.11 64.1655 104.976 64.2505C104.843 64.3355 104.736 64.457 104.669 64.6007C104.602 64.7444 104.577 64.9042 104.598 65.0614C104.6 65.0726 104.601 65.0838 104.603 65.0949C104.79 65.1712 104.973 65.259 105.149 65.3579C105.25 65.4148 105.348 65.4752 105.445 65.539C105.566 65.6201 105.66 65.7359 105.715 65.8713C105.769 66.0068 105.781 66.1555 105.75 66.2979C105.718 66.4404 105.644 66.57 105.538 66.6698C105.431 66.7696 105.297 66.8349 105.153 66.8571L105.138 66.8594C105.128 66.8609 105.118 66.8624 105.108 66.864C105.428 67.6275 105.876 68.3302 106.435 68.9415C107.124 69.6814 107.957 70.2726 108.884 70.679C109.81 71.0854 110.809 71.2983 111.821 71.3047H111.822C112.097 72.4977 112.494 73.659 113.009 74.7698H117.249C117.264 74.7226 117.278 74.674 117.292 74.6269C116.899 74.6516 116.505 74.6281 116.118 74.557C116.433 74.171 116.748 73.7819 117.062 73.3959C117.069 73.3887 117.076 73.3811 117.082 73.3731C117.242 73.1755 117.403 72.9795 117.562 72.7819L117.562 72.7817C117.571 72.1761 117.501 71.5718 117.355 70.9839ZM112.5 61.4323L112.502 61.4293L112.5 61.4354V61.4323ZM111.561 69.8989L111.524 69.8169C111.526 69.7576 111.526 69.6983 111.524 69.6375C111.524 69.6208 111.521 69.6041 111.521 69.5874C111.535 69.6922 111.547 69.7971 111.562 69.902L111.561 69.8989Z" fill="#CCCCCC"/>
<path d="M127.044 21.2872H95.2675C95.1988 21.2857 95.1333 21.2573 95.0853 21.2082C95.0372 21.159 95.0103 21.093 95.0103 21.0242C95.0103 20.9555 95.0372 20.8894 95.0853 20.8403C95.1333 20.7911 95.1988 20.7627 95.2675 20.7612H127.044C127.113 20.7627 127.178 20.7911 127.226 20.8403C127.274 20.8894 127.301 20.9555 127.301 21.0242C127.301 21.093 127.274 21.159 127.226 21.2082C127.178 21.2573 127.113 21.2857 127.044 21.2872Z" fill="#CACACA"/>
<path d="M96.9629 20.0008C97.3898 20.0008 97.7359 19.647 97.7359 19.2106C97.7359 18.7742 97.3898 18.4204 96.9629 18.4204C96.5361 18.4204 96.19 18.7742 96.19 19.2106C96.19 19.647 96.5361 20.0008 96.9629 20.0008Z" fill="#3F3D56"/>
<path d="M99.6331 20.0008C100.06 20.0008 100.406 19.647 100.406 19.2106C100.406 18.7742 100.06 18.4204 99.6331 18.4204C99.2062 18.4204 98.8602 18.7742 98.8602 19.2106C98.8602 19.647 99.2062 20.0008 99.6331 20.0008Z" fill="#3F3D56"/>
<path d="M102.303 20.0008C102.73 20.0008 103.076 19.647 103.076 19.2106C103.076 18.7742 102.73 18.4204 102.303 18.4204C101.876 18.4204 101.53 18.7742 101.53 19.2106C101.53 19.647 101.876 20.0008 102.303 20.0008Z" fill="#3F3D56"/>
<path d="M125.802 18.7256H124.072C124.038 18.7263 124.005 18.7404 123.981 18.7649C123.957 18.7893 123.944 18.8223 123.944 18.8566C123.944 18.8909 123.957 18.9238 123.981 18.9483C124.005 18.9728 124.038 18.9869 124.072 18.9875H125.802C125.836 18.9869 125.869 18.9728 125.893 18.9483C125.917 18.9238 125.931 18.8909 125.931 18.8566C125.931 18.8223 125.917 18.7893 125.893 18.7649C125.869 18.7404 125.836 18.7263 125.802 18.7256Z" fill="#3F3D56"/>
<path d="M125.802 19.2173H124.072C124.038 19.218 124.005 19.2321 123.981 19.2565C123.957 19.281 123.944 19.314 123.944 19.3483C123.944 19.3826 123.957 19.4155 123.981 19.44C124.005 19.4645 124.038 19.4786 124.072 19.4792H125.802C125.836 19.4786 125.869 19.4645 125.893 19.44C125.917 19.4155 125.931 19.3826 125.931 19.3483C125.931 19.314 125.917 19.281 125.893 19.2565C125.869 19.2321 125.836 19.218 125.802 19.2173Z" fill="#3F3D56"/>
<path d="M125.802 19.7083H124.072C124.038 19.7089 124.005 19.723 123.981 19.7475C123.957 19.772 123.944 19.8049 123.944 19.8392C123.944 19.8735 123.957 19.9064 123.981 19.9309C124.005 19.9554 124.038 19.9695 124.072 19.9702H125.802C125.836 19.9695 125.869 19.9554 125.893 19.9309C125.917 19.9064 125.931 19.8735 125.931 19.8392C125.931 19.8049 125.917 19.772 125.893 19.7475C125.869 19.723 125.836 19.7089 125.802 19.7083Z" fill="#3F3D56"/>
<path d="M74.2447 45.4189H55.8214C55.5608 45.4193 55.311 45.5232 55.1269 45.7077C54.9429 45.8923 54.8396 46.1423 54.8399 46.403V75.5063H75.2287V46.403C75.2288 46.2737 75.2034 46.1457 75.1539 46.0263C75.1045 45.9069 75.032 45.7984 74.9406 45.707C74.8492 45.6156 74.7407 45.5431 74.6213 45.4937C74.5019 45.4443 74.3739 45.4189 74.2447 45.4189ZM65.095 61.9551C64.5189 61.9524 63.9671 61.7224 63.5597 61.315C63.1523 60.9076 62.9222 60.3558 62.9195 59.7796V56.4228C62.92 55.8462 63.1494 55.2933 63.5574 54.8857C63.9653 54.4781 64.5184 54.2492 65.095 54.2492C65.6717 54.2492 66.2247 54.4781 66.6326 54.8857C67.0406 55.2933 67.27 55.8462 67.2705 56.4228V59.7796C67.2678 60.3558 67.0378 60.9076 66.6304 61.315C66.223 61.7224 65.6712 61.9524 65.095 61.9551Z" fill="#E6E6E6"/>
<path d="M54.7767 74.5754V77.3833C54.777 77.5288 54.8349 77.6683 54.9378 77.7712C55.0407 77.874 55.1801 77.932 55.3256 77.9323H74.743C74.8884 77.9315 75.0276 77.8735 75.1304 77.7707C75.2332 77.6679 75.2912 77.5287 75.2919 77.3833V74.5754L54.7767 74.5754Z" fill="#CCCCCC"/>
<path d="M104.752 0H25.9997C25.3231 0.0010764 24.6745 0.270333 24.196 0.748765C23.7176 1.2272 23.4483 1.87578 23.4473 2.55239V55.6948C23.4479 56.3715 23.717 57.0204 24.1956 57.4989C24.6741 57.9774 25.3229 58.2465 25.9997 58.2472H104.752C105.429 58.2465 106.078 57.9774 106.556 57.4989C107.035 57.0204 107.304 56.3715 107.304 55.6948V2.55239C107.303 1.87578 107.034 1.2272 106.556 0.748765C106.077 0.270333 105.429 0.00107598 104.752 0Z" fill="#E6E6E6"/>
<path d="M104.095 1.84351H26.6576C26.2953 1.84429 25.9482 1.98875 25.6923 2.24518C25.4364 2.50162 25.2926 2.84909 25.2926 3.21136V55.0366C25.2932 55.3984 25.4372 55.7452 25.6931 56.0011C25.9489 56.257 26.2958 56.401 26.6576 56.4016H104.095C104.456 56.401 104.803 56.257 105.059 56.0011C105.315 55.7452 105.459 55.3984 105.46 55.0366V3.21136C105.46 2.84909 105.316 2.50162 105.06 2.24518C104.804 1.98875 104.457 1.84429 104.095 1.84351Z" fill="white"/>
<path d="M105.46 3.21136V55.0366C105.459 55.3984 105.315 55.7452 105.059 56.0011C104.803 56.257 104.456 56.401 104.095 56.4016H76.7886C73.7679 53.6002 71.2897 50.2657 69.4783 46.5655C69.3591 46.3271 69.2456 46.0859 69.1378 45.8419C67.4873 42.2605 66.4879 38.4137 66.1864 34.4819C66.1665 34.2407 66.1495 33.9994 66.1381 33.7554C66.1012 33.131 66.0842 32.4982 66.0842 31.8625C66.0788 27.6347 66.8771 23.4445 68.4368 19.5149C68.5304 19.2709 68.6298 19.0296 68.7319 18.7884C71.8708 11.4136 77.5425 5.40372 84.7233 1.84351H104.095C104.457 1.84429 104.804 1.98875 105.06 2.24518C105.316 2.50162 105.46 2.84909 105.46 3.21136Z" fill="#3E7B27"/>
<path d="M100.202 8.984H27.7445C27.6692 8.98239 27.5974 8.95133 27.5447 8.89747C27.492 8.84361 27.4625 8.77123 27.4625 8.69586C27.4625 8.62048 27.492 8.54811 27.5447 8.49425C27.5974 8.44038 27.6692 8.40932 27.7445 8.40771H100.202C100.277 8.40932 100.349 8.44038 100.402 8.49425C100.455 8.54811 100.484 8.62048 100.484 8.69586C100.484 8.77123 100.455 8.84361 100.402 8.89747C100.349 8.95133 100.277 8.98239 100.202 8.984Z" fill="#CACACA"/>
<path d="M32.6768 6.93646C33.6094 6.93646 34.3655 6.16357 34.3655 5.21017C34.3655 4.25677 33.6094 3.48389 32.6768 3.48389C31.7442 3.48389 30.9882 4.25677 30.9882 5.21017C30.9882 6.16357 31.7442 6.93646 32.6768 6.93646Z" fill="#3F3D56"/>
<path d="M38.5103 6.93646C39.4429 6.93646 40.199 6.16357 40.199 5.21017C40.199 4.25677 39.4429 3.48389 38.5103 3.48389C37.5777 3.48389 36.8217 4.25677 36.8217 5.21017C36.8217 6.16357 37.5777 6.93646 38.5103 6.93646Z" fill="#3F3D56"/>
<path d="M44.3439 6.93646C45.2765 6.93646 46.0325 6.16357 46.0325 5.21017C46.0325 4.25677 45.2765 3.48389 44.3439 3.48389C43.4113 3.48389 42.6552 4.25677 42.6552 5.21017C42.6552 6.16357 43.4113 6.93646 44.3439 6.93646Z" fill="#3F3D56"/>
<path d="M96.6897 3.91162H92.5459C92.4638 3.91325 92.3855 3.94702 92.328 4.00568C92.2705 4.06435 92.2383 4.14323 92.2383 4.22538C92.2383 4.30754 92.2705 4.38642 92.328 4.44509C92.3855 4.50375 92.4638 4.53752 92.5459 4.53915H96.6897C96.7719 4.53752 96.8501 4.50375 96.9076 4.44509C96.9651 4.38642 96.9974 4.30754 96.9974 4.22538C96.9974 4.14323 96.9651 4.06435 96.9076 4.00568C96.8501 3.94702 96.7719 3.91325 96.6897 3.91162Z" fill="#3F3D56"/>
<path d="M96.6897 5.0896H92.5459C92.4638 5.09122 92.3855 5.125 92.328 5.18366C92.2705 5.24233 92.2383 5.32121 92.2383 5.40336C92.2383 5.48552 92.2705 5.5644 92.328 5.62306C92.3855 5.68173 92.4638 5.7155 92.5459 5.71712H96.6897C96.7719 5.7155 96.8501 5.68173 96.9076 5.62306C96.9651 5.5644 96.9974 5.48552 96.9974 5.40336C96.9974 5.32121 96.9651 5.24233 96.9076 5.18366C96.8501 5.125 96.7719 5.09122 96.6897 5.0896Z" fill="#3F3D56"/>
<path d="M96.6897 6.26562H92.5459C92.4638 6.26725 92.3855 6.30102 92.328 6.35969C92.2705 6.41835 92.2383 6.49723 92.2383 6.57939C92.2383 6.66154 92.2705 6.74042 92.328 6.79909C92.3855 6.85775 92.4638 6.89153 92.5459 6.89315H96.6897C96.7719 6.89153 96.8501 6.85775 96.9076 6.79909C96.9651 6.74042 96.9974 6.66154 96.9974 6.57939C96.9974 6.49723 96.9651 6.41835 96.9076 6.35969C96.8501 6.30102 96.7719 6.26725 96.6897 6.26562Z" fill="#3F3D56"/>
<path d="M49.9301 25.8176H39.7976C39.4154 25.8176 39.1055 26.1275 39.1055 26.5097V27.5883C39.1055 27.9705 39.4154 28.2803 39.7976 28.2803H49.9301C50.3123 28.2803 50.6222 27.9705 50.6222 27.5883V26.5097C50.6222 26.1275 50.3123 25.8176 49.9301 25.8176Z" fill="#3E7B27"/>
<path d="M55.779 30.7429H33.9486C33.5664 30.7429 33.2566 31.0528 33.2566 31.435V32.5136C33.2566 32.8958 33.5664 33.2056 33.9486 33.2056H55.779C56.1612 33.2056 56.471 32.8958 56.471 32.5136V31.435C56.471 31.0528 56.1612 30.7429 55.779 30.7429Z" fill="#E6E6E6"/>
<path d="M55.779 35.6685H33.9486C33.5664 35.6685 33.2566 35.9783 33.2566 36.3605V37.4391C33.2566 37.8213 33.5664 38.1312 33.9486 38.1312H55.779C56.1612 38.1312 56.471 37.8213 56.471 37.4391V36.3605C56.471 35.9783 56.1612 35.6685 55.779 35.6685Z" fill="#E6E6E6"/>
<path d="M35.1514 53.4304C35.1531 54.4447 34.9724 55.4512 34.6178 56.4016H26.6576C26.2958 56.401 25.9489 56.257 25.6931 56.0011C25.4372 55.7453 25.2932 55.3984 25.2926 55.0366V45.0246C25.7374 44.9527 26.1872 44.9166 26.6378 44.9167C27.7558 44.9167 28.8629 45.1368 29.8959 45.5647C30.9288 45.9925 31.8674 46.6196 32.6579 47.4102C33.4485 48.2007 34.0756 49.1393 34.5035 50.1723C34.9313 51.2052 35.1514 52.3123 35.1514 53.4304Z" fill="#3E7B27"/>
<path opacity="0.2" d="M105.531 19.5149V18.7884H93.3533V10.3684H92.6296V18.7884H78.673V10.3684H77.9493V18.7884H68.7319C68.6298 19.0296 68.5304 19.2708 68.4368 19.5149H77.9493V33.7553H66.1381C66.1495 33.9994 66.1665 34.2406 66.1864 34.4818H77.9493V45.8418H69.1378C69.2456 46.0859 69.3591 46.3271 69.4783 46.5655H77.9493V56.1149H78.673V46.5655H92.6296V56.1149H93.3533V46.5655H105.531V45.8418H93.3533C93.3533 44.35 93.6472 42.8728 94.218 41.4945C94.7889 40.1163 95.6257 38.8639 96.6806 37.8091C97.7355 36.7542 98.9878 35.9174 100.366 35.3465C101.744 34.7756 103.222 34.4818 104.713 34.4818H105.531V33.7553H93.3533V19.5149H105.531ZM92.6296 45.8418H78.673V34.4818H92.6296V45.8418ZM92.6296 33.7553H78.673V33.4715C78.673 29.77 80.1434 26.22 82.7608 23.6027C85.3782 20.9853 88.9281 19.5149 92.6296 19.5149L92.6296 33.7553Z" fill="black"/>
<path d="M95.726 51.0251C95.5706 51.0322 95.4169 50.9914 95.2855 50.9083C95.1541 50.8251 95.0515 50.7035 94.9915 50.5601C94.9315 50.4166 94.9171 50.2582 94.9501 50.1063C94.9832 49.9543 95.0622 49.8162 95.1764 49.7107C95.1955 49.6347 95.2092 49.5801 95.2283 49.5041C95.2215 49.4875 95.2146 49.471 95.2077 49.4545C94.5095 47.7897 92.1433 47.8012 91.4511 49.4684C90.8367 50.9482 90.0544 52.4305 89.8618 53.9952C89.777 54.6868 89.8128 55.3878 89.9676 56.0672C88.5245 52.9193 87.7751 49.4979 87.7703 46.035C87.77 45.166 87.8183 44.2977 87.9149 43.4341C87.9948 42.7262 88.1056 42.0233 88.2474 41.3254C89.0208 37.5387 90.6815 33.9896 93.0929 30.9694C94.2601 30.3326 95.204 29.3533 95.7974 28.1635C96.0124 27.7358 96.1643 27.2792 96.2485 26.808C96.1168 26.8253 95.983 26.8361 95.8514 26.8447C95.8103 26.8469 95.7672 26.849 95.7262 26.8512L95.7107 26.8519C95.566 26.8584 95.4225 26.8229 95.2975 26.7497C95.1725 26.6766 95.0713 26.5688 95.0061 26.4395C94.9409 26.3102 94.9144 26.1647 94.93 26.0207C94.9455 25.8767 95.0023 25.7403 95.0936 25.6278C95.1505 25.5578 95.2073 25.4879 95.2643 25.418C95.3506 25.3101 95.4391 25.2043 95.5254 25.0964C95.5354 25.0862 95.5448 25.0753 95.5535 25.064C95.6528 24.941 95.7521 24.8201 95.8514 24.6971C95.6701 24.4158 95.4264 24.1802 95.1391 24.0086C94.1441 23.4258 92.7713 23.8294 92.0526 24.7295C91.3317 25.6295 91.1957 26.8922 91.4461 28.0167C91.6598 28.9794 92.126 29.8621 92.6505 30.7017C92.5965 30.7708 92.5404 30.8377 92.4864 30.9068C91.5 32.1752 90.6403 33.5372 89.9196 34.9733C90.0949 33.3644 89.8857 31.737 89.3092 30.2248C88.725 28.8154 87.63 27.6285 86.6658 26.4101C85.5075 24.9467 83.1324 25.5854 82.9284 27.4405C82.9264 27.4585 82.9244 27.4764 82.9226 27.4944C83.0658 27.5752 83.206 27.6609 83.3432 27.7517C83.5155 27.8668 83.649 28.0313 83.7263 28.2236C83.8035 28.416 83.8208 28.6271 83.776 28.8295C83.7312 29.0318 83.6263 29.2159 83.475 29.3576C83.3238 29.4993 83.1333 29.5921 82.9284 29.6236L82.9075 29.6269C82.9585 30.1431 83.0487 30.6546 83.1773 31.1572C83.5498 32.5601 84.2082 33.8709 85.1111 35.0074C86.014 36.1439 87.142 37.0817 88.4243 37.7619C88.5085 37.805 88.5905 37.8482 88.6747 37.8892C87.9506 39.9412 87.4964 42.0787 87.3235 44.2478C87.2257 45.5276 87.2314 46.8131 87.3408 48.0919L87.3343 48.0466C87.058 46.6246 86.2995 45.3415 85.1867 44.414C83.534 43.0564 81.1991 42.5565 79.4161 41.4652C78.5578 40.9399 77.458 41.6187 77.6078 42.6138C77.6102 42.6297 77.6126 42.6455 77.6151 42.6614C77.8809 42.7697 78.1397 42.8944 78.3899 43.0348C78.5332 43.1156 78.6734 43.2014 78.8105 43.2921C78.9829 43.4072 79.1164 43.5718 79.1936 43.7641C79.2709 43.9564 79.2882 44.1676 79.2434 44.3699C79.1986 44.5723 79.0937 44.7564 78.9424 44.8981C78.7912 45.0398 78.6006 45.1325 78.3958 45.1641L78.3748 45.1673C78.3597 45.1695 78.3468 45.1716 78.3317 45.1738C78.7858 46.2581 79.4232 47.2562 80.2159 48.1243C81.1952 49.1751 82.3788 50.0148 83.6942 50.592C85.0095 51.1691 86.4289 51.4715 87.8653 51.4806H87.8674C88.2574 53.175 88.8223 54.8242 89.5532 56.4018H95.5751C95.5967 56.3348 95.6161 56.2658 95.6355 56.1989C95.0781 56.2339 94.5185 56.2006 93.9692 56.0996C94.416 55.5513 94.8628 54.9988 95.3096 54.4506C95.3195 54.4403 95.3289 54.4295 95.3376 54.4182C95.5643 54.1376 95.7931 53.8592 96.0197 53.5786L96.0198 53.5782C96.0319 52.7181 95.9332 51.8601 95.7262 51.0252L95.726 51.0251ZM88.8301 37.4597L88.8333 37.4554L88.8301 37.464V37.4597ZM87.4962 49.4841L87.4444 49.3676C87.4466 49.2834 87.4466 49.1992 87.4444 49.1129C87.4444 49.0891 87.4401 49.0654 87.4401 49.0416C87.4595 49.1906 87.4768 49.3395 87.4984 49.4884L87.4962 49.4841Z" fill="#2F2E41"/>
<path d="M42.1029 36.9408V28.8475C42.1029 27.6052 41.6094 26.4137 40.731 25.5353C39.8525 24.6568 38.6611 24.1633 37.4188 24.1633H20.272C19.0296 24.1633 17.8382 24.6568 16.9597 25.5353C16.0813 26.4138 15.5878 27.6052 15.5878 28.8475V73.2481C15.5878 74.4904 16.0813 75.6818 16.9597 76.5603C17.8382 77.4387 19.0296 77.9323 20.2719 77.9323H37.4188C38.0339 77.9323 38.643 77.8111 39.2113 77.5757C39.7796 77.3403 40.296 76.9953 40.731 76.5603C41.1659 76.1253 41.511 75.6089 41.7464 75.0406C41.9818 74.4723 42.1029 73.8632 42.1029 73.2481V42.7018C42.1813 42.7018 42.2564 42.6707 42.3118 42.6153C42.3672 42.5599 42.3984 42.4847 42.3984 42.4064V37.2363C42.3984 37.1579 42.3672 37.0828 42.3118 37.0274C42.2564 36.972 42.1813 36.9408 42.1029 36.9408Z" fill="#E6E6E6"/>
<path d="M41.1061 28.8798V73.2162C41.1062 74.1372 40.7429 75.021 40.0952 75.6756C39.4474 76.3302 38.5675 76.7028 37.6466 76.7124C37.6339 76.7137 37.6211 76.7142 37.6083 76.714H20.3781C19.4505 76.7139 18.5609 76.3453 17.9049 75.6894C17.249 75.0335 16.8805 74.1439 16.8804 73.2162V28.8798C16.8805 27.9522 17.249 27.0626 17.9049 26.4066C18.5609 25.7507 19.4505 25.3822 20.3781 25.3821H22.4691C22.3663 25.6345 22.3271 25.9083 22.355 26.1795C22.3829 26.4506 22.477 26.7107 22.629 26.9369C22.781 27.1632 22.9863 27.3485 23.2268 27.4768C23.4673 27.6051 23.7356 27.6722 24.0082 27.6724H33.8315C34.1038 27.6717 34.3718 27.6041 34.6119 27.4757C34.852 27.3472 35.057 27.1618 35.2088 26.9357C35.3605 26.7096 35.4545 26.4498 35.4825 26.1789C35.5104 25.908 35.4715 25.6344 35.369 25.3821H37.6083C38.536 25.3822 39.4256 25.7507 40.0815 26.4066C40.7375 27.0626 41.106 27.9522 41.1061 28.8798Z" fill="white"/>
<path d="M37.6897 75.3455C37.6897 75.8049 37.6753 76.2605 37.6466 76.7124C37.6339 76.7137 37.6211 76.7142 37.6083 76.714H20.3781C19.4505 76.7139 18.5609 76.3454 17.9049 75.6894C17.249 75.0335 16.8805 74.1439 16.8804 73.2163V53.458C22.4943 53.7411 27.7847 56.1706 31.6578 60.2444C35.5309 64.3181 37.6903 69.7245 37.6897 75.3455Z" fill="#F2F2F2"/>
<path d="M15.6826 41.4686C15.5768 41.4685 15.4755 41.4264 15.4007 41.3517C15.326 41.2769 15.2839 41.1756 15.2838 41.0699V38.3585C15.2838 38.2527 15.3258 38.1513 15.4006 38.0765C15.4754 38.0017 15.5768 37.9597 15.6826 37.9597C15.7883 37.9597 15.8897 38.0017 15.9645 38.0765C16.0393 38.1513 16.0813 38.2527 16.0813 38.3585V41.0699C16.0812 41.1756 16.0391 41.2769 15.9644 41.3517C15.8896 41.4264 15.7883 41.4685 15.6826 41.4686Z" fill="#E6E6E6"/>
<path d="M31.1088 39.3037H26.8776C26.4954 39.3037 26.1855 39.6136 26.1855 39.9958V41.0744C26.1855 41.4566 26.4954 41.7664 26.8776 41.7664H31.1088C31.491 41.7664 31.8009 41.4566 31.8009 41.0744V39.9958C31.8009 39.6136 31.491 39.3037 31.1088 39.3037Z" fill="#3E7B27"/>
<path d="M36.9577 44.229H21.0287C20.6465 44.229 20.3367 44.5388 20.3367 44.9211V45.9997C20.3367 46.3819 20.6465 46.6917 21.0287 46.6917H36.9577C37.3399 46.6917 37.6498 46.3819 37.6498 45.9997V44.9211C37.6498 44.5388 37.3399 44.229 36.9577 44.229Z" fill="#E6E6E6"/>
<path d="M36.9577 49.1545H21.0287C20.6465 49.1545 20.3367 49.4644 20.3367 49.8466V50.9252C20.3367 51.3074 20.6465 51.6172 21.0287 51.6172H36.9577C37.3399 51.6172 37.6498 51.3074 37.6498 50.9252V49.8466C37.6498 49.4644 37.3399 49.1545 36.9577 49.1545Z" fill="#E6E6E6"/>
<path d="M33.125 74.1908C33.0521 74.1942 32.9799 74.175 32.9183 74.136C32.8566 74.097 32.8085 74.0399 32.7803 73.9726C32.7522 73.9053 32.7454 73.8309 32.7609 73.7597C32.7764 73.6884 32.8135 73.6235 32.8671 73.574L32.8914 73.4771C32.8882 73.4693 32.885 73.4615 32.8818 73.4538C32.8083 73.2803 32.6853 73.1325 32.5281 73.0287C32.3709 72.925 32.1865 72.87 31.9982 72.8707C31.8098 72.8714 31.6259 72.9278 31.4694 73.0327C31.313 73.1376 31.191 73.2864 31.1189 73.4603C30.8306 74.1548 30.4635 74.8504 30.3731 75.5846C30.3333 75.9091 30.3501 76.2381 30.4227 76.5569C29.7456 75.0797 29.3939 73.4742 29.3917 71.8491C29.3915 71.4414 29.4142 71.0339 29.4595 70.6286C29.497 70.2964 29.549 69.9666 29.6155 69.6391C29.9785 67.8621 30.7577 66.1966 31.8894 64.7794C32.4371 64.4805 32.88 64.021 33.1585 63.4626C33.2594 63.2619 33.3307 63.0477 33.3702 62.8266C33.3084 62.8347 33.2456 62.8397 33.1838 62.8438C33.1646 62.8448 33.1443 62.8458 33.1251 62.8468L33.1178 62.8471C33.0499 62.8502 32.9826 62.8335 32.9239 62.7992C32.8652 62.7649 32.8177 62.7143 32.7872 62.6536C32.7566 62.5929 32.7442 62.5247 32.7514 62.4571C32.7587 62.3895 32.7854 62.3255 32.8282 62.2727C32.8549 62.2399 32.8816 62.2071 32.9083 62.1743C32.9488 62.1236 32.9904 62.074 33.0309 62.0234C33.0355 62.0186 33.0399 62.0135 33.044 62.0082C33.0906 61.9504 33.1372 61.8937 33.1838 61.836C33.0988 61.704 32.9844 61.5934 32.8496 61.5129C32.3826 61.2394 31.7385 61.4288 31.4012 61.8512C31.0629 62.2735 30.9991 62.8661 31.1166 63.3938C31.2321 63.8428 31.4232 64.2689 31.6817 64.6538C31.6564 64.6862 31.6301 64.7176 31.6048 64.75C31.1419 65.3452 30.7384 65.9843 30.4002 66.6582C30.4825 65.9033 30.3843 65.1396 30.1138 64.4299C29.8397 63.7686 29.3258 63.2116 28.8733 62.6399C28.7536 62.4863 28.5911 62.3716 28.4063 62.3104C28.2214 62.2491 28.0226 62.2441 27.8349 62.2958C27.6472 62.3476 27.479 62.4538 27.3517 62.6011C27.2244 62.7484 27.1435 62.9302 27.1195 63.1234C27.1185 63.1318 27.1176 63.1402 27.1168 63.1487C27.184 63.1866 27.2498 63.2268 27.3141 63.2694C27.395 63.3234 27.4577 63.4006 27.4939 63.4909C27.5302 63.5811 27.5383 63.6802 27.5173 63.7752C27.4962 63.8701 27.447 63.9565 27.376 64.023C27.305 64.0895 27.2156 64.133 27.1195 64.1478L27.1097 64.1494C27.1336 64.3916 27.1759 64.6317 27.2363 64.8675C27.4111 65.5258 27.7201 66.1409 28.1438 66.6743C28.5675 67.2076 29.0968 67.6477 29.6985 67.9668C29.738 67.9871 29.7765 68.0074 29.816 68.0266C29.4763 68.9895 29.2631 69.9926 29.182 71.0105C29.1361 71.611 29.1388 72.2143 29.1901 72.8144L29.1871 72.7931C29.0574 72.1258 28.7014 71.5237 28.1793 71.0885C27.4037 70.4514 26.308 70.2168 25.4713 69.7047C25.3824 69.6476 25.279 69.6171 25.1733 69.6169C25.0676 69.6166 24.9641 69.6466 24.8749 69.7032C24.7857 69.7599 24.7146 69.8409 24.6699 69.9366C24.6252 70.0324 24.6088 70.1389 24.6227 70.2437L24.6261 70.266C24.7509 70.3168 24.8723 70.3754 24.9898 70.4413C25.057 70.4792 25.1228 70.5194 25.1871 70.562C25.268 70.616 25.3307 70.6932 25.3669 70.7835C25.4032 70.8737 25.4113 70.9728 25.3903 71.0678C25.3692 71.1627 25.32 71.2491 25.249 71.3156C25.178 71.3821 25.0886 71.4256 24.9925 71.4405L24.9827 71.442C24.9756 71.443 24.9695 71.444 24.9624 71.445C25.1755 71.9539 25.4746 72.4222 25.8466 72.8296C26.3062 73.3227 26.8616 73.7168 27.4789 73.9876C28.0961 74.2584 28.7622 74.4003 29.4362 74.4046H29.4372C29.6202 75.1997 29.8853 75.9736 30.2283 76.7139H33.0542C33.0643 76.6825 33.0734 76.6501 33.0825 76.6187C32.821 76.6351 32.5584 76.6195 32.3006 76.5721C32.5102 76.3149 32.7199 76.0555 32.9296 75.7983C32.9342 75.7935 32.9386 75.7884 32.9427 75.7831C33.0491 75.6514 33.1565 75.5208 33.2628 75.3891L33.2629 75.3889C33.2685 74.9853 33.2221 74.5826 33.125 74.1908ZM29.889 67.825L29.8904 67.823L29.889 67.8271V67.825ZM29.263 73.4677L29.2387 73.413C29.2397 73.3735 29.2397 73.334 29.2387 73.2935C29.2387 73.2823 29.2367 73.2712 29.2367 73.2601C29.2458 73.3299 29.2539 73.3998 29.264 73.4697L29.263 73.4677Z" fill="#CCCCCC"/>
<path d="M15.6028 36.2054C15.4971 36.2053 15.3957 36.1633 15.321 36.0885C15.2462 36.0137 15.2042 35.9124 15.204 35.8067V33.0953C15.204 32.9895 15.2461 32.8881 15.3208 32.8133C15.3956 32.7385 15.497 32.6965 15.6028 32.6965C15.7085 32.6965 15.8099 32.7385 15.8847 32.8133C15.9595 32.8881 16.0015 32.9895 16.0015 33.0953V35.8067C16.0014 35.9124 15.9593 36.0137 15.8846 36.0885C15.8098 36.1633 15.7085 36.2053 15.6028 36.2054Z" fill="#E6E6E6"/>
<path d="M26.2092 25.8382C26.2094 25.7325 26.2514 25.6311 26.3262 25.5564C26.4009 25.4816 26.5023 25.4396 26.608 25.4395H29.3194C29.4251 25.4395 29.5266 25.4815 29.6013 25.5562C29.6761 25.631 29.7181 25.7324 29.7181 25.8382C29.7181 25.9439 29.6761 26.0454 29.6013 26.1201C29.5266 26.1949 29.4251 26.2369 29.3194 26.2369H26.608C26.5023 26.2368 26.4009 26.1948 26.3262 26.12C26.2514 26.0453 26.2094 25.9439 26.2092 25.8382Z" fill="white"/>
<path d="M15.6826 46.0941C15.5768 46.094 15.4755 46.0519 15.4007 45.9772C15.326 45.9024 15.2839 45.8011 15.2838 45.6954V42.9839C15.2838 42.8782 15.3258 42.7768 15.4006 42.702C15.4754 42.6272 15.5768 42.5852 15.6826 42.5852C15.7883 42.5852 15.8897 42.6272 15.9645 42.702C16.0393 42.7768 16.0813 42.8782 16.0813 42.9839V45.6954C16.0812 45.8011 16.0391 45.9024 15.9644 45.9772C15.8896 46.0519 15.7883 46.094 15.6826 46.0941Z" fill="#E6E6E6"/>
<path d="M30.8346 26.2369C31.0548 26.2369 31.2333 26.0584 31.2333 25.8382C31.2333 25.618 31.0548 25.4395 30.8346 25.4395C30.6144 25.4395 30.4359 25.618 30.4359 25.8382C30.4359 26.0584 30.6144 26.2369 30.8346 26.2369Z" fill="white"/>
<path d="M136.997 77.9313L0.189908 77.9803C0.139637 77.9802 0.0914752 77.9601 0.0559793 77.9245C0.0204834 77.8889 0.000549316 77.8407 0.000549316 77.7904C0.000549316 77.7402 0.0204834 77.6919 0.0559793 77.6563C0.0914752 77.6207 0.139637 77.6007 0.189908 77.6005L136.997 77.5515C137.047 77.5515 137.095 77.5715 137.131 77.6071C137.167 77.6428 137.187 77.6911 137.187 77.7414C137.187 77.7918 137.167 77.8401 137.131 77.8757C137.095 77.9113 137.047 77.9313 136.997 77.9313Z" fill="#CACACA"/>
<path d="M58.4985 36.0628L57.7789 36.217C57.7742 35.916 57.7367 35.6164 57.6671 35.3235C57.6016 35.6822 57.4638 36.0237 57.2619 36.3273L53.1348 37.2087L49.1724 33.0271C49.1663 30.9363 50.3274 29.3474 52.4091 29.3474C52.5346 29.3474 52.6646 29.3535 52.7961 29.3656C53.9208 29.1774 55.0747 29.4328 56.0148 30.0783C56.955 30.7237 57.608 31.7088 57.8364 32.8261C59.3119 34.2789 58.7767 35.133 58.4985 36.0628Z" fill="#2F2E41"/>
<path d="M60.5276 84.9647H62.0246L62.7369 79.1902L60.5273 79.1903L60.5276 84.9647Z" fill="#FFB6B6"/>
<path d="M60.1563 84.2262L62.5228 84.085V85.0989L64.7728 86.6528C64.8839 86.7295 64.9676 86.8397 65.0116 86.9674C65.0557 87.0951 65.0578 87.2335 65.0176 87.3624C64.9774 87.4914 64.897 87.6041 64.7882 87.6841C64.6795 87.7641 64.5479 87.8073 64.4129 87.8073H61.5954L61.1098 86.8043L60.9202 87.8073H59.8579L60.1563 84.2262Z" fill="#2F2E41"/>
<path d="M42.9889 83.3353L44.291 84.0741L47.76 79.4033L45.8383 78.313L42.9889 83.3353Z" fill="#FFB6B6"/>
<path d="M43.0304 82.5098L45.1584 83.5548L44.658 84.4366L45.848 86.8984C45.9068 87.02 45.9252 87.1572 45.9005 87.29C45.8758 87.4228 45.8093 87.5442 45.7107 87.6365C45.6122 87.7288 45.4867 87.7872 45.3525 87.8031C45.2184 87.819 45.0827 87.7916 44.9653 87.725L42.5148 86.3346L42.5874 85.2226L41.9275 86.0014L41.0036 85.4771L43.0304 82.5098Z" fill="#2F2E41"/>
<path d="M66.0612 37.0746C65.8694 37.1023 65.686 37.1718 65.5239 37.2781C65.3618 37.3844 65.225 37.5249 65.1232 37.6898C65.0213 37.8547 64.9568 38.04 64.9342 38.2325C64.9117 38.425 64.9316 38.6201 64.9926 38.8041L62.7018 40.7869L63.5672 42.4729L66.763 39.6273C67.0653 39.5044 67.3119 39.2748 67.4562 38.9821C67.6006 38.6894 67.6325 38.3539 67.546 38.0393C67.4595 37.7246 67.2606 37.4526 66.9869 37.2748C66.7133 37.097 66.3839 37.0258 66.0612 37.0746Z" fill="#FFB6B6"/>
<path d="M63.7543 43.893C62.9902 45.0504 61.2775 46.1681 58.7357 47.159C58.5955 47.2152 58.4452 47.2417 58.2943 47.2367C58.1433 47.2318 57.995 47.1956 57.8588 47.1304C56.8996 46.6938 56.2848 45.071 56.2271 44.9136L54.3693 42.4075C54.3364 42.371 53.4676 41.385 53.567 40.4157C53.5894 40.2126 53.6555 40.0167 53.7607 39.8416C53.866 39.6664 54.0079 39.5161 54.1767 39.401C55.583 38.3585 58.7348 41.9793 59.1438 42.4607L61.2008 41.2074L62.6996 40.5387L63.9096 39.0664L65.6132 40.8082L64.081 43.2457C63.9992 43.4742 63.8895 43.6916 63.7543 43.893Z" fill="#2F2E41"/>
<path d="M58.4115 48.3333C58.4115 48.3333 62.8133 55.3448 62.0159 56.1422C61.2184 56.9397 59.9774 57.1491 59.9774 57.1491L57.231 53.5903L58.4115 48.3333Z" fill="#2F2E41"/>
<path d="M54.5196 38.7573L56.5942 40.1607C57.5585 40.813 58.2837 41.762 58.66 42.8637C59.0362 43.9654 59.0429 45.1597 58.6791 46.2656L58.0951 48.0409L54.5196 38.7573Z" fill="#2F2E41"/>
<path d="M50.8512 57.8967L50.5738 58.8627L49.6274 70.5124L44.899 79.3245L47.1557 80.9364L53.6036 72.5541L56.1539 64.2312L60.159 82.6559L63.168 82.4409L61.0782 56.8953L57.1126 49.7048L50.8512 57.8967Z" fill="#2F2E41"/>
<path d="M54.1668 39.1101L57.0542 41.4699C57.6879 41.9878 58.1442 42.6905 58.3596 43.48C58.4573 43.8386 58.5038 44.2091 58.4976 44.5807L58.4115 49.7048L61.0589 56.7801C61.0589 56.7801 53.8816 59.4916 52.9246 57.0991C51.9677 54.7067 54.1668 39.1101 54.1668 39.1101Z" fill="#3E7B27"/>
<path d="M55.0304 58.3412C51.4449 58.3412 50.5711 58.3682 50.5145 58.3567L50.4578 58.3452V56.1887L51.3297 52.3144C51.2278 51.1116 50.9891 49.5256 51.0107 48.1676C51.0888 43.2591 50.8475 38.4643 50.8475 38.4643L52.7452 36.7126L53.6073 37.2737L55.2065 38.8728C57.0653 43.4473 58.5403 47.754 58.5496 48.0307L58.6665 52.7929L58.188 54.7069C56.0234 56.2348 58.0012 58.3412 55.0304 58.3412Z" fill="#2F2E41"/>
<path opacity="0.2" d="M51.6518 42.7405L51.2159 45.4611L54.1668 46.6783L51.6518 42.7405Z" fill="black"/>
<path d="M54.6245 36.2022C56.22 36.2022 57.5135 34.9087 57.5135 33.3131C57.5135 31.7175 56.22 30.4241 54.6245 30.4241C53.0289 30.4241 51.7354 31.7175 51.7354 33.3131C51.7354 34.9087 53.0289 36.2022 54.6245 36.2022Z" fill="#FFB6B6"/>
<path opacity="0.2" d="M49.7836 47.9719C50.5525 48.8622 51.5954 49.4718 52.7485 49.7049C53.9016 49.938 55.0994 49.7813 56.1537 49.2595L56.7825 48.9483L49.7836 47.9719Z" fill="black"/>
<path d="M59.8368 47.3068C59.7079 47.1621 59.5489 47.0473 59.3708 46.9706C59.1928 46.894 59.0002 46.8573 58.8064 46.8631C58.6127 46.869 58.4226 46.9172 58.2495 47.0045C58.0764 47.0918 57.9246 47.2159 57.8047 47.3682L54.8877 46.5493L53.9577 48.2006L58.0933 49.2992C58.3625 49.4836 58.69 49.563 59.0138 49.5221C59.3376 49.4812 59.6351 49.323 59.85 49.0774C60.0649 48.8318 60.1822 48.5159 60.1798 48.1896C60.1774 47.8633 60.0553 47.5492 59.8368 47.3068Z" fill="#FFB6B6"/>
<path d="M52.8758 49.1393C51.4889 49.1394 49.6124 48.3263 47.3848 46.7514C47.2607 46.6653 47.1557 46.5545 47.0767 46.4258C46.9976 46.2971 46.9461 46.1534 46.9255 46.0038C46.7612 44.9628 47.7766 43.5555 47.8761 43.4206L48.9435 40.4893C48.9558 40.4417 49.2998 39.1734 50.1634 38.7222C50.3452 38.6289 50.5451 38.5761 50.7492 38.5674C50.9534 38.5587 51.157 38.5943 51.3461 38.6718C52.991 39.2708 51.7066 43.8962 51.5303 44.5027L53.7096 45.5285L55.0936 46.4107L56.9889 46.609L56.4743 48.9904L53.5959 49.0552C53.3603 49.1129 53.1184 49.1411 52.8758 49.1393Z" fill="#2F2E41"/>
<path d="M58.0888 31.4127C57.8575 31.7135 57.0608 31.9796 56.1145 32.1943C56.116 32.1746 56.116 32.155 56.116 32.1353C56.1113 31.8343 56.0738 31.5347 56.0041 31.2419C55.9387 31.6005 55.8008 31.9421 55.5989 32.2457C55.5838 32.2684 55.5687 32.291 55.5521 32.3137C54.7402 32.474 53.8816 32.5979 53.2088 32.6811C53.6714 34.3471 55.4447 35.7137 55.2527 36.7266L50.0568 37.7879C50.0887 37.367 50.0551 36.9436 49.957 36.5331C49.8576 37.0749 49.5949 37.5734 49.2041 37.9617L48.7627 38.0524L48.6312 37.4039C47.4913 34.666 49.0802 31.8632 51.6834 30.4134C52.1476 29.7176 52.8683 29.2339 53.6881 29.0679L54.3366 28.9349C54.7457 28.8512 55.1672 28.8489 55.5772 28.9281C55.9872 29.0073 56.3775 29.1666 56.7259 29.3966C57.0744 29.6267 57.3741 29.9232 57.6079 30.2691C57.8418 30.615 58.0052 31.0036 58.0888 31.4127Z" fill="#2F2E41"/>
<path d="M70.5012 83.7885L70.578 82.0609C71.379 81.6328 72.2723 81.4066 73.1805 81.4021C71.9306 82.424 72.0868 84.394 71.2394 85.7682C70.9718 86.1948 70.6116 86.5557 70.1856 86.8242C69.7595 87.0927 69.2785 87.2619 68.7782 87.3192L67.7322 87.9596C67.5887 87.1595 67.6203 86.3377 67.825 85.5509C68.0296 84.7642 68.4024 84.0312 68.9176 83.4023C69.2101 83.0524 69.5456 82.7408 69.916 82.4747C70.1665 83.1353 70.5012 83.7885 70.5012 83.7885Z" fill="#F2F2F2"/>
<path d="M73.037 87.9999H36.6112C36.561 87.9998 36.5128 87.9797 36.4773 87.9441C36.4418 87.9085 36.4219 87.8603 36.4219 87.81C36.4219 87.7598 36.4418 87.7115 36.4773 87.6759C36.5128 87.6403 36.561 87.6203 36.6112 87.6201H73.037C73.062 87.62 73.0868 87.6249 73.1099 87.6344C73.133 87.6439 73.154 87.6579 73.1717 87.6755C73.1894 87.6932 73.2034 87.7141 73.213 87.7372C73.2226 87.7603 73.2275 87.785 73.2275 87.81C73.2275 87.835 73.2226 87.8597 73.213 87.8828C73.2034 87.9059 73.1894 87.9269 73.1717 87.9445C73.154 87.9621 73.133 87.9761 73.1099 87.9856C73.0868 87.9951 73.062 88 73.037 87.9999Z" fill="#CACACA"/>
</g>
<defs>
<clipPath id="clip0_1107_1206">
<rect width="137.187" height="88" fill="white"/>
</clipPath>
</defs>
</svg>
