<svg width="24" height="24" viewBox="0 0 24 24" fill="none" xmlns="http://www.w3.org/2000/svg">
<mask id="mask0_217_1113" style="mask-type:alpha" maskUnits="userSpaceOnUse" x="0" y="1" width="23" height="23">
<path d="M0.823584 8.43939C0.690405 8.48376 0.572353 8.56463 0.482856 8.67277C0.39336 8.78092 0.336012 8.91202 0.317336 9.05115C0.29866 9.19028 0.319406 9.33186 0.377214 9.45978C0.435022 9.5877 0.52757 9.69683 0.644333 9.77476L7.27664 13.4309C7.40025 13.499 7.54058 13.5308 7.68149 13.5228C7.82239 13.5147 7.95817 13.467 8.0732 13.3852L15.1192 8.3609C15.4596 8.13286 15.8669 8.54015 15.6389 8.88062L10.6145 15.9266C10.5328 16.0416 10.4851 16.1774 10.477 16.3183C10.469 16.4592 10.5008 16.5995 10.5689 16.7231L14.225 23.3555C14.303 23.4722 14.4121 23.5648 14.54 23.6226C14.6679 23.6804 14.8095 23.7011 14.9486 23.6824C15.0878 23.6638 15.2189 23.6064 15.327 23.5169C15.4352 23.4274 15.516 23.3094 15.5604 23.1762L22.4547 2.49333C22.4986 2.36126 22.5048 2.2196 22.4728 2.08417C22.4408 1.94875 22.3717 1.82491 22.2733 1.72651C22.1749 1.6281 22.051 1.55902 21.9156 1.52698C21.7802 1.49494 21.6385 1.50122 21.5065 1.5451L0.823584 8.43939Z" fill="#006FFD"/>
</mask>
<g mask="url(#mask0_217_1113)">
<rect width="24" height="24" fill="#7EDC96"/>
</g>
</svg>
