<svg width="24" height="24" viewBox="0 0 24 24" fill="none" xmlns="http://www.w3.org/2000/svg">
<g clip-path="url(#clip0_473_1332)">
<mask id="mask0_473_1332" style="mask-type:alpha" maskUnits="userSpaceOnUse" x="-1" y="0" width="25" height="23">
<path d="M23.2243 8.0704L16.0295 7.02476L12.8133 0.50441C12.7254 0.325886 12.5809 0.181367 12.4024 0.0935227C11.9547 -0.127506 11.4106 0.0566846 11.1867 0.50441L7.97047 7.02476L0.775702 8.0704C0.577343 8.09873 0.395985 8.19225 0.257134 8.33393C0.0892702 8.50647 -0.00323038 8.73859 -4.23131e-05 8.97929C0.00314576 9.21998 0.101762 9.44957 0.274136 9.6176L5.47965 14.6928L4.24982 21.8592C4.22098 22.0259 4.23943 22.1974 4.30307 22.3541C4.36672 22.5109 4.47301 22.6467 4.6099 22.7461C4.74678 22.8455 4.90879 22.9046 5.07755 22.9166C5.2463 22.9286 5.41505 22.8931 5.56466 22.8142L12 19.4307L18.4353 22.8142C18.611 22.9077 18.8151 22.9388 19.0106 22.9048C19.5036 22.8198 19.8352 22.3523 19.7502 21.8592L18.5204 14.6928L23.7259 9.6176C23.8675 9.47875 23.9611 9.29739 23.9894 9.09903C24.0659 8.60313 23.7202 8.14407 23.2243 8.0704Z" fill="#006FFD"/>
</mask>
<g mask="url(#mask0_473_1332)">
<rect width="24" height="24" fill="#FFDA61"/>
</g>
</g>
<defs>
<clipPath id="clip0_473_1332">
<rect width="24" height="24" fill="white"/>
</clipPath>
</defs>
</svg>
